<svg width="600" height="400" viewBox="0 0 600 400" fill="none" xmlns="http://www.w3.org/2000/svg">
<rect x="0.5" y="0.5" width="599" height="399" rx="4.5" fill="#003F48" stroke="#CFB194"/>
<path d="M98.7338 22.5C98.7338 22.5 92.3896 27.0831 88.3004 29.9554C84.465 32.6486 72.8319 37.5611 67.918 43.2018C62.9925 37.5669 51.371 32.6544 47.5356 29.9612C43.4407 27.0715 37.1022 22.5116 37.1022 22.5116C33.186 24.5864 28.2375 46.2937 31.104 58.2686C33.9704 70.2435 53.5973 78.6872 59.0937 83.2298C63.2578 86.6628 67.918 91.529 67.918 91.529C67.9526 91.4943 72.5897 86.657 76.7365 83.2298C82.2387 78.693 101.86 70.2493 104.726 58.2744C107.593 46.2995 102.65 24.6095 98.7338 22.5ZM67.8488 85.9057C67.8488 85.9057 65.5937 67.4116 65.5937 62.2102C65.5937 57.0087 67.4624 57.0087 67.8488 57.0087C68.2352 57.0087 70.2077 57.0087 70.2077 62.1639C70.2077 67.3192 67.8488 85.9057 67.8488 85.9057Z" fill="white" fill-opacity="0.15"/>
<path d="M98.7338 167.163C98.7338 167.163 92.3896 171.746 88.3004 174.618C84.465 177.312 72.8319 182.224 67.918 187.865C62.9925 182.23 51.371 177.317 47.5356 174.624C43.4407 171.735 37.1022 167.175 37.1022 167.175C33.186 169.249 28.2375 190.957 31.104 202.932C33.9704 214.907 53.5973 223.35 59.0937 227.893C63.2578 231.326 67.918 236.192 67.918 236.192C67.9526 236.157 72.5897 231.32 76.7365 227.893C82.2387 223.356 101.86 214.912 104.726 202.938C107.593 190.963 102.65 169.273 98.7338 167.163ZM67.8488 230.569C67.8488 230.569 65.5937 212.075 65.5937 206.873C65.5937 201.672 67.4624 201.672 67.8488 201.672C68.2352 201.672 70.2077 201.672 70.2077 206.827C70.2077 211.982 67.8488 230.569 67.8488 230.569Z" fill="white" fill-opacity="0.15"/>
<path d="M500.51 373.501C500.51 373.501 506.855 368.918 510.944 366.046C514.779 363.352 526.412 358.44 531.326 352.799C536.252 358.434 547.873 363.347 551.709 366.04C555.804 368.929 562.142 373.489 562.142 373.489C566.058 371.415 571.007 349.707 568.14 337.732C565.274 325.757 545.647 317.314 540.151 312.771C535.986 309.338 531.326 304.472 531.326 304.472C531.292 304.507 526.655 309.344 522.508 312.771C517.005 317.308 497.384 325.752 494.518 337.727C491.651 349.701 496.594 371.391 500.51 373.501ZM531.395 310.095C531.395 310.095 533.651 328.589 533.651 333.791C533.651 338.992 531.782 338.992 531.395 338.992C531.009 338.992 529.037 338.992 529.037 333.837C529.037 328.682 531.395 310.095 531.395 310.095Z" fill="white" fill-opacity="0.15"/>
<path d="M113.107 150.373C113.107 150.373 119.451 145.79 123.54 142.918C127.375 140.224 139.009 135.312 143.922 129.671C148.848 135.306 160.469 140.219 164.305 142.912C168.4 145.802 174.738 150.361 174.738 150.361C178.654 148.287 183.603 126.579 180.736 114.604C177.87 102.63 158.243 94.1858 152.747 89.6432C148.583 86.2103 143.922 81.344 143.922 81.344C143.888 81.3787 139.251 86.216 135.104 89.6432C129.602 94.18 109.981 102.624 107.114 114.599C104.248 126.574 109.19 148.264 113.107 150.373ZM143.992 86.9674C143.992 86.9674 146.247 105.461 146.247 110.663C146.247 115.864 144.378 115.864 143.992 115.864C143.605 115.864 141.633 115.864 141.633 110.709C141.633 105.554 143.992 86.9674 143.992 86.9674Z" fill="white" fill-opacity="0.15"/>
<path d="M113.107 299.942C113.107 299.942 119.451 295.359 123.54 292.487C127.375 289.794 139.009 284.881 143.922 279.241C148.848 284.876 160.469 289.788 164.305 292.481C168.4 295.371 174.738 299.931 174.738 299.931C178.654 297.856 183.603 276.149 180.736 264.174C177.87 252.199 158.243 243.755 152.747 239.213C148.583 235.78 143.922 230.913 143.922 230.913C143.888 230.948 139.251 235.785 135.104 239.213C129.602 243.749 109.981 252.193 107.114 264.168C104.248 276.143 109.19 297.833 113.107 299.942ZM143.992 236.537C143.992 236.537 146.247 255.031 146.247 260.232C146.247 265.434 144.378 265.434 143.992 265.434C143.605 265.434 141.633 265.434 141.633 260.278C141.633 255.123 143.992 236.537 143.992 236.537Z" fill="white" fill-opacity="0.15"/>
<path d="M268.257 150.373C268.257 150.373 274.601 145.79 278.69 142.918C282.526 140.224 294.159 135.312 299.073 129.671C303.998 135.306 315.62 140.219 319.455 142.912C323.55 145.802 329.888 150.361 329.888 150.361C333.805 148.287 338.753 126.579 335.887 114.604C333.02 102.63 313.393 94.1858 307.897 89.6432C303.733 86.2103 299.073 81.344 299.073 81.344C299.038 81.3787 294.401 86.216 290.254 89.6432C284.752 94.18 265.131 102.624 262.264 114.599C259.398 126.574 264.341 148.264 268.257 150.373ZM299.142 86.9674C299.142 86.9674 301.397 105.461 301.397 110.663C301.397 115.864 299.528 115.864 299.142 115.864C298.755 115.864 296.783 115.864 296.783 110.709C296.783 105.554 299.142 86.9674 299.142 86.9674Z" fill="white" fill-opacity="0.15"/>
<path d="M268.257 299.942C268.257 299.942 274.601 295.359 278.69 292.487C282.526 289.794 294.159 284.881 299.073 279.241C303.998 284.876 315.62 289.788 319.455 292.481C323.55 295.371 329.888 299.931 329.888 299.931C333.805 297.856 338.753 276.149 335.887 264.174C333.02 252.199 313.393 243.755 307.897 239.213C303.733 235.78 299.073 230.913 299.073 230.913C299.038 230.948 294.401 235.785 290.254 239.213C284.752 243.749 265.131 252.193 262.264 264.168C259.398 276.143 264.341 297.833 268.257 299.942ZM299.142 236.537C299.142 236.537 301.397 255.031 301.397 260.232C301.397 265.434 299.528 265.434 299.142 265.434C298.755 265.434 296.783 265.434 296.783 260.278C296.783 255.123 299.142 236.537 299.142 236.537Z" fill="white" fill-opacity="0.15"/>
<path d="M422.728 150.373C422.728 150.373 429.072 145.79 433.162 142.918C436.997 140.224 448.63 135.312 453.544 129.671C458.469 135.306 470.091 140.219 473.926 142.912C478.021 145.802 484.36 150.361 484.36 150.361C488.276 148.287 493.224 126.579 490.358 114.604C487.492 102.63 467.865 94.1858 462.368 89.6432C458.204 86.2103 453.544 81.344 453.544 81.344C453.509 81.3787 448.872 86.216 444.725 89.6432C439.223 94.18 419.602 102.624 416.736 114.599C413.869 126.574 418.812 148.264 422.728 150.373ZM453.613 86.9674C453.613 86.9674 455.868 105.461 455.868 110.663C455.868 115.864 454 115.864 453.613 115.864C453.227 115.864 451.254 115.864 451.254 110.709C451.254 105.554 453.613 86.9674 453.613 86.9674Z" fill="white" fill-opacity="0.15"/>
<path d="M422.728 299.942C422.728 299.942 429.072 295.359 433.162 292.487C436.997 289.794 448.63 284.881 453.544 279.241C458.469 284.876 470.091 289.788 473.926 292.481C478.021 295.371 484.36 299.931 484.36 299.931C488.276 297.856 493.224 276.149 490.358 264.174C487.492 252.199 467.865 243.755 462.368 239.213C458.204 235.78 453.544 230.913 453.544 230.913C453.509 230.948 448.872 235.785 444.725 239.213C439.223 243.749 419.602 252.193 416.736 264.168C413.869 276.143 418.812 297.833 422.728 299.942ZM453.613 236.537C453.613 236.537 455.868 255.031 455.868 260.232C455.868 265.434 454 265.434 453.613 265.434C453.227 265.434 451.254 265.434 451.254 260.278C451.254 255.123 453.613 236.537 453.613 236.537Z" fill="white" fill-opacity="0.15"/>
<path d="M253.205 22.5C253.205 22.5 246.861 27.0831 242.772 29.9554C238.936 32.6486 227.303 37.5611 222.389 43.2018C217.464 37.5669 205.842 32.6544 202.007 29.9612C197.912 27.0715 191.573 22.5116 191.573 22.5116C187.657 24.5864 182.709 46.2937 185.575 58.2686C188.442 70.2435 208.069 78.6872 213.565 83.2298C217.729 86.6628 222.389 91.529 222.389 91.529C222.424 91.4943 227.061 86.657 231.208 83.2298C236.71 78.693 256.331 70.2493 259.198 58.2744C262.064 46.2995 257.121 24.6095 253.205 22.5ZM222.32 85.9057C222.32 85.9057 220.065 67.4116 220.065 62.2102C220.065 57.0087 221.934 57.0087 222.32 57.0087C222.707 57.0087 224.679 57.0087 224.679 62.1639C224.679 67.3192 222.32 85.9057 222.32 85.9057Z" fill="white" fill-opacity="0.15"/>
<path d="M253.205 167.163C253.205 167.163 246.861 171.746 242.772 174.618C238.936 177.312 227.303 182.224 222.389 187.865C217.464 182.23 205.842 177.317 202.007 174.624C197.912 171.735 191.573 167.175 191.573 167.175C187.657 169.249 182.709 190.957 185.575 202.932C188.442 214.907 208.069 223.35 213.565 227.893C217.729 231.326 222.389 236.192 222.389 236.192C222.424 236.157 227.061 231.32 231.208 227.893C236.71 223.356 256.331 214.912 259.198 202.938C262.064 190.963 257.121 169.273 253.205 167.163ZM222.32 230.569C222.32 230.569 220.065 212.075 220.065 206.873C220.065 201.672 221.934 201.672 222.32 201.672C222.707 201.672 224.679 201.672 224.679 206.827C224.679 211.982 222.32 230.569 222.32 230.569Z" fill="white" fill-opacity="0.15"/>
<path d="M346.04 373.501C346.04 373.501 352.384 368.918 356.473 366.046C360.308 363.352 371.941 358.44 376.855 352.799C381.781 358.434 393.402 363.347 397.238 366.04C401.333 368.929 407.671 373.489 407.671 373.489C411.587 371.415 416.536 349.707 413.669 337.732C410.803 325.757 391.176 317.314 385.68 312.771C381.516 309.338 376.855 304.472 376.855 304.472C376.821 304.507 372.184 309.344 368.037 312.771C362.535 317.308 342.914 325.752 340.047 337.727C337.181 349.701 342.123 371.391 346.04 373.501ZM376.925 310.095C376.925 310.095 379.18 328.589 379.18 333.791C379.18 338.992 377.311 338.992 376.925 338.992C376.538 338.992 374.566 338.992 374.566 333.837C374.566 328.682 376.925 310.095 376.925 310.095Z" fill="white" fill-opacity="0.15"/>
<path d="M407.676 22.5C407.676 22.5 401.332 27.0831 397.243 29.9554C393.408 32.6486 381.774 37.5611 376.861 43.2018C371.935 37.5669 360.314 32.6544 356.478 29.9612C352.383 27.0715 346.045 22.5116 346.045 22.5116C342.129 24.5864 337.18 46.2937 340.047 58.2686C342.913 70.2435 362.54 78.6872 368.036 83.2298C372.2 86.6628 376.861 91.529 376.861 91.529C376.895 91.4943 381.532 86.657 385.679 83.2298C391.181 78.693 410.802 70.2493 413.669 58.2744C416.535 46.2995 411.593 24.6095 407.676 22.5ZM376.791 85.9057C376.791 85.9057 374.536 67.4116 374.536 62.2102C374.536 57.0087 376.405 57.0087 376.791 57.0087C377.178 57.0087 379.15 57.0087 379.15 62.1639C379.15 67.3192 376.791 85.9057 376.791 85.9057Z" fill="white" fill-opacity="0.15"/>
<path d="M407.676 167.163C407.676 167.163 401.332 171.746 397.243 174.618C393.408 177.312 381.774 182.224 376.861 187.865C371.935 182.23 360.314 177.317 356.478 174.624C352.383 171.735 346.045 167.175 346.045 167.175C342.129 169.249 337.18 190.957 340.047 202.932C342.913 214.907 362.54 223.35 368.036 227.893C372.2 231.326 376.861 236.192 376.861 236.192C376.895 236.157 381.532 231.32 385.679 227.893C391.181 223.356 410.802 214.912 413.669 202.938C416.535 190.963 411.593 169.273 407.676 167.163ZM376.791 230.569C376.791 230.569 374.536 212.075 374.536 206.873C374.536 201.672 376.405 201.672 376.791 201.672C377.178 201.672 379.15 201.672 379.15 206.827C379.15 211.982 376.791 230.569 376.791 230.569Z" fill="white" fill-opacity="0.15"/>
<path d="M191.568 373.501C191.568 373.501 197.913 368.918 202.002 366.046C205.837 363.352 217.47 358.44 222.384 352.799C227.31 358.434 238.931 363.347 242.767 366.04C246.861 368.929 253.2 373.489 253.2 373.489C257.116 371.415 262.065 349.707 259.198 337.732C256.332 325.757 236.705 317.314 231.208 312.771C227.044 309.338 222.384 304.472 222.384 304.472C222.35 304.507 217.712 309.344 213.566 312.771C208.063 317.308 188.442 325.752 185.576 337.727C182.709 349.701 187.652 371.391 191.568 373.501ZM222.453 310.095C222.453 310.095 224.708 328.589 224.708 333.791C224.708 338.992 222.84 338.992 222.453 338.992C222.067 338.992 220.094 338.992 220.094 333.837C220.094 328.682 222.453 310.095 222.453 310.095Z" fill="white" fill-opacity="0.15"/>
<path d="M562.148 22.5C562.148 22.5 555.803 27.0831 551.714 29.9554C547.879 32.6486 536.246 37.5611 531.332 43.2018C526.406 37.5669 514.785 32.6544 510.949 29.9612C506.854 27.0715 500.516 22.5116 500.516 22.5116C496.6 24.5864 491.651 46.2937 494.518 58.2686C497.384 70.2435 517.011 78.6872 522.508 83.2298C526.672 86.6628 531.332 91.529 531.332 91.529C531.366 91.4943 536.004 86.657 540.15 83.2298C545.653 78.693 565.274 70.2493 568.14 58.2744C571.007 46.2995 566.064 24.6095 562.148 22.5ZM531.263 85.9057C531.263 85.9057 529.008 67.4116 529.008 62.2102C529.008 57.0087 530.876 57.0087 531.263 57.0087C531.649 57.0087 533.622 57.0087 533.622 62.1639C533.622 67.3192 531.263 85.9057 531.263 85.9057Z" fill="white" fill-opacity="0.15"/>
<path d="M562.148 167.163C562.148 167.163 555.803 171.746 551.714 174.618C547.879 177.312 536.246 182.224 531.332 187.865C526.406 182.23 514.785 177.317 510.949 174.624C506.854 171.735 500.516 167.175 500.516 167.175C496.6 169.249 491.651 190.957 494.518 202.932C497.384 214.907 517.011 223.35 522.508 227.893C526.672 231.326 531.332 236.192 531.332 236.192C531.366 236.157 536.004 231.32 540.15 227.893C545.653 223.356 565.274 214.912 568.14 202.938C571.007 190.963 566.064 169.273 562.148 167.163ZM531.263 230.569C531.263 230.569 529.008 212.075 529.008 206.873C529.008 201.672 530.876 201.672 531.263 201.672C531.649 201.672 533.622 201.672 533.622 206.827C533.622 211.982 531.263 230.569 531.263 230.569Z" fill="white" fill-opacity="0.15"/>
<path d="M37.097 373.501C37.097 373.501 43.4413 368.918 47.5304 366.046C51.3658 363.352 62.9989 358.44 67.9128 352.799C72.8383 358.434 84.4598 363.347 88.2952 366.04C92.3901 368.929 98.7286 373.489 98.7286 373.489C102.645 371.415 107.593 349.707 104.727 337.732C101.86 325.757 82.2335 317.314 76.7371 312.771C72.573 309.338 67.9128 304.472 67.9128 304.472C67.8782 304.507 63.2411 309.344 59.0943 312.771C53.5921 317.308 33.971 325.752 31.1045 337.727C28.2381 349.701 33.1808 371.391 37.097 373.501ZM67.982 310.095C67.982 310.095 70.2371 328.589 70.2371 333.791C70.2371 338.992 68.3684 338.992 67.982 338.992C67.5956 338.992 65.6231 338.992 65.6231 333.837C65.6231 328.682 67.982 310.095 67.982 310.095Z" fill="white" fill-opacity="0.15"/>
<circle cx="300" cy="200" r="34.25" fill="#003F48" stroke="#DEC6A7" stroke-width="1.5"/>
<path d="M298.172 205.702C298.416 205.751 298.625 205.796 298.794 205.834C297.24 210.672 292.903 213.566 288.945 214.234C286.961 214.57 284.98 214.006 283.466 213.331C282.713 212.995 282.089 212.638 281.653 212.365C281.497 212.267 281.366 212.181 281.263 212.11C281.296 212.013 281.339 211.896 281.393 211.762C281.565 211.336 281.851 210.74 282.298 210.081C283.191 208.764 284.734 207.185 287.337 206.171C289.944 205.154 292.923 205.091 295.279 205.294C296.452 205.396 297.459 205.562 298.172 205.702Z" fill="#DEC6A7" stroke="#DEC6A7"/>
<path d="M312.06 214.237C308.102 213.567 303.764 210.674 302.21 205.838C302.38 205.8 302.589 205.755 302.833 205.706C303.546 205.566 304.552 205.399 305.726 205.298C308.082 205.094 311.061 205.156 313.668 206.173C316.271 207.188 317.813 208.767 318.707 210.084C319.154 210.744 319.439 211.339 319.612 211.766C319.666 211.9 319.709 212.017 319.742 212.114C319.638 212.185 319.507 212.271 319.352 212.369C318.916 212.642 318.292 212.999 317.539 213.335C316.025 214.01 314.044 214.573 312.06 214.237Z" fill="#DEC6A7" stroke="#DEC6A7"/>
<path d="M300.467 210.637C300.618 212.108 300.742 213.532 300.742 214.209C300.742 215.033 300.582 215.323 300.512 215.407C300.476 215.449 300.462 215.446 300.454 215.445C300.452 215.445 300.451 215.445 300.45 215.445C300.447 215.445 300.445 215.445 300.443 215.445C300.438 215.441 300.428 215.432 300.415 215.416C300.347 215.329 300.193 215.029 300.193 214.191C300.193 213.51 300.316 212.097 300.467 210.637ZM300.448 215.448C300.448 215.448 300.448 215.448 300.446 215.447C300.448 215.447 300.448 215.448 300.448 215.448Z" fill="#DEC6A7" stroke="#DEC6A7"/>
<path d="M300.446 203.098L299.95 203.158L300.942 203.16L300.446 203.098ZM300.446 203.098L300.942 203.16L300.942 203.16L300.942 203.159L300.943 203.156L300.945 203.142L300.951 203.089L300.977 202.887C300.998 202.711 301.029 202.459 301.066 202.151C301.141 201.536 301.24 200.697 301.339 199.803C301.536 198.03 301.738 195.997 301.738 195.094C301.738 194.181 301.568 193.603 301.274 193.252C300.952 192.867 300.568 192.856 300.446 192.856H300.444C300.397 192.856 300.264 192.856 300.106 192.912C299.941 192.971 299.772 193.081 299.627 193.265C299.349 193.617 299.189 194.194 299.189 195.11C299.189 196.019 299.382 198.046 299.57 199.814C299.665 200.705 299.76 201.541 299.831 202.154C299.867 202.46 299.896 202.711 299.917 202.885L299.941 203.087L299.948 203.14L299.949 203.153L299.95 203.157L299.95 203.158L299.95 203.158L300.446 203.098ZM301.082 203.666C300.843 203.901 300.633 204.112 300.47 204.277C300.308 204.113 300.101 203.905 299.862 203.671C299.292 203.113 298.54 202.402 297.825 201.81C297.329 201.399 296.533 200.912 295.655 200.376L295.606 200.346C294.723 199.807 293.729 199.199 292.763 198.519C290.764 197.112 289.026 195.485 288.592 193.665C288.135 191.747 288.296 188.99 288.75 186.595C288.976 185.405 289.27 184.329 289.582 183.517C289.739 183.11 289.895 182.782 290.043 182.542C290.084 182.474 290.123 182.417 290.158 182.37L290.182 182.388C290.403 182.547 290.713 182.77 291.065 183.023C291.769 183.529 292.646 184.158 293.335 184.646L293.336 184.647C293.686 184.893 294.197 185.18 294.765 185.49C294.914 185.571 295.068 185.655 295.225 185.74C295.68 185.986 296.167 186.25 296.662 186.532C298.008 187.298 299.327 188.151 300.092 189.03L300.47 189.464L300.847 189.029C301.61 188.15 302.929 187.297 304.275 186.531C304.771 186.248 305.26 185.984 305.716 185.737C305.872 185.652 306.025 185.569 306.173 185.488C306.742 185.178 307.253 184.891 307.603 184.645L307.603 184.645C308.292 184.159 309.169 183.529 309.874 183.022C310.226 182.768 310.536 182.544 310.757 182.384L310.78 182.368C310.815 182.415 310.854 182.473 310.896 182.541C311.044 182.782 311.2 183.111 311.356 183.518C311.668 184.332 311.962 185.408 312.188 186.599C312.642 188.993 312.802 191.749 312.345 193.667C311.911 195.487 310.173 197.114 308.175 198.521C307.207 199.203 306.21 199.811 305.325 200.351L305.283 200.377C304.405 200.913 303.609 201.4 303.112 201.81L303.112 201.811C302.4 202.401 301.651 203.109 301.082 203.666Z" fill="#DEC6A7" stroke="#DEC6A7"/>
<path d="M291.582 201.538C290.229 200.981 288.929 200.424 288.331 200.103C287.598 199.709 287.406 199.433 287.361 199.33C287.351 199.308 287.348 199.295 287.347 199.288C287.348 199.286 287.349 199.284 287.351 199.281C287.351 199.281 287.351 199.281 287.351 199.28C287.353 199.275 287.358 199.256 287.419 199.243C287.526 199.22 287.855 199.214 288.568 199.598C289.159 199.917 290.356 200.705 291.582 201.538ZM287.347 199.283C287.347 199.283 287.347 199.283 287.347 199.285C287.347 199.283 287.347 199.282 287.347 199.283Z" fill="#DEC6A7" stroke="#DEC6A7"/>
<path d="M309.475 201.709C310.741 200.942 311.976 200.22 312.586 199.935C313.325 199.588 313.654 199.611 313.759 199.64C313.82 199.656 313.818 199.674 313.818 199.675C313.818 199.675 313.818 199.675 313.818 199.675C313.819 199.676 313.819 199.678 313.82 199.679C313.825 199.685 313.83 199.691 313.808 199.735C313.759 199.834 313.555 200.1 312.801 200.451C312.184 200.737 310.855 201.225 309.475 201.709Z" fill="#DEC6A7" stroke="#DEC6A7"/>
</svg>
