<svg width="352" height="198" viewBox="0 0 352 198" fill="none" xmlns="http://www.w3.org/2000/svg">
<rect x="0.5" y="0.5" width="351" height="197" rx="4.5" fill="#0F404A" stroke="#DEC6A7"/>
<g opacity="0.15">
<path d="M16 19.0483C16 19.0483 25.5011 16.4938 33.0241 19.3601C40.5471 22.2263 42.0092 28.3181 42.0092 28.3181C42.0092 28.3181 36.3166 32.5687 30.4251 31.5939C24.5336 30.6191 18.04 26.3078 16 19.0483Z" fill="white"/>
<path d="M16 61.8397C16 61.8397 25.5011 59.2852 33.0241 62.1515C40.5471 65.0177 42.0092 71.1095 42.0092 71.1095C42.0092 71.1095 36.3166 75.3601 30.4251 74.3853C24.5336 73.4105 18.04 69.0992 16 61.8397Z" fill="white"/>
<path d="M16 104.631C16 104.631 25.5011 102.077 33.0241 104.943C40.5471 107.809 42.0092 113.901 42.0092 113.901C42.0092 113.901 36.3166 118.151 30.4251 117.177C24.5336 116.202 18.04 111.891 16 104.631Z" fill="white"/>
<path d="M16 147.423C16 147.423 25.5011 144.868 33.0241 147.734C40.5471 150.601 42.0092 156.692 42.0092 156.692C42.0092 156.692 36.3166 160.943 30.4251 159.968C24.5336 158.993 18.04 154.682 16 147.423Z" fill="white"/>
<path d="M124 19.0483C124 19.0483 133.501 16.4938 141.024 19.3601C148.547 22.2263 150.009 28.3181 150.009 28.3181C150.009 28.3181 144.317 32.5687 138.425 31.5939C132.534 30.6191 126.04 26.3078 124 19.0483Z" fill="white"/>
<path d="M124 61.8397C124 61.8397 133.501 59.2852 141.024 62.1515C148.547 65.0177 150.009 71.1095 150.009 71.1095C150.009 71.1095 144.317 75.3601 138.425 74.3853C132.534 73.4105 126.04 69.0992 124 61.8397Z" fill="white"/>
<path d="M124 104.631C124 104.631 133.501 102.077 141.024 104.943C148.547 107.809 150.009 113.901 150.009 113.901C150.009 113.901 144.317 118.151 138.425 117.177C132.534 116.202 126.04 111.891 124 104.631Z" fill="white"/>
<path d="M124 147.423C124 147.423 133.501 144.868 141.024 147.734C148.547 150.601 150.009 156.692 150.009 156.692C150.009 156.692 144.317 160.943 138.425 159.968C132.534 158.993 126.04 154.682 124 147.423Z" fill="white"/>
<path d="M70 19.0483C70 19.0483 79.5011 16.4938 87.0241 19.3601C94.5471 22.2263 96.0092 28.3181 96.0092 28.3181C96.0092 28.3181 90.3166 32.5687 84.4251 31.5939C78.5336 30.6191 72.04 26.3078 70 19.0483Z" fill="white"/>
<path d="M70 61.8397C70 61.8397 79.5011 59.2852 87.0241 62.1515C94.5471 65.0177 96.0092 71.1095 96.0092 71.1095C96.0092 71.1095 90.3166 75.3601 84.4251 74.3853C78.5336 73.4105 72.04 69.0992 70 61.8397Z" fill="white"/>
<path d="M70 104.631C70 104.631 79.5011 102.077 87.0241 104.943C94.5471 107.809 96.0092 113.901 96.0092 113.901C96.0092 113.901 90.3166 118.151 84.4251 117.177C78.5336 116.202 72.04 111.891 70 104.631Z" fill="white"/>
<path d="M70 147.423C70 147.423 79.5011 144.868 87.0241 147.734C94.5471 150.601 96.0092 156.692 96.0092 156.692C96.0092 156.692 90.3166 160.943 84.4251 159.968C78.5336 158.993 72.04 154.682 70 147.423Z" fill="white"/>
<path d="M178 19.0483C178 19.0483 187.501 16.4938 195.024 19.3601C202.547 22.2263 204.009 28.3181 204.009 28.3181C204.009 28.3181 198.317 32.5687 192.425 31.5939C186.534 30.6191 180.04 26.3078 178 19.0483Z" fill="white"/>
<path d="M178 61.8397C178 61.8397 187.501 59.2852 195.024 62.1515C202.547 65.0177 204.009 71.1095 204.009 71.1095C204.009 71.1095 198.317 75.3601 192.425 74.3853C186.534 73.4105 180.04 69.0992 178 61.8397Z" fill="white"/>
<path d="M178 104.631C178 104.631 187.501 102.077 195.024 104.943C202.547 107.809 204.009 113.901 204.009 113.901C204.009 113.901 198.317 118.151 192.425 117.177C186.534 116.202 180.04 111.891 178 104.631Z" fill="white"/>
<path d="M178 147.423C178 147.423 187.501 144.868 195.024 147.734C202.547 150.601 204.009 156.692 204.009 156.692C204.009 156.692 198.317 160.943 192.425 159.968C186.534 158.993 180.04 154.682 178 147.423Z" fill="white"/>
<path d="M286 19.0483C286 19.0483 295.501 16.4938 303.024 19.3601C310.547 22.2263 312.009 28.3181 312.009 28.3181C312.009 28.3181 306.317 32.5687 300.425 31.5939C294.534 30.6191 288.04 26.3078 286 19.0483Z" fill="white"/>
<path d="M286 61.8397C286 61.8397 295.501 59.2852 303.024 62.1515C310.547 65.0177 312.009 71.1095 312.009 71.1095C312.009 71.1095 306.317 75.3601 300.425 74.3853C294.534 73.4105 288.04 69.0992 286 61.8397Z" fill="white"/>
<path d="M286 104.631C286 104.631 295.501 102.077 303.024 104.943C310.547 107.809 312.009 113.901 312.009 113.901C312.009 113.901 306.317 118.151 300.425 117.177C294.534 116.202 288.04 111.891 286 104.631Z" fill="white"/>
<path d="M286 147.423C286 147.423 295.501 144.868 303.024 147.734C310.547 150.601 312.009 156.692 312.009 156.692C312.009 156.692 306.317 160.943 300.425 159.968C294.534 158.993 288.04 154.682 286 147.423Z" fill="white"/>
<path d="M232 19.0483C232 19.0483 241.501 16.4938 249.024 19.3601C256.547 22.2263 258.009 28.3181 258.009 28.3181C258.009 28.3181 252.317 32.5687 246.425 31.5939C240.534 30.6191 234.04 26.3078 232 19.0483Z" fill="white"/>
<path d="M232 61.8397C232 61.8397 241.501 59.2852 249.024 62.1515C256.547 65.0177 258.009 71.1095 258.009 71.1095C258.009 71.1095 252.317 75.3601 246.425 74.3853C240.534 73.4105 234.04 69.0992 232 61.8397Z" fill="white"/>
<path d="M232 104.631C232 104.631 241.501 102.077 249.024 104.943C256.547 107.809 258.009 113.901 258.009 113.901C258.009 113.901 252.317 118.151 246.425 117.177C240.534 116.202 234.04 111.891 232 104.631Z" fill="white"/>
<path d="M232 147.423C232 147.423 241.501 144.868 249.024 147.734C256.547 150.601 258.009 156.692 258.009 156.692C258.009 156.692 252.317 160.943 246.425 159.968C240.534 158.993 234.04 154.682 232 147.423Z" fill="white"/>
<path d="M69.0092 41.0465C69.0092 41.0465 59.5081 38.4946 51.9851 41.3608C44.4621 44.2271 43 50.3163 43 50.3163C43 50.3163 48.6926 54.5668 54.5841 53.5947C60.4756 52.6225 66.9692 48.3086 69.0092 41.0465Z" fill="white"/>
<path d="M69.0092 83.8379C69.0092 83.8379 59.5081 81.286 51.9851 84.1522C44.4621 87.0185 43 93.1077 43 93.1077C43 93.1077 48.6926 97.3582 54.5841 96.3861C60.4756 95.4139 66.9692 91.1 69.0092 83.8379Z" fill="white"/>
<path d="M69.0092 126.629C69.0092 126.629 59.5081 124.077 51.9851 126.944C44.4621 129.81 43 135.899 43 135.899C43 135.899 48.6926 140.15 54.5841 139.178C60.4756 138.205 66.9692 133.892 69.0092 126.629Z" fill="white"/>
<path d="M69.0092 169.421C69.0092 169.421 59.5081 166.869 51.9851 169.735C44.4621 172.601 43 178.691 43 178.691C43 178.691 48.6926 182.941 54.5841 181.969C60.4756 180.997 66.9692 176.683 69.0092 169.421Z" fill="white"/>
<path d="M177.009 41.0465C177.009 41.0465 167.508 38.4946 159.985 41.3608C152.462 44.2271 151 50.3163 151 50.3163C151 50.3163 156.693 54.5668 162.584 53.5947C168.476 52.6225 174.969 48.3086 177.009 41.0465Z" fill="white"/>
<path d="M177.009 83.8379C177.009 83.8379 167.508 81.286 159.985 84.1522C152.462 87.0185 151 93.1077 151 93.1077C151 93.1077 156.693 97.3582 162.584 96.3861C168.476 95.4139 174.969 91.1 177.009 83.8379Z" fill="white"/>
<path d="M177.009 126.629C177.009 126.629 167.508 124.077 159.985 126.944C152.462 129.81 151 135.899 151 135.899C151 135.899 156.693 140.15 162.584 139.178C168.476 138.205 174.969 133.892 177.009 126.629Z" fill="white"/>
<path d="M177.009 169.421C177.009 169.421 167.508 166.869 159.985 169.735C152.462 172.601 151 178.691 151 178.691C151 178.691 156.693 182.941 162.584 181.969C168.476 180.997 174.969 176.683 177.009 169.421Z" fill="white"/>
<path d="M123.009 41.0465C123.009 41.0465 113.508 38.4946 105.985 41.3608C98.4621 44.2271 97 50.3163 97 50.3163C97 50.3163 102.693 54.5668 108.584 53.5947C114.476 52.6225 120.969 48.3086 123.009 41.0465Z" fill="white"/>
<path d="M123.009 83.8379C123.009 83.8379 113.508 81.286 105.985 84.1522C98.4621 87.0185 97 93.1077 97 93.1077C97 93.1077 102.693 97.3582 108.584 96.3861C114.476 95.4139 120.969 91.1 123.009 83.8379Z" fill="white"/>
<path d="M123.009 126.629C123.009 126.629 113.508 124.077 105.985 126.944C98.4621 129.81 97 135.899 97 135.899C97 135.899 102.693 140.15 108.584 139.178C114.476 138.205 120.969 133.892 123.009 126.629Z" fill="white"/>
<path d="M123.009 169.421C123.009 169.421 113.508 166.869 105.985 169.735C98.4621 172.601 97 178.691 97 178.691C97 178.691 102.693 182.941 108.584 181.969C114.476 180.997 120.969 176.683 123.009 169.421Z" fill="white"/>
<path d="M231.009 41.0465C231.009 41.0465 221.508 38.4946 213.985 41.3608C206.462 44.2271 205 50.3163 205 50.3163C205 50.3163 210.693 54.5668 216.584 53.5947C222.476 52.6225 228.969 48.3086 231.009 41.0465Z" fill="white"/>
<path d="M231.009 83.8379C231.009 83.8379 221.508 81.286 213.985 84.1522C206.462 87.0185 205 93.1077 205 93.1077C205 93.1077 210.693 97.3582 216.584 96.3861C222.476 95.4139 228.969 91.1 231.009 83.8379Z" fill="white"/>
<path d="M231.009 126.629C231.009 126.629 221.508 124.077 213.985 126.944C206.462 129.81 205 135.899 205 135.899C205 135.899 210.693 140.15 216.584 139.178C222.476 138.205 228.969 133.892 231.009 126.629Z" fill="white"/>
<path d="M231.009 169.421C231.009 169.421 221.508 166.869 213.985 169.735C206.462 172.601 205 178.691 205 178.691C205 178.691 210.693 182.941 216.584 181.969C222.476 180.997 228.969 176.683 231.009 169.421Z" fill="white"/>
<path d="M285.009 41.0465C285.009 41.0465 275.508 38.4946 267.985 41.3608C260.462 44.2271 259 50.3163 259 50.3163C259 50.3163 264.693 54.5668 270.584 53.5947C276.476 52.6225 282.969 48.3086 285.009 41.0465Z" fill="white"/>
<path d="M285.009 83.8379C285.009 83.8379 275.508 81.286 267.985 84.1522C260.462 87.0185 259 93.1077 259 93.1077C259 93.1077 264.693 97.3582 270.584 96.3861C276.476 95.4139 282.969 91.1 285.009 83.8379Z" fill="white"/>
<path d="M285.009 126.629C285.009 126.629 275.508 124.077 267.985 126.944C260.462 129.81 259 135.899 259 135.899C259 135.899 264.693 140.15 270.584 139.178C276.476 138.205 282.969 133.892 285.009 126.629Z" fill="white"/>
<path d="M285.009 169.421C285.009 169.421 275.508 166.869 267.985 169.735C260.462 172.601 259 178.691 259 178.691C259 178.691 264.693 182.941 270.584 181.969C276.476 180.997 282.969 176.683 285.009 169.421Z" fill="white"/>
<path d="M339.009 41.0465C339.009 41.0465 329.508 38.4946 321.985 41.3608C314.462 44.2271 313 50.3163 313 50.3163C313 50.3163 318.693 54.5668 324.584 53.5947C330.476 52.6225 336.969 48.3086 339.009 41.0465Z" fill="white"/>
<path d="M339.009 83.8379C339.009 83.8379 329.508 81.286 321.985 84.1522C314.462 87.0185 313 93.1077 313 93.1077C313 93.1077 318.693 97.3582 324.584 96.3861C330.476 95.4139 336.969 91.1 339.009 83.8379Z" fill="white"/>
<path d="M339.009 126.629C339.009 126.629 329.508 124.077 321.985 126.944C314.462 129.81 313 135.899 313 135.899C313 135.899 318.693 140.15 324.584 139.178C330.476 138.205 336.969 133.892 339.009 126.629Z" fill="white"/>
<path d="M339.009 169.421C339.009 169.421 329.508 166.869 321.985 169.735C314.462 172.601 313 178.691 313 178.691C313 178.691 318.693 182.941 324.584 181.969C330.476 180.997 336.969 176.683 339.009 169.421Z" fill="white"/>
</g>
<path d="M193.5 98.6555C193.5 108.121 185.674 115.811 176 115.811C166.326 115.811 158.5 108.121 158.5 98.6555C158.5 89.1899 166.326 81.5 176 81.5C185.674 81.5 193.5 89.1899 193.5 98.6555Z" fill="#0F404A" stroke="#DEC6A7"/>
<path d="M175.654 101.339C175.654 101.339 172.405 100.466 169.832 101.447C167.259 102.427 166.759 104.509 166.759 104.509C166.759 104.509 168.706 105.963 170.721 105.631C172.736 105.298 174.957 103.823 175.654 101.339Z" fill="#DEC6A7"/>
<path d="M176.678 101.341C176.678 101.341 179.928 100.467 182.501 101.448C185.074 102.428 185.574 104.511 185.574 104.511C185.574 104.511 183.627 105.965 181.612 105.632C179.597 105.298 177.376 103.824 176.678 101.341Z" fill="#DEC6A7"/>
<path d="M176.15 101.678C176.15 101.678 175.782 104.569 175.782 105.382C175.782 106.195 176.08 106.195 176.142 106.195C176.203 106.195 176.518 106.195 176.518 105.39C176.518 104.585 176.15 101.678 176.15 101.678Z" fill="#DEC6A7"/>
<path d="M181.062 90.3249C181.062 90.3249 180.051 91.0414 179.399 91.4905C178.788 91.9115 176.934 92.6795 176.151 93.5614C175.366 92.6804 173.513 91.9124 172.902 91.4914C172.249 91.0396 171.239 90.3267 171.239 90.3267C170.615 90.6511 169.826 94.0447 170.283 95.9169C170.74 97.789 173.868 99.109 174.744 99.8192C175.408 100.356 176.151 101.117 176.151 101.117C176.156 101.111 176.895 100.355 177.556 99.8192C178.433 99.1099 181.561 97.7899 182.017 95.9178C182.474 94.0456 181.687 90.6547 181.062 90.3249ZM176.14 100.238C176.14 100.238 175.78 97.3462 175.78 96.5331C175.78 95.7199 176.078 95.7199 176.14 95.7199C176.201 95.7199 176.516 95.7199 176.516 96.5258C176.516 97.3318 176.14 100.238 176.14 100.238Z" fill="#DEC6A7"/>
<path d="M173.771 100.48C173.771 100.48 171.006 99.4352 170.277 99.053C169.549 98.6708 169.685 98.4133 169.715 98.3591C169.744 98.3049 169.899 98.0338 170.615 98.4106C171.331 98.7874 173.771 100.48 173.771 100.48Z" fill="#DEC6A7"/>
<path d="M178.536 100.464C178.536 100.464 181.352 99.5609 182.103 99.2202C182.854 98.8796 182.728 98.6113 182.702 98.5552C182.677 98.4992 182.541 98.2218 181.801 98.5607C181.061 98.8995 178.536 100.464 178.536 100.464Z" fill="#DEC6A7"/>
</svg>
