<svg width="480" height="320" viewBox="0 0 480 320" fill="none" xmlns="http://www.w3.org/2000/svg">
<rect x="0.5" y="0.5" width="479" height="319" rx="4.5" fill="#12505C" stroke="#CFB194"/>
<path opacity="0.15" d="M33.7922 44.2982C32.4487 41.2801 28.3289 35.7015 26.0002 32.2262C27.075 31.129 27.6124 30.8544 32.18 29.2082C36.7477 27.562 47.4952 26.1902 53.4063 27.562C59.3174 28.9339 64.1537 36.3417 64.9598 37.4392C65.7658 38.5366 71.4083 47.5907 72.483 49.2369C73.3428 50.5539 77.3194 54.7241 79.2002 56.6446C67.6466 57.3763 47.7638 60.4859 41.8527 56.6446C39.1659 54.4497 34.5982 45.9444 33.7922 44.2982Z" fill="#F7F7F7"/>
<path opacity="0.15" d="M33.7922 84.5768C32.4487 87.5949 28.3289 93.1735 26.0002 96.6488C27.075 97.746 27.6124 98.0206 32.18 99.6668C36.7477 101.313 47.4952 102.685 53.4063 101.313C59.3174 99.9411 64.1537 92.5333 64.9598 91.4358C65.7658 90.3384 71.4083 81.2843 72.483 79.6381C73.3428 78.3211 77.3194 74.1509 79.2002 72.2304C67.6466 71.4987 47.7638 68.3891 41.8527 72.2304C39.1659 74.4253 34.5982 82.9306 33.7922 84.5768Z" fill="#F7F7F7"/>
<path opacity="0.15" d="M33.7922 235.424C32.4487 232.406 28.3289 226.827 26.0002 223.352C27.075 222.254 27.6124 221.98 32.18 220.334C36.7477 218.688 47.4952 217.316 53.4063 218.688C59.3174 220.059 64.1537 227.467 64.9598 228.565C65.7658 229.662 71.4083 238.716 72.483 240.362C73.3428 241.679 77.3194 245.85 79.2002 247.77C67.6466 248.502 47.7638 251.611 41.8527 247.77C39.1659 245.575 34.5982 237.07 33.7922 235.424Z" fill="#F7F7F7"/>
<path opacity="0.15" d="M33.7922 275.702C32.4487 278.72 28.3289 284.299 26.0002 287.774C27.075 288.872 27.6124 289.146 32.18 290.792C36.7477 292.438 47.4952 293.81 53.4063 292.438C59.3174 291.067 64.1537 283.659 64.9598 282.561C65.7658 281.464 71.4083 272.41 72.483 270.764C73.3428 269.447 77.3194 265.276 79.2002 263.356C67.6466 262.624 47.7638 259.515 41.8527 263.356C39.1659 265.551 34.5982 274.056 33.7922 275.702Z" fill="#F7F7F7"/>
<path opacity="0.15" d="M445.778 181.125C447.121 184.143 451.241 189.721 453.57 193.197C452.495 194.294 451.958 194.568 447.39 196.215C442.822 197.861 432.075 199.233 426.164 197.861C420.253 196.489 415.416 189.081 414.61 187.984C413.804 186.886 408.162 177.832 407.087 176.186C406.227 174.869 402.251 170.699 400.37 168.778C411.923 168.047 431.806 164.937 437.717 168.778C440.404 170.973 444.972 179.478 445.778 181.125Z" fill="#F7F7F7"/>
<path opacity="0.15" d="M445.778 140.846C447.121 137.828 451.241 132.249 453.57 128.774C452.495 127.677 451.958 127.402 447.39 125.756C442.822 124.11 432.075 122.738 426.164 124.11C420.253 125.482 415.416 132.89 414.61 133.987C413.804 135.084 408.162 144.139 407.087 145.785C406.227 147.102 402.251 151.272 400.37 153.192C411.923 153.924 431.806 157.034 437.717 153.192C440.404 150.998 444.972 142.492 445.778 140.846Z" fill="#F7F7F7"/>
<path opacity="0.15" d="M108.666 44.2982C107.323 41.2801 103.203 35.7015 100.874 32.2262C101.949 31.129 102.486 30.8544 107.054 29.2082C111.622 27.562 122.369 26.1902 128.28 27.562C134.191 28.9339 139.028 36.3417 139.834 37.4392C140.64 38.5366 146.282 47.5907 147.357 49.2369C148.217 50.5539 152.193 54.7241 154.074 56.6446C142.521 57.3763 122.638 60.4859 116.727 56.6446C114.04 54.4497 109.472 45.9444 108.666 44.2982Z" fill="#F7F7F7"/>
<path opacity="0.15" d="M108.666 84.5768C107.323 87.5949 103.203 93.1735 100.874 96.6488C101.949 97.746 102.486 98.0206 107.054 99.6668C111.622 101.313 122.369 102.685 128.28 101.313C134.191 99.9411 139.028 92.5333 139.834 91.4358C140.64 90.3384 146.282 81.2843 147.357 79.6381C148.217 78.3211 152.193 74.1509 154.074 72.2304C142.521 71.4987 122.638 68.3891 116.727 72.2304C114.04 74.4253 109.472 82.9306 108.666 84.5768Z" fill="#F7F7F7"/>
<path opacity="0.15" d="M108.666 235.424C107.323 232.406 103.203 226.827 100.874 223.352C101.949 222.254 102.486 221.98 107.054 220.334C111.622 218.688 122.369 217.316 128.28 218.688C134.191 220.059 139.028 227.467 139.834 228.565C140.64 229.662 146.282 238.716 147.357 240.362C148.217 241.679 152.193 245.85 154.074 247.77C142.521 248.502 122.638 251.611 116.727 247.77C114.04 245.575 109.472 237.07 108.666 235.424Z" fill="#F7F7F7"/>
<path opacity="0.15" d="M108.666 275.702C107.323 278.72 103.203 284.299 100.874 287.774C101.949 288.872 102.486 289.146 107.054 290.792C111.622 292.438 122.369 293.81 128.28 292.438C134.191 291.067 139.028 283.659 139.834 282.561C140.64 281.464 146.282 272.41 147.357 270.764C148.217 269.447 152.193 265.276 154.074 263.356C142.521 262.624 122.638 259.515 116.727 263.356C114.04 265.551 109.472 274.056 108.666 275.702Z" fill="#F7F7F7"/>
<path opacity="0.15" d="M370.904 181.125C372.248 184.143 376.367 189.721 378.696 193.197C377.621 194.294 377.084 194.568 372.516 196.215C367.949 197.861 357.201 199.233 351.29 197.861C345.379 196.489 340.543 189.081 339.737 187.984C338.93 186.886 333.288 177.832 332.213 176.186C331.353 174.869 327.377 170.699 325.496 168.778C337.05 168.047 356.932 164.937 362.844 168.778C365.53 170.973 370.098 179.478 370.904 181.125Z" fill="#F7F7F7"/>
<path opacity="0.15" d="M370.904 140.846C372.248 137.828 376.367 132.249 378.696 128.774C377.621 127.677 377.084 127.402 372.516 125.756C367.949 124.11 357.201 122.738 351.29 124.11C345.379 125.482 340.543 132.89 339.737 133.987C338.93 135.084 333.288 144.139 332.213 145.785C331.353 147.102 327.377 151.272 325.496 153.192C337.05 153.924 356.932 157.034 362.844 153.192C365.53 150.998 370.098 142.492 370.904 140.846Z" fill="#F7F7F7"/>
<path opacity="0.15" d="M183.54 44.2977C182.197 41.2796 178.077 35.7011 175.748 32.2258C176.823 31.1285 177.36 30.8539 181.928 29.2077C186.496 27.5615 197.243 26.1897 203.154 27.5615C209.065 28.9334 213.902 36.3412 214.708 37.4387C215.514 38.5362 221.156 47.5902 222.231 49.2364C223.091 50.5534 227.067 54.7236 228.948 56.6441C217.394 57.3758 197.512 60.4854 191.601 56.6441C188.914 54.4492 184.346 45.9439 183.54 44.2977Z" fill="#F7F7F7"/>
<path opacity="0.15" d="M183.54 84.5764C182.197 87.5944 178.077 93.173 175.748 96.6483C176.823 97.7456 177.36 98.0201 181.928 99.6663C186.496 101.312 197.243 102.684 203.154 101.312C209.065 99.9407 213.902 92.5328 214.708 91.4353C215.514 90.3379 221.156 81.2838 222.231 79.6376C223.091 78.3207 227.067 74.1504 228.948 72.2299C217.394 71.4983 197.512 68.3886 191.601 72.2299C188.914 74.4248 184.346 82.9302 183.54 84.5764Z" fill="#F7F7F7"/>
<path opacity="0.15" d="M183.54 235.424C182.197 232.406 178.077 226.827 175.748 223.352C176.823 222.254 177.36 221.98 181.928 220.334C186.496 218.688 197.243 217.316 203.154 218.688C209.065 220.059 213.902 227.467 214.708 228.565C215.514 229.662 221.156 238.716 222.231 240.362C223.091 241.679 227.067 245.85 228.948 247.77C217.394 248.502 197.512 251.611 191.601 247.77C188.914 245.575 184.346 237.07 183.54 235.424Z" fill="#F7F7F7"/>
<path opacity="0.15" d="M183.54 275.702C182.197 278.72 178.077 284.299 175.748 287.774C176.823 288.872 177.36 289.146 181.928 290.792C186.496 292.438 197.243 293.81 203.154 292.438C209.065 291.067 213.902 283.659 214.708 282.561C215.514 281.464 221.156 272.41 222.231 270.764C223.091 269.447 227.067 265.276 228.948 263.356C217.394 262.624 197.512 259.515 191.601 263.356C188.914 265.551 184.346 274.056 183.54 275.702Z" fill="#F7F7F7"/>
<path opacity="0.15" d="M296.03 181.125C297.374 184.143 301.493 189.721 303.822 193.197C302.747 194.294 302.21 194.568 297.642 196.215C293.075 197.861 282.327 199.233 276.416 197.861C270.505 196.489 265.669 189.081 264.862 187.984C264.056 186.886 258.414 177.832 257.339 176.186C256.479 174.869 252.503 170.699 250.622 168.778C262.176 168.047 282.058 164.937 287.97 168.778C290.656 170.973 295.224 179.478 296.03 181.125Z" fill="#F7F7F7"/>
<path opacity="0.15" d="M296.03 140.846C297.374 137.828 301.493 132.249 303.822 128.774C302.747 127.677 302.21 127.402 297.642 125.756C293.075 124.11 282.327 122.738 276.416 124.11C270.505 125.482 265.669 132.89 264.862 133.987C264.056 135.084 258.414 144.139 257.339 145.785C256.479 147.102 252.503 151.272 250.622 153.192C262.176 153.924 282.058 157.034 287.97 153.192C290.656 150.998 295.224 142.492 296.03 140.846Z" fill="#F7F7F7"/>
<path opacity="0.15" d="M258.414 44.2977C257.07 41.2796 252.951 35.7011 250.622 32.2258C251.697 31.1285 252.234 30.8539 256.802 29.2077C261.369 27.5615 272.117 26.1897 278.028 27.5615C283.939 28.9334 288.775 36.3412 289.581 37.4387C290.388 38.5362 296.03 47.5902 297.105 49.2364C297.965 50.5534 301.941 54.7236 303.822 56.6441C292.268 57.3758 272.386 60.4854 266.474 56.6441C263.788 54.4492 259.22 45.9439 258.414 44.2977Z" fill="#F7F7F7"/>
<path opacity="0.15" d="M258.414 84.5764C257.07 87.5944 252.951 93.173 250.622 96.6483C251.697 97.7456 252.234 98.0201 256.802 99.6663C261.369 101.312 272.117 102.684 278.028 101.312C283.939 99.9407 288.775 92.5328 289.581 91.4353C290.388 90.3379 296.03 81.2838 297.105 79.6376C297.965 78.3207 301.941 74.1504 303.822 72.2299C292.268 71.4983 272.386 68.3886 266.474 72.2299C263.788 74.4248 259.22 82.9302 258.414 84.5764Z" fill="#F7F7F7"/>
<path opacity="0.15" d="M258.414 235.424C257.07 232.406 252.951 226.827 250.622 223.352C251.697 222.254 252.234 221.98 256.802 220.334C261.369 218.688 272.117 217.316 278.028 218.688C283.939 220.059 288.775 227.467 289.581 228.565C290.388 229.662 296.03 238.716 297.105 240.362C297.965 241.679 301.941 245.85 303.822 247.77C292.268 248.502 272.386 251.611 266.474 247.77C263.788 245.575 259.22 237.07 258.414 235.424Z" fill="#F7F7F7"/>
<path opacity="0.15" d="M258.414 275.702C257.07 278.72 252.951 284.299 250.622 287.774C251.697 288.872 252.234 289.146 256.802 290.792C261.369 292.438 272.117 293.81 278.028 292.438C283.939 291.067 288.775 283.659 289.581 282.561C290.388 281.464 296.03 272.41 297.105 270.764C297.965 269.447 301.941 265.276 303.822 263.356C292.268 262.624 272.386 259.515 266.474 263.356C263.788 265.551 259.22 274.056 258.414 275.702Z" fill="#F7F7F7"/>
<path opacity="0.15" d="M221.156 181.125C222.5 184.143 226.62 189.721 228.948 193.197C227.873 194.294 227.336 194.568 222.768 196.215C218.201 197.861 207.453 199.233 201.542 197.861C195.631 196.489 190.795 189.081 189.989 187.984C189.183 186.886 183.54 177.832 182.465 176.186C181.606 174.869 177.629 170.699 175.748 168.778C187.302 168.047 207.185 164.937 213.096 168.778C215.782 170.973 220.35 179.478 221.156 181.125Z" fill="#F7F7F7"/>
<path opacity="0.15" d="M221.156 140.846C222.5 137.828 226.62 132.249 228.948 128.774C227.873 127.677 227.336 127.402 222.768 125.756C218.201 124.11 207.453 122.738 201.542 124.11C195.631 125.482 190.795 132.89 189.989 133.987C189.183 135.084 183.54 144.139 182.465 145.785C181.606 147.102 177.629 151.272 175.748 153.192C187.302 153.924 207.185 157.034 213.096 153.192C215.782 150.998 220.35 142.492 221.156 140.846Z" fill="#F7F7F7"/>
<path opacity="0.15" d="M333.288 44.2977C331.945 41.2796 327.825 35.7011 325.496 32.2258C326.571 31.1285 327.108 30.8539 331.676 29.2077C336.244 27.5615 346.991 26.1897 352.902 27.5615C358.813 28.9334 363.65 36.3412 364.456 37.4387C365.262 38.5362 370.904 47.5902 371.979 49.2364C372.839 50.5534 376.815 54.7236 378.696 56.6441C367.143 57.3758 347.26 60.4854 341.349 56.6441C338.662 54.4492 334.094 45.9439 333.288 44.2977Z" fill="#F7F7F7"/>
<path opacity="0.15" d="M333.288 84.5764C331.945 87.5944 327.825 93.173 325.496 96.6483C326.571 97.7456 327.108 98.0201 331.676 99.6663C336.244 101.312 346.991 102.684 352.902 101.312C358.813 99.9407 363.65 92.5328 364.456 91.4353C365.262 90.3379 370.904 81.2838 371.979 79.6376C372.839 78.3207 376.815 74.1504 378.696 72.2299C367.143 71.4983 347.26 68.3886 341.349 72.2299C338.662 74.4248 334.094 82.9302 333.288 84.5764Z" fill="#F7F7F7"/>
<path opacity="0.15" d="M333.288 235.424C331.945 232.406 327.825 226.827 325.496 223.352C326.571 222.254 327.108 221.98 331.676 220.334C336.244 218.688 346.991 217.316 352.902 218.688C358.813 220.059 363.65 227.467 364.456 228.565C365.262 229.662 370.904 238.716 371.979 240.362C372.839 241.679 376.815 245.85 378.696 247.77C367.143 248.502 347.26 251.611 341.349 247.77C338.662 245.575 334.094 237.07 333.288 235.424Z" fill="#F7F7F7"/>
<path opacity="0.15" d="M333.288 275.702C331.945 278.72 327.825 284.299 325.496 287.774C326.571 288.872 327.108 289.146 331.676 290.792C336.244 292.438 346.991 293.81 352.902 292.438C358.813 291.067 363.65 283.659 364.456 282.561C365.262 281.464 370.904 272.41 371.979 270.764C372.839 269.447 376.815 265.276 378.696 263.356C367.143 262.624 347.26 259.515 341.349 263.356C338.662 265.551 334.094 274.056 333.288 275.702Z" fill="#F7F7F7"/>
<path opacity="0.15" d="M146.282 181.125C147.626 184.143 151.746 189.721 154.074 193.197C153 194.294 152.462 194.568 147.895 196.215C143.327 197.861 132.579 199.233 126.668 197.861C120.757 196.489 115.921 189.081 115.115 187.984C114.309 186.886 108.666 177.832 107.592 176.186C106.732 174.869 102.755 170.699 100.874 168.778C112.428 168.047 132.311 164.937 138.222 168.778C140.909 170.973 145.476 179.478 146.282 181.125Z" fill="#F7F7F7"/>
<path opacity="0.15" d="M146.282 140.846C147.626 137.828 151.746 132.249 154.074 128.774C153 127.677 152.462 127.402 147.895 125.756C143.327 124.11 132.579 122.738 126.668 124.11C120.757 125.482 115.921 132.89 115.115 133.987C114.309 135.084 108.666 144.139 107.592 145.785C106.732 147.102 102.755 151.272 100.874 153.192C112.428 153.924 132.311 157.034 138.222 153.192C140.909 150.998 145.476 142.492 146.282 140.846Z" fill="#F7F7F7"/>
<path opacity="0.15" d="M408.162 44.2982C406.818 41.2801 402.699 35.7015 400.37 32.2262C401.445 31.129 401.982 30.8544 406.55 29.2082C411.117 27.562 421.865 26.1902 427.776 27.562C433.687 28.9339 438.523 36.3417 439.33 37.4392C440.136 38.5366 445.778 47.5907 446.853 49.2369C447.713 50.5539 451.689 54.7241 453.57 56.6446C442.016 57.3763 422.134 60.4859 416.222 56.6446C413.536 54.4497 408.968 45.9444 408.162 44.2982Z" fill="#F7F7F7"/>
<path opacity="0.15" d="M408.162 84.5768C406.818 87.5949 402.699 93.1735 400.37 96.6488C401.445 97.746 401.982 98.0206 406.55 99.6668C411.117 101.313 421.865 102.685 427.776 101.313C433.687 99.9411 438.523 92.5333 439.33 91.4358C440.136 90.3384 445.778 81.2843 446.853 79.6381C447.713 78.3211 451.689 74.1509 453.57 72.2304C442.016 71.4987 422.134 68.3891 416.222 72.2304C413.536 74.4253 408.968 82.9306 408.162 84.5768Z" fill="#F7F7F7"/>
<path opacity="0.15" d="M408.162 235.424C406.819 232.406 402.699 226.827 400.37 223.352C401.445 222.254 401.982 221.98 406.55 220.334C411.118 218.688 421.865 217.316 427.776 218.688C433.687 220.059 438.524 227.467 439.33 228.565C440.136 229.662 445.778 238.716 446.853 240.362C447.713 241.679 451.689 245.85 453.57 247.77C442.017 248.502 422.134 251.611 416.223 247.77C413.536 245.575 408.968 237.07 408.162 235.424Z" fill="#F7F7F7"/>
<path opacity="0.15" d="M408.162 275.702C406.819 278.72 402.699 284.299 400.37 287.774C401.445 288.872 401.982 289.146 406.55 290.792C411.118 292.438 421.865 293.81 427.776 292.438C433.687 291.067 438.524 283.659 439.33 282.561C440.136 281.464 445.778 272.41 446.853 270.764C447.713 269.447 451.689 265.276 453.57 263.356C442.017 262.624 422.134 259.515 416.223 263.356C413.536 265.551 408.968 274.056 408.162 275.702Z" fill="#F7F7F7"/>
<path opacity="0.15" d="M71.408 181.125C72.7515 184.143 76.8713 189.721 79.2 193.197C78.1252 194.294 77.5878 194.568 73.0202 196.215C68.4525 197.861 57.705 199.233 51.7939 197.861C45.8828 196.489 41.0465 189.081 40.2404 187.984C39.4344 186.886 33.7919 177.832 32.7172 176.186C31.8574 174.869 27.8808 170.699 26 168.778C37.5536 168.047 57.4363 164.937 63.3475 168.778C66.0343 170.973 70.602 179.478 71.408 181.125Z" fill="#F7F7F7"/>
<path opacity="0.15" d="M71.408 140.846C72.7515 137.828 76.8713 132.249 79.2 128.774C78.1252 127.677 77.5878 127.402 73.0202 125.756C68.4525 124.11 57.705 122.738 51.7939 124.11C45.8828 125.482 41.0465 132.89 40.2404 133.987C39.4344 135.084 33.7919 144.139 32.7172 145.785C31.8574 147.102 27.8808 151.272 26 153.192C37.5536 153.924 57.4363 157.034 63.3475 153.192C66.0343 150.998 70.602 142.492 71.408 140.846Z" fill="#F7F7F7"/>
</svg>
