<svg width="480" height="320" viewBox="0 0 480 320" fill="none" xmlns="http://www.w3.org/2000/svg">
<rect x="0.5" y="0.5" width="479" height="319" rx="4.5" fill="#FCFCFC" stroke="#CFB194"/>
<path opacity="0.6" d="M79.7871 18C79.7871 18 74.7116 21.6664 71.4403 23.9643C68.372 26.1189 59.0655 30.0489 55.1344 34.5614C51.194 30.0535 41.8968 26.1235 38.8285 23.969C35.5525 21.6572 30.4817 18.0092 30.4817 18.0092C27.3488 19.6691 23.39 37.035 25.6832 46.6149C27.9763 56.1948 43.6778 62.9498 48.075 66.5839C51.4063 69.3302 55.1344 73.2232 55.1344 73.2232C55.1621 73.1955 58.8717 69.3256 62.1892 66.5839C66.591 62.9544 82.2879 56.1995 84.581 46.6195C86.8742 37.0396 82.92 19.6876 79.7871 18ZM55.079 68.7245C55.079 68.7245 53.275 53.9293 53.275 49.7681C53.275 45.607 54.7699 45.607 55.079 45.607C55.3882 45.607 56.9662 45.607 56.9662 49.7312C56.9662 53.8553 55.079 68.7245 55.079 68.7245Z" fill="#DEC6A7"/>
<path opacity="0.6" d="M79.7871 133.73C79.7871 133.73 74.7116 137.397 71.4403 139.695C68.372 141.849 59.0655 145.779 55.1344 150.292C51.194 145.784 41.8968 141.854 38.8285 139.699C35.5525 137.388 30.4817 133.74 30.4817 133.74C27.3488 135.4 23.39 152.765 25.6832 162.345C27.9763 171.925 43.6778 178.68 48.075 182.314C51.4063 185.061 55.1344 188.954 55.1344 188.954C55.1621 188.926 58.8717 185.056 62.1892 182.314C66.591 178.685 82.2879 171.93 84.581 162.35C86.8742 152.77 82.92 135.418 79.7871 133.73ZM55.079 184.455C55.079 184.455 53.275 169.66 53.275 165.499C53.275 161.337 54.7699 161.337 55.079 161.337C55.3882 161.337 56.9662 161.337 56.9662 165.462C56.9662 169.586 55.079 184.455 55.079 184.455Z" fill="#DEC6A7"/>
<path opacity="0.6" d="M401.208 298.801C401.208 298.801 406.284 295.134 409.555 292.836C412.623 290.682 421.93 286.752 425.861 282.239C429.801 286.747 439.099 290.677 442.167 292.832C445.443 295.144 450.514 298.792 450.514 298.792C453.647 297.132 457.605 279.766 455.312 270.186C453.019 260.606 437.318 253.851 432.92 250.217C429.589 247.471 425.861 243.578 425.861 243.578C425.833 243.605 422.124 247.475 418.806 250.217C414.404 253.846 398.708 260.601 396.414 270.181C394.121 279.761 398.075 297.113 401.208 298.801ZM425.916 248.076C425.916 248.076 427.72 262.871 427.72 267.033C427.72 271.194 426.225 271.194 425.916 271.194C425.607 271.194 424.029 271.194 424.029 267.07C424.029 262.945 425.916 248.076 425.916 248.076Z" fill="#DEC6A7"/>
<path opacity="0.6" d="M91.2853 120.299C91.2853 120.299 96.3607 116.633 99.6321 114.335C102.7 112.18 112.007 108.25 115.938 103.738C119.878 108.246 129.176 112.176 132.244 114.33C135.52 116.642 140.591 120.29 140.591 120.29C143.724 118.63 147.682 101.264 145.389 91.6844C143.096 82.1045 127.395 75.3495 122.997 71.7155C119.666 68.9691 115.938 65.0761 115.938 65.0761C115.91 65.1038 112.201 68.9737 108.883 71.7155C104.481 75.3449 88.7845 82.0999 86.4914 91.6798C84.1982 101.26 88.1524 118.612 91.2853 120.299ZM115.993 69.5748C115.993 69.5748 117.797 84.37 117.797 88.5312C117.797 92.6923 116.302 92.6923 115.993 92.6923C115.684 92.6923 114.106 92.6923 114.106 88.5682C114.106 84.444 115.993 69.5748 115.993 69.5748Z" fill="#DEC6A7"/>
<path opacity="0.6" d="M91.2853 239.954C91.2853 239.954 96.3607 236.288 99.6321 233.99C102.7 231.835 112.007 227.905 115.938 223.393C119.878 227.901 129.176 231.831 132.244 233.985C135.52 236.297 140.591 239.945 140.591 239.945C143.724 238.285 147.682 220.919 145.389 211.339C143.096 201.759 127.395 195.004 122.997 191.37C119.666 188.624 115.938 184.731 115.938 184.731C115.91 184.759 112.201 188.628 108.883 191.37C104.481 195 88.7845 201.755 86.4914 211.335C84.1982 220.914 88.1524 238.267 91.2853 239.954ZM115.993 189.23C115.993 189.23 117.797 204.025 117.797 208.186C117.797 212.347 116.302 212.347 115.993 212.347C115.684 212.347 114.106 212.347 114.106 208.223C114.106 204.099 115.993 189.23 115.993 189.23Z" fill="#DEC6A7"/>
<path opacity="0.6" d="M215.405 120.299C215.405 120.299 220.481 116.633 223.752 114.335C226.821 112.18 236.127 108.25 240.058 103.738C243.998 108.246 253.296 112.176 256.364 114.33C259.64 116.642 264.711 120.29 264.711 120.29C267.844 118.63 271.802 101.264 269.509 91.6844C267.216 82.1045 251.515 75.3495 247.118 71.7155C243.786 68.9691 240.058 65.0761 240.058 65.0761C240.03 65.1038 236.321 68.9737 233.003 71.7155C228.602 75.3449 212.905 82.0999 210.611 91.6798C208.318 101.26 212.273 118.612 215.405 120.299ZM240.113 69.5748C240.113 69.5748 241.918 84.37 241.918 88.5312C241.918 92.6923 240.423 92.6923 240.113 92.6923C239.804 92.6923 238.226 92.6923 238.226 88.5682C238.226 84.444 240.113 69.5748 240.113 69.5748Z" fill="#DEC6A7"/>
<path opacity="0.6" d="M215.405 239.954C215.405 239.954 220.481 236.288 223.752 233.99C226.821 231.835 236.127 227.905 240.058 223.393C243.998 227.901 253.296 231.831 256.364 233.985C259.64 236.297 264.711 239.945 264.711 239.945C267.844 238.285 271.802 220.919 269.509 211.339C267.216 201.759 251.515 195.004 247.118 191.37C243.786 188.624 240.058 184.731 240.058 184.731C240.03 184.759 236.321 188.628 233.003 191.37C228.602 195 212.905 201.755 210.611 211.335C208.318 220.914 212.273 238.267 215.405 239.954ZM240.113 189.23C240.113 189.23 241.918 204.025 241.918 208.186C241.918 212.347 240.423 212.347 240.113 212.347C239.804 212.347 238.226 212.347 238.226 208.223C238.226 204.099 240.113 189.23 240.113 189.23Z" fill="#DEC6A7"/>
<path opacity="0.6" d="M338.982 120.299C338.982 120.299 344.058 116.633 347.329 114.335C350.398 112.18 359.704 108.25 363.635 103.738C367.575 108.246 376.873 112.176 379.941 114.33C383.217 116.642 388.288 120.29 388.288 120.29C391.421 118.63 395.38 101.264 393.086 91.6844C390.793 82.1045 375.092 75.3495 370.695 71.7155C367.363 68.9691 363.635 65.0761 363.635 65.0761C363.607 65.1038 359.898 68.9737 356.58 71.7155C352.179 75.3449 336.482 82.0999 334.189 91.6798C331.895 101.26 335.85 118.612 338.982 120.299ZM363.691 69.5748C363.691 69.5748 365.495 84.37 365.495 88.5312C365.495 92.6923 364 92.6923 363.691 92.6923C363.381 92.6923 361.803 92.6923 361.803 88.5682C361.803 84.444 363.691 69.5748 363.691 69.5748Z" fill="#DEC6A7"/>
<path opacity="0.6" d="M338.982 239.954C338.982 239.954 344.058 236.288 347.329 233.99C350.398 231.835 359.704 227.905 363.635 223.393C367.575 227.901 376.873 231.831 379.941 233.985C383.217 236.297 388.288 239.945 388.288 239.945C391.421 238.285 395.38 220.919 393.086 211.339C390.793 201.759 375.092 195.004 370.695 191.37C367.363 188.624 363.635 184.731 363.635 184.731C363.607 184.759 359.898 188.628 356.58 191.37C352.179 195 336.482 201.755 334.189 211.335C331.895 220.914 335.85 238.267 338.982 239.954ZM363.691 189.23C363.691 189.23 365.495 204.025 365.495 208.186C365.495 212.347 364 212.347 363.691 212.347C363.381 212.347 361.803 212.347 361.803 208.223C361.803 204.099 363.691 189.23 363.691 189.23Z" fill="#DEC6A7"/>
<path opacity="0.6" d="M203.364 18C203.364 18 198.289 21.6664 195.017 23.9643C191.949 26.1189 182.643 30.0489 178.711 34.5614C174.771 30.0535 165.474 26.1235 162.406 23.969C159.13 21.6572 154.059 18.0092 154.059 18.0092C150.926 19.6691 146.967 37.035 149.26 46.6149C151.553 56.1948 167.255 62.9498 171.652 66.5839C174.983 69.3302 178.711 73.2232 178.711 73.2232C178.739 73.1955 182.449 69.3256 185.766 66.5839C190.168 62.9544 205.865 56.1995 208.158 46.6195C210.451 37.0396 206.497 19.6876 203.364 18ZM178.656 68.7245C178.656 68.7245 176.852 53.9293 176.852 49.7681C176.852 45.607 178.347 45.607 178.656 45.607C178.965 45.607 180.543 45.607 180.543 49.7312C180.543 53.8553 178.656 68.7245 178.656 68.7245Z" fill="#DEC6A7"/>
<path opacity="0.6" d="M203.364 133.73C203.364 133.73 198.289 137.397 195.017 139.695C191.949 141.849 182.643 145.779 178.711 150.292C174.771 145.784 165.474 141.854 162.406 139.699C159.13 137.388 154.059 133.74 154.059 133.74C150.926 135.4 146.967 152.765 149.26 162.345C151.553 171.925 167.255 178.68 171.652 182.314C174.983 185.061 178.711 188.954 178.711 188.954C178.739 188.926 182.449 185.056 185.766 182.314C190.168 178.685 205.865 171.93 208.158 162.35C210.451 152.77 206.497 135.418 203.364 133.73ZM178.656 184.455C178.656 184.455 176.852 169.66 176.852 165.499C176.852 161.337 178.347 161.337 178.656 161.337C178.965 161.337 180.543 161.337 180.543 165.462C180.543 169.586 178.656 184.455 178.656 184.455Z" fill="#DEC6A7"/>
<path opacity="0.6" d="M277.632 298.801C277.632 298.801 282.707 295.134 285.978 292.836C289.047 290.682 298.353 286.752 302.284 282.239C306.225 286.747 315.522 290.677 318.59 292.832C321.866 295.144 326.937 298.792 326.937 298.792C330.07 297.132 334.029 279.766 331.736 270.186C329.442 260.606 313.741 253.851 309.344 250.217C306.012 247.471 302.284 243.578 302.284 243.578C302.257 243.605 298.547 247.475 295.229 250.217C290.828 253.846 275.131 260.601 272.838 270.181C270.545 279.761 274.499 297.113 277.632 298.801ZM302.34 248.076C302.34 248.076 304.144 262.871 304.144 267.033C304.144 271.194 302.649 271.194 302.34 271.194C302.031 271.194 300.453 271.194 300.453 267.07C300.453 262.945 302.34 248.076 302.34 248.076Z" fill="#DEC6A7"/>
<path opacity="0.6" d="M326.941 18C326.941 18 321.866 21.6664 318.594 23.9643C315.526 26.1189 306.22 30.0489 302.288 34.5614C298.348 30.0535 289.051 26.1235 285.983 23.969C282.707 21.6572 277.636 18.0092 277.636 18.0092C274.503 19.6691 270.544 37.035 272.837 46.6149C275.13 56.1948 290.832 62.9498 295.229 66.5839C298.56 69.3302 302.288 73.2232 302.288 73.2232C302.316 73.1955 306.026 69.3256 309.343 66.5839C313.745 62.9544 329.442 56.1995 331.735 46.6195C334.028 37.0396 330.074 19.6876 326.941 18ZM302.233 68.7245C302.233 68.7245 300.429 53.9293 300.429 49.7681C300.429 45.607 301.924 45.607 302.233 45.607C302.542 45.607 304.12 45.607 304.12 49.7312C304.12 53.8553 302.233 68.7245 302.233 68.7245Z" fill="#DEC6A7"/>
<path opacity="0.6" d="M326.941 133.73C326.941 133.73 321.866 137.397 318.594 139.695C315.526 141.849 306.22 145.779 302.288 150.292C298.348 145.784 289.051 141.854 285.983 139.699C282.707 137.388 277.636 133.74 277.636 133.74C274.503 135.4 270.544 152.765 272.837 162.345C275.13 171.925 290.832 178.68 295.229 182.314C298.56 185.061 302.288 188.954 302.288 188.954C302.316 188.926 306.026 185.056 309.343 182.314C313.745 178.685 329.442 171.93 331.735 162.35C334.028 152.77 330.074 135.418 326.941 133.73ZM302.233 184.455C302.233 184.455 300.429 169.66 300.429 165.499C300.429 161.337 301.924 161.337 302.233 161.337C302.542 161.337 304.12 161.337 304.12 165.462C304.12 169.586 302.233 184.455 302.233 184.455Z" fill="#DEC6A7"/>
<path opacity="0.6" d="M154.055 298.801C154.055 298.801 159.13 295.134 162.401 292.836C165.47 290.682 174.776 286.752 178.707 282.239C182.648 286.747 191.945 290.677 195.013 292.832C198.289 295.144 203.36 298.792 203.36 298.792C206.493 297.132 210.452 279.766 208.159 270.186C205.865 260.606 190.164 253.851 185.767 250.217C182.435 247.471 178.707 243.578 178.707 243.578C178.68 243.605 174.97 247.475 171.652 250.217C167.251 253.846 151.554 260.601 149.261 270.181C146.967 279.761 150.922 297.113 154.055 298.801ZM178.763 248.076C178.763 248.076 180.567 262.871 180.567 267.033C180.567 271.194 179.072 271.194 178.763 271.194C178.454 271.194 176.876 271.194 176.876 267.07C176.876 262.945 178.763 248.076 178.763 248.076Z" fill="#DEC6A7"/>
<path opacity="0.6" d="M450.518 18C450.518 18 445.443 21.6664 442.171 23.9643C439.103 26.1189 429.797 30.0489 425.865 34.5614C421.925 30.0535 412.628 26.1235 409.56 23.969C406.284 21.6572 401.213 18.0092 401.213 18.0092C398.08 19.6691 394.121 37.035 396.414 46.6149C398.707 56.1948 414.409 62.9498 418.806 66.5839C422.137 69.3302 425.865 73.2232 425.865 73.2232C425.893 73.1955 429.603 69.3256 432.92 66.5839C437.322 62.9544 453.019 56.1995 455.312 46.6195C457.605 37.0396 453.651 19.6876 450.518 18ZM425.81 68.7245C425.81 68.7245 424.006 53.9293 424.006 49.7681C424.006 45.607 425.501 45.607 425.81 45.607C426.119 45.607 427.697 45.607 427.697 49.7312C427.697 53.8553 425.81 68.7245 425.81 68.7245Z" fill="#DEC6A7"/>
<path opacity="0.6" d="M450.518 133.73C450.518 133.73 445.443 137.397 442.171 139.695C439.103 141.849 429.797 145.779 425.865 150.292C421.925 145.784 412.628 141.854 409.56 139.699C406.284 137.388 401.213 133.74 401.213 133.74C398.08 135.4 394.121 152.765 396.414 162.345C398.707 171.925 414.409 178.68 418.806 182.314C422.137 185.061 425.865 188.954 425.865 188.954C425.893 188.926 429.603 185.056 432.92 182.314C437.322 178.685 453.019 171.93 455.312 162.35C457.605 152.77 453.651 135.418 450.518 133.73ZM425.81 184.455C425.81 184.455 424.006 169.66 424.006 165.499C424.006 161.337 425.501 161.337 425.81 161.337C426.119 161.337 427.697 161.337 427.697 165.462C427.697 169.586 425.81 184.455 425.81 184.455Z" fill="#DEC6A7"/>
<path opacity="0.6" d="M30.4776 298.801C30.4776 298.801 35.553 295.134 38.8243 292.836C41.8927 290.682 51.1991 286.752 55.1302 282.239C59.0706 286.747 68.3678 290.677 71.4362 292.832C74.7121 295.144 79.7829 298.792 79.7829 298.792C82.9158 297.132 86.8746 279.766 84.5815 270.186C82.2883 260.606 66.5868 253.851 62.1897 250.217C58.8584 247.471 55.1303 243.578 55.1303 243.578C55.1026 243.605 51.3929 247.475 48.0754 250.217C43.6737 253.846 27.9768 260.601 25.6836 270.181C23.3905 279.761 27.3447 297.113 30.4776 298.801ZM55.1856 248.076C55.1856 248.076 56.9897 262.871 56.9897 267.033C56.9897 271.194 55.4948 271.194 55.1856 271.194C54.8765 271.194 53.2985 271.194 53.2985 267.07C53.2985 262.945 55.1856 248.076 55.1856 248.076Z" fill="#DEC6A7"/>
</svg>
