<svg width="600" height="400" viewBox="0 0 600 400" fill="none" xmlns="http://www.w3.org/2000/svg">
<rect x="0.5" y="0.5" width="599" height="399" rx="4.5" fill="#003F48" stroke="#CFB194"/>
<path opacity="0.15" d="M42.2402 55.371C40.561 51.5985 35.4111 44.6252 32.5004 40.2811C33.8438 38.9095 34.5155 38.5663 40.2251 36.5086C45.9347 34.4508 59.369 32.736 66.7579 34.4508C74.1468 36.1656 80.1922 45.4254 81.1998 46.7973C82.2074 48.1691 89.2604 59.4867 90.6038 61.5444C91.6786 63.1906 96.6493 68.4034 99.0003 70.8041C84.5584 71.7186 59.7049 75.6057 52.316 70.8041C48.9574 68.0604 43.2478 57.4287 42.2402 55.371Z" fill="#F7F7F7"/>
<path opacity="0.15" d="M42.2402 105.72C40.561 109.492 35.4111 116.466 32.5004 120.81C33.8438 122.181 34.5155 122.525 40.2251 124.582C45.9347 126.64 59.369 128.355 66.7579 126.64C74.1468 124.925 80.1922 115.665 81.1998 114.294C82.2074 112.922 89.2604 101.604 90.6038 99.5464C91.6786 97.9002 96.6493 92.6874 99.0003 90.2868C84.5584 89.3722 59.7049 85.4852 52.316 90.2868C48.9574 93.0304 43.2478 103.662 42.2402 105.72Z" fill="#F7F7F7"/>
<path opacity="0.15" d="M42.2402 294.28C40.561 290.508 35.4111 283.534 32.5004 279.19C33.8438 277.819 34.5155 277.475 40.2251 275.418C45.9347 273.36 59.369 271.645 66.7579 273.36C74.1468 275.075 80.1922 284.335 81.1998 285.706C82.2074 287.078 89.2604 298.396 90.6038 300.454C91.6786 302.1 96.6493 307.313 99.0003 309.713C84.5584 310.628 59.7049 314.515 52.316 309.713C48.9574 306.97 43.2478 296.338 42.2402 294.28Z" fill="#F7F7F7"/>
<path opacity="0.15" d="M42.2402 344.629C40.561 348.402 35.4111 355.375 32.5004 359.719C33.8438 361.091 34.5155 361.434 40.2251 363.491C45.9347 365.549 59.369 367.264 66.7579 365.549C74.1468 363.834 80.1922 354.575 81.1998 353.203C82.2074 351.831 89.2604 340.513 90.6038 338.456C91.6786 336.809 96.6493 331.597 99.0003 329.196C84.5584 328.281 59.7049 324.394 52.316 329.196C48.9574 331.94 43.2478 342.571 42.2402 344.629Z" fill="#F7F7F7"/>
<path opacity="0.15" d="M557.222 226.406C558.902 230.179 564.052 237.152 566.962 241.496C565.619 242.868 564.947 243.211 559.238 245.269C553.528 247.327 540.094 249.041 532.705 247.327C525.316 245.612 519.27 236.352 518.263 234.98C517.255 233.608 510.202 222.291 508.859 220.233C507.784 218.587 502.813 213.374 500.462 210.973C514.904 210.059 539.758 206.172 547.147 210.973C550.505 213.717 556.215 224.349 557.222 226.406Z" fill="#F7F7F7"/>
<path opacity="0.15" d="M557.222 176.058C558.902 172.285 564.052 165.312 566.962 160.968C565.619 159.596 564.947 159.253 559.238 157.195C553.528 155.137 540.094 153.423 532.705 155.137C525.316 156.852 519.27 166.112 518.263 167.484C517.255 168.856 510.202 180.173 508.859 182.231C507.784 183.877 502.813 189.09 500.462 191.491C514.904 192.405 539.758 196.292 547.147 191.491C550.505 188.747 556.215 178.115 557.222 176.058Z" fill="#F7F7F7"/>
<path opacity="0.15" d="M135.833 55.371C134.153 51.5985 129.004 44.6252 126.093 40.2811C127.436 38.9095 128.108 38.5663 133.818 36.5086C139.527 34.4508 152.961 32.736 160.35 34.4508C167.739 36.1656 173.785 45.4254 174.792 46.7973C175.8 48.1691 182.853 59.4867 184.196 61.5444C185.271 63.1906 190.242 68.4034 192.593 70.8041C178.151 71.7186 153.297 75.6057 145.908 70.8041C142.55 68.0604 136.84 57.4287 135.833 55.371Z" fill="#F7F7F7"/>
<path opacity="0.15" d="M135.833 105.72C134.153 109.492 129.004 116.466 126.093 120.81C127.436 122.181 128.108 122.525 133.818 124.582C139.527 126.64 152.961 128.355 160.35 126.64C167.739 124.925 173.785 115.665 174.792 114.294C175.8 112.922 182.853 101.604 184.196 99.5464C185.271 97.9002 190.242 92.6874 192.593 90.2868C178.151 89.3722 153.297 85.4852 145.908 90.2868C142.55 93.0304 136.84 103.662 135.833 105.72Z" fill="#F7F7F7"/>
<path opacity="0.15" d="M135.833 294.28C134.153 290.508 129.004 283.534 126.093 279.19C127.436 277.819 128.108 277.475 133.818 275.418C139.527 273.36 152.961 271.645 160.35 273.36C167.739 275.075 173.785 284.335 174.792 285.706C175.8 287.078 182.853 298.396 184.196 300.454C185.271 302.1 190.242 307.313 192.593 309.713C178.151 310.628 153.297 314.515 145.908 309.713C142.55 306.97 136.84 296.338 135.833 294.28Z" fill="#F7F7F7"/>
<path opacity="0.15" d="M135.833 344.629C134.153 348.402 129.004 355.375 126.093 359.719C127.436 361.091 128.108 361.434 133.818 363.491C139.527 365.549 152.961 367.264 160.35 365.549C167.739 363.834 173.785 354.575 174.792 353.203C175.8 351.831 182.853 340.513 184.196 338.456C185.271 336.809 190.242 331.597 192.593 329.196C178.151 328.281 153.297 324.394 145.908 329.196C142.55 331.94 136.84 342.571 135.833 344.629Z" fill="#F7F7F7"/>
<path opacity="0.15" d="M463.63 226.406C465.309 230.179 470.459 237.152 473.37 241.496C472.027 242.868 471.355 243.211 465.645 245.269C459.936 247.327 446.501 249.041 439.112 247.327C431.724 245.612 425.678 236.352 424.671 234.98C423.663 233.608 416.61 222.291 415.267 220.233C414.192 218.587 409.221 213.374 406.87 210.973C421.312 210.059 446.165 206.172 453.554 210.973C456.913 213.717 462.623 224.349 463.63 226.406Z" fill="#F7F7F7"/>
<path opacity="0.15" d="M463.63 176.058C465.309 172.285 470.459 165.312 473.37 160.968C472.027 159.596 471.355 159.253 465.645 157.195C459.936 155.137 446.501 153.423 439.112 155.137C431.724 156.852 425.678 166.112 424.671 167.484C423.663 168.856 416.61 180.173 415.267 182.231C414.192 183.877 409.221 189.09 406.87 191.491C421.312 192.405 446.165 196.292 453.554 191.491C456.913 188.747 462.623 178.115 463.63 176.058Z" fill="#F7F7F7"/>
<path opacity="0.15" d="M229.425 55.371C227.746 51.5985 222.596 44.6252 219.685 40.2811C221.028 38.9095 221.7 38.5663 227.41 36.5086C233.119 34.4508 246.554 32.736 253.943 34.4508C261.331 36.1656 267.377 45.4254 268.384 46.7973C269.392 48.1691 276.445 59.4867 277.789 61.5444C278.863 63.1906 283.834 68.4034 286.185 70.8041C271.743 71.7186 246.89 75.6057 239.501 70.8041C236.142 68.0604 230.433 57.4287 229.425 55.371Z" fill="#F7F7F7"/>
<path opacity="0.15" d="M229.425 105.72C227.746 109.492 222.596 116.466 219.685 120.81C221.028 122.181 221.7 122.525 227.41 124.582C233.119 126.64 246.554 128.355 253.943 126.64C261.331 124.925 267.377 115.665 268.384 114.294C269.392 112.922 276.445 101.604 277.789 99.5464C278.863 97.9002 283.834 92.6874 286.185 90.2868C271.743 89.3722 246.89 85.4852 239.501 90.2868C236.142 93.0304 230.433 103.662 229.425 105.72Z" fill="#F7F7F7"/>
<path opacity="0.15" d="M229.425 294.28C227.746 290.508 222.596 283.534 219.685 279.19C221.028 277.819 221.7 277.475 227.41 275.418C233.119 273.36 246.554 271.645 253.943 273.36C261.331 275.075 267.377 284.335 268.384 285.706C269.392 287.078 276.445 298.396 277.789 300.454C278.863 302.1 283.834 307.313 286.185 309.713C271.743 310.628 246.89 314.515 239.501 309.713C236.142 306.97 230.433 296.338 229.425 294.28Z" fill="#F7F7F7"/>
<path opacity="0.15" d="M229.425 344.629C227.746 348.402 222.596 355.375 219.685 359.719C221.028 361.091 221.7 361.434 227.41 363.491C233.119 365.549 246.554 367.264 253.943 365.549C261.331 363.834 267.377 354.575 268.384 353.203C269.392 351.831 276.445 340.513 277.789 338.456C278.863 336.809 283.834 331.597 286.185 329.196C271.743 328.281 246.89 324.394 239.501 329.196C236.142 331.94 230.433 342.571 229.425 344.629Z" fill="#F7F7F7"/>
<path opacity="0.15" d="M370.038 226.406C371.717 230.179 376.867 237.152 379.777 241.496C378.434 242.868 377.762 243.211 372.053 245.269C366.343 247.327 352.909 249.041 345.52 247.327C338.131 245.612 332.086 236.352 331.078 234.98C330.07 233.608 323.017 222.291 321.674 220.233C320.599 218.587 315.629 213.374 313.278 210.973C327.719 210.059 352.573 206.172 359.962 210.973C363.32 213.717 369.03 224.349 370.038 226.406Z" fill="#F7F7F7"/>
<path opacity="0.15" d="M370.038 176.058C371.717 172.285 376.867 165.312 379.777 160.968C378.434 159.596 377.762 159.253 372.053 157.195C366.343 155.137 352.909 153.423 345.52 155.137C338.131 156.852 332.086 166.112 331.078 167.484C330.07 168.856 323.017 180.173 321.674 182.231C320.599 183.877 315.629 189.09 313.278 191.491C327.719 192.405 352.573 196.292 359.962 191.491C363.32 188.747 369.03 178.115 370.038 176.058Z" fill="#F7F7F7"/>
<path opacity="0.15" d="M323.017 55.371C321.338 51.5985 316.188 44.6252 313.277 40.2811C314.621 38.9095 315.292 38.5663 321.002 36.5086C326.712 34.4508 340.146 32.736 347.535 34.4508C354.924 36.1656 360.969 45.4254 361.977 46.7973C362.984 48.1691 370.037 59.4867 371.381 61.5444C372.456 63.1906 377.426 68.4034 379.777 70.8041C365.335 71.7186 340.482 75.6057 333.093 70.8041C329.734 68.0604 324.025 57.4287 323.017 55.371Z" fill="#F7F7F7"/>
<path opacity="0.15" d="M323.017 105.72C321.338 109.492 316.188 116.466 313.277 120.81C314.621 122.181 315.292 122.525 321.002 124.582C326.712 126.64 340.146 128.355 347.535 126.64C354.924 124.925 360.969 115.665 361.977 114.294C362.984 112.922 370.037 101.604 371.381 99.5464C372.456 97.9002 377.426 92.6874 379.777 90.2868C365.335 89.3722 340.482 85.4852 333.093 90.2868C329.734 93.0304 324.025 103.662 323.017 105.72Z" fill="#F7F7F7"/>
<path opacity="0.15" d="M323.017 294.28C321.338 290.508 316.188 283.534 313.277 279.19C314.621 277.819 315.292 277.475 321.002 275.418C326.712 273.36 340.146 271.645 347.535 273.36C354.924 275.075 360.969 284.335 361.977 285.706C362.984 287.078 370.037 298.396 371.381 300.454C372.456 302.1 377.426 307.313 379.777 309.713C365.335 310.628 340.482 314.515 333.093 309.713C329.734 306.97 324.025 296.338 323.017 294.28Z" fill="#F7F7F7"/>
<path opacity="0.15" d="M323.017 344.629C321.338 348.402 316.188 355.375 313.277 359.719C314.621 361.091 315.292 361.434 321.002 363.491C326.712 365.549 340.146 367.264 347.535 365.549C354.924 363.834 360.969 354.575 361.977 353.203C362.984 351.831 370.037 340.513 371.381 338.456C372.456 336.809 377.426 331.597 379.777 329.196C365.335 328.281 340.482 324.394 333.093 329.196C329.734 331.94 324.025 342.571 323.017 344.629Z" fill="#F7F7F7"/>
<path opacity="0.15" d="M276.445 226.406C278.124 230.179 283.274 237.152 286.185 241.496C284.842 242.868 284.17 243.211 278.46 245.269C272.751 247.327 259.316 249.041 251.928 247.327C244.539 245.612 238.493 236.352 237.486 234.98C236.478 233.608 229.425 222.291 228.082 220.233C227.007 218.587 222.036 213.374 219.685 210.973C234.127 210.059 258.981 206.172 266.369 210.973C269.728 213.717 275.438 224.349 276.445 226.406Z" fill="#F7F7F7"/>
<path opacity="0.15" d="M276.445 176.058C278.124 172.285 283.274 165.312 286.185 160.968C284.842 159.596 284.17 159.253 278.46 157.195C272.751 155.137 259.316 153.423 251.928 155.137C244.539 156.852 238.493 166.112 237.486 167.484C236.478 168.856 229.425 180.173 228.082 182.231C227.007 183.877 222.036 189.09 219.685 191.491C234.127 192.405 258.981 196.292 266.369 191.491C269.728 188.747 275.438 178.115 276.445 176.058Z" fill="#F7F7F7"/>
<path opacity="0.15" d="M416.61 55.371C414.931 51.5985 409.781 44.6252 406.87 40.2811C408.214 38.9095 408.886 38.5663 414.595 36.5086C420.305 34.4508 433.739 32.736 441.128 34.4508C448.517 36.1656 454.562 45.4254 455.57 46.7973C456.577 48.1691 463.63 59.4867 464.974 61.5444C466.049 63.1906 471.019 68.4034 473.37 70.8041C458.928 71.7186 434.075 75.6057 426.686 70.8041C423.327 68.0604 417.618 57.4287 416.61 55.371Z" fill="#F7F7F7"/>
<path opacity="0.15" d="M416.61 105.72C414.931 109.492 409.781 116.466 406.87 120.81C408.214 122.181 408.886 122.525 414.595 124.582C420.305 126.64 433.739 128.355 441.128 126.64C448.517 124.925 454.562 115.665 455.57 114.294C456.577 112.922 463.63 101.604 464.974 99.5464C466.049 97.9002 471.019 92.6874 473.37 90.2868C458.928 89.3722 434.075 85.4852 426.686 90.2868C423.327 93.0304 417.618 103.662 416.61 105.72Z" fill="#F7F7F7"/>
<path opacity="0.15" d="M416.61 294.28C414.931 290.508 409.781 283.534 406.87 279.19C408.214 277.819 408.886 277.475 414.595 275.418C420.305 273.36 433.739 271.645 441.128 273.36C448.517 275.075 454.562 284.335 455.57 285.706C456.577 287.078 463.63 298.396 464.974 300.454C466.049 302.1 471.019 307.313 473.37 309.713C458.928 310.628 434.075 314.515 426.686 309.713C423.327 306.97 417.618 296.338 416.61 294.28Z" fill="#F7F7F7"/>
<path opacity="0.15" d="M416.61 344.629C414.931 348.402 409.781 355.375 406.87 359.719C408.214 361.091 408.886 361.434 414.595 363.491C420.305 365.549 433.739 367.264 441.128 365.549C448.517 363.834 454.562 354.575 455.57 353.203C456.577 351.831 463.63 340.513 464.974 338.456C466.049 336.809 471.019 331.597 473.37 329.196C458.928 328.281 434.075 324.394 426.686 329.196C423.327 331.94 417.618 342.571 416.61 344.629Z" fill="#F7F7F7"/>
<path opacity="0.15" d="M182.853 226.406C184.532 230.179 189.682 237.152 192.593 241.496C191.25 242.868 190.578 243.211 184.868 245.269C179.159 247.327 165.724 249.041 158.335 247.327C150.947 245.612 144.901 236.352 143.894 234.98C142.886 233.608 135.833 222.291 134.49 220.233C133.415 218.587 128.444 213.374 126.093 210.973C140.535 210.059 165.389 206.172 172.777 210.973C176.136 213.717 181.846 224.349 182.853 226.406Z" fill="#F7F7F7"/>
<path opacity="0.15" d="M182.853 176.058C184.532 172.285 189.682 165.312 192.593 160.968C191.25 159.596 190.578 159.253 184.868 157.195C179.159 155.137 165.724 153.423 158.336 155.137C150.947 156.852 144.901 166.112 143.894 167.484C142.886 168.856 135.833 180.173 134.49 182.231C133.415 183.877 128.444 189.09 126.093 191.491C140.535 192.405 165.389 196.292 172.777 191.491C176.136 188.747 181.846 178.115 182.853 176.058Z" fill="#F7F7F7"/>
<path opacity="0.15" d="M510.202 55.371C508.523 51.5985 503.373 44.6252 500.462 40.2811C501.806 38.9095 502.478 38.5663 508.187 36.5086C513.897 34.4508 527.331 32.736 534.72 34.4508C542.109 36.1656 548.154 45.4254 549.162 46.7973C550.169 48.1691 557.222 59.4867 558.566 61.5444C559.641 63.1906 564.611 68.4034 566.962 70.8041C552.52 71.7186 527.667 75.6057 520.278 70.8041C516.919 68.0604 511.21 57.4287 510.202 55.371Z" fill="#F7F7F7"/>
<path opacity="0.15" d="M510.202 105.72C508.523 109.492 503.373 116.466 500.462 120.81C501.806 122.181 502.478 122.525 508.187 124.582C513.897 126.64 527.331 128.355 534.72 126.64C542.109 124.925 548.154 115.665 549.162 114.294C550.169 112.922 557.222 101.604 558.566 99.5464C559.641 97.9002 564.611 92.6874 566.962 90.2868C552.52 89.3722 527.667 85.4852 520.278 90.2868C516.919 93.0304 511.21 103.662 510.202 105.72Z" fill="#F7F7F7"/>
<path opacity="0.15" d="M510.203 294.28C508.523 290.508 503.373 283.534 500.463 279.19C501.806 277.819 502.478 277.475 508.187 275.418C513.897 273.36 527.331 271.645 534.72 273.36C542.109 275.075 548.154 284.335 549.162 285.706C550.17 287.078 557.223 298.396 558.566 300.454C559.641 302.1 564.612 307.313 566.963 309.713C552.521 310.628 527.667 314.515 520.278 309.713C516.92 306.97 511.21 296.338 510.203 294.28Z" fill="#F7F7F7"/>
<path opacity="0.15" d="M510.203 344.629C508.523 348.402 503.373 355.375 500.463 359.719C501.806 361.091 502.478 361.434 508.187 363.491C513.897 365.549 527.331 367.264 534.72 365.549C542.109 363.834 548.154 354.575 549.162 353.203C550.17 351.831 557.223 340.513 558.566 338.456C559.641 336.809 564.612 331.597 566.963 329.196C552.521 328.281 527.667 324.394 520.278 329.196C516.92 331.94 511.21 342.571 510.203 344.629Z" fill="#F7F7F7"/>
<path opacity="0.15" d="M89.26 226.406C90.9393 230.179 96.0891 237.152 98.9999 241.496C97.6564 242.868 96.9847 243.211 91.2751 245.269C85.5656 247.327 72.1312 249.041 64.7424 247.327C57.3535 245.612 51.308 236.352 50.3005 234.98C49.2929 233.608 42.2399 222.291 40.8964 220.233C39.8217 218.587 34.851 213.374 32.5 210.973C46.9419 210.059 71.7954 206.172 79.1843 210.973C82.5428 213.717 88.2524 224.349 89.26 226.406Z" fill="#F7F7F7"/>
<path opacity="0.15" d="M89.26 176.058C90.9393 172.285 96.0891 165.312 98.9999 160.968C97.6565 159.596 96.9847 159.253 91.2751 157.195C85.5656 155.137 72.1312 153.423 64.7424 155.137C57.3535 156.852 51.308 166.112 50.3005 167.484C49.2929 168.856 42.2399 180.173 40.8964 182.231C39.8217 183.877 34.851 189.09 32.5 191.491C46.9419 192.405 71.7954 196.292 79.1843 191.491C82.5428 188.747 88.2524 178.115 89.26 176.058Z" fill="#F7F7F7"/>
<circle cx="300" cy="200" r="34.25" fill="#003F48" stroke="#DEC6A7" stroke-width="1.5"/>
<path d="M298.172 205.702C298.416 205.751 298.625 205.796 298.795 205.834C297.241 210.672 292.903 213.566 288.945 214.234C286.961 214.57 284.98 214.006 283.466 213.331C282.713 212.995 282.089 212.638 281.653 212.365C281.498 212.267 281.367 212.181 281.263 212.11C281.296 212.013 281.339 211.896 281.393 211.762C281.565 211.336 281.851 210.74 282.298 210.081C283.191 208.764 284.734 207.185 287.337 206.171C289.944 205.154 292.923 205.091 295.279 205.294C296.453 205.396 297.46 205.562 298.172 205.702Z" fill="#DEC6A7" stroke="#DEC6A7"/>
<path d="M312.06 214.237C308.102 213.567 303.764 210.674 302.21 205.838C302.38 205.8 302.589 205.755 302.833 205.706C303.546 205.566 304.553 205.399 305.726 205.298C308.082 205.094 311.061 205.156 313.668 206.173C316.271 207.188 317.813 208.767 318.707 210.084C319.154 210.744 319.44 211.339 319.612 211.766C319.666 211.9 319.709 212.017 319.742 212.114C319.638 212.185 319.507 212.271 319.352 212.369C318.916 212.642 318.292 212.999 317.539 213.335C316.025 214.01 314.044 214.573 312.06 214.237Z" fill="#DEC6A7" stroke="#DEC6A7"/>
<path d="M300.467 210.637C300.618 212.108 300.742 213.532 300.742 214.209C300.742 215.033 300.582 215.323 300.512 215.407C300.476 215.449 300.462 215.446 300.454 215.445C300.452 215.445 300.451 215.445 300.45 215.445C300.447 215.445 300.445 215.445 300.443 215.445C300.438 215.441 300.428 215.432 300.415 215.416C300.347 215.329 300.193 215.029 300.193 214.191C300.193 213.51 300.316 212.097 300.467 210.637ZM300.448 215.448C300.448 215.448 300.448 215.448 300.446 215.447C300.448 215.447 300.448 215.448 300.448 215.448Z" fill="#DEC6A7" stroke="#DEC6A7"/>
<path d="M300.446 203.098L299.95 203.158L300.942 203.16L300.446 203.098ZM300.446 203.098L300.942 203.16L300.942 203.16L300.942 203.159L300.943 203.156L300.945 203.142L300.951 203.089L300.977 202.887C300.998 202.711 301.029 202.459 301.066 202.151C301.141 201.536 301.24 200.697 301.339 199.803C301.536 198.03 301.738 195.997 301.738 195.094C301.738 194.181 301.568 193.603 301.274 193.252C300.952 192.867 300.568 192.856 300.446 192.856H300.444C300.397 192.856 300.264 192.856 300.106 192.912C299.941 192.971 299.772 193.081 299.627 193.265C299.349 193.617 299.189 194.194 299.189 195.11C299.189 196.019 299.382 198.046 299.57 199.814C299.665 200.705 299.76 201.541 299.831 202.154C299.867 202.46 299.896 202.711 299.917 202.885L299.941 203.087L299.948 203.14L299.949 203.153L299.95 203.157L299.95 203.158L299.95 203.158L300.446 203.098ZM301.082 203.666C300.843 203.901 300.633 204.112 300.47 204.277C300.308 204.113 300.101 203.905 299.862 203.671C299.292 203.113 298.54 202.402 297.825 201.81C297.329 201.399 296.533 200.912 295.655 200.376L295.606 200.346C294.723 199.807 293.729 199.199 292.763 198.519C290.764 197.112 289.026 195.485 288.592 193.665C288.135 191.747 288.296 188.99 288.75 186.595C288.976 185.405 289.27 184.329 289.582 183.517C289.739 183.11 289.895 182.782 290.043 182.542C290.084 182.474 290.123 182.417 290.158 182.37L290.182 182.388C290.403 182.547 290.713 182.77 291.065 183.023C291.769 183.529 292.646 184.158 293.335 184.646L293.336 184.647C293.686 184.893 294.197 185.18 294.765 185.49C294.914 185.571 295.068 185.655 295.225 185.74C295.68 185.986 296.167 186.25 296.662 186.532C298.008 187.298 299.327 188.151 300.092 189.03L300.47 189.464L300.847 189.029C301.61 188.15 302.929 187.297 304.275 186.531C304.771 186.248 305.26 185.984 305.716 185.737C305.872 185.652 306.025 185.569 306.173 185.488C306.742 185.178 307.253 184.891 307.603 184.645L307.603 184.645C308.292 184.159 309.169 183.529 309.874 183.022C310.226 182.768 310.536 182.544 310.757 182.384L310.78 182.368C310.815 182.415 310.854 182.473 310.896 182.541C311.044 182.782 311.2 183.111 311.356 183.518C311.668 184.332 311.962 185.408 312.188 186.599C312.642 188.993 312.802 191.749 312.345 193.667C311.911 195.487 310.173 197.114 308.175 198.521C307.207 199.203 306.21 199.811 305.325 200.351L305.283 200.377C304.405 200.913 303.609 201.4 303.112 201.81L303.112 201.811C302.4 202.401 301.651 203.109 301.082 203.666Z" fill="#DEC6A7" stroke="#DEC6A7"/>
<path d="M291.582 201.538C290.229 200.981 288.929 200.424 288.331 200.103C287.598 199.709 287.406 199.433 287.361 199.33C287.351 199.308 287.348 199.295 287.347 199.288C287.348 199.286 287.349 199.284 287.351 199.281C287.351 199.281 287.351 199.281 287.351 199.28C287.353 199.275 287.358 199.256 287.419 199.243C287.526 199.22 287.855 199.214 288.568 199.598C289.159 199.917 290.356 200.705 291.582 201.538ZM287.347 199.283C287.347 199.283 287.347 199.283 287.347 199.285C287.347 199.283 287.347 199.282 287.347 199.283Z" fill="#DEC6A7" stroke="#DEC6A7"/>
<path d="M309.475 201.709C310.741 200.942 311.977 200.22 312.586 199.935C313.325 199.588 313.654 199.611 313.759 199.64C313.82 199.656 313.818 199.674 313.818 199.675C313.818 199.675 313.818 199.675 313.818 199.675C313.819 199.676 313.82 199.678 313.82 199.679C313.825 199.685 313.83 199.691 313.808 199.735C313.759 199.834 313.555 200.1 312.801 200.451C312.184 200.737 310.855 201.225 309.475 201.709Z" fill="#DEC6A7" stroke="#DEC6A7"/>
</svg>
