<svg width="480" height="320" viewBox="0 0 480 320" fill="none" xmlns="http://www.w3.org/2000/svg">
<rect x="0.5" y="0.5" width="479" height="319" rx="4.5" fill="#12505C" stroke="#CFB194"/>
<g opacity="0.8">
<g opacity="0.15">
<path d="M25.5 19.4809C25.5 19.4809 41.7333 15.0311 54.5869 20.0239C67.4404 25.0166 69.9385 35.628 69.9385 35.628C69.9385 35.628 60.2123 43.032 50.1462 41.334C40.0802 39.636 28.9855 32.1261 25.5 19.4809Z" fill="white"/>
<path d="M25.5 94.019C25.5 94.019 41.7333 89.5692 54.5869 94.562C67.4404 99.5547 69.9385 110.166 69.9385 110.166C69.9385 110.166 60.2123 117.57 50.1462 115.872C40.0802 114.174 28.9855 106.664 25.5 94.019Z" fill="white"/>
<path d="M25.5 168.558C25.5 168.558 41.7333 164.108 54.5869 169.101C67.4404 174.093 69.9385 184.705 69.9385 184.705C69.9385 184.705 60.2123 192.109 50.1462 190.411C40.0802 188.713 28.9855 181.203 25.5 168.558Z" fill="white"/>
<path d="M25.5 243.096C25.5 243.096 41.7333 238.646 54.5869 243.639C67.4404 248.631 69.9385 259.243 69.9385 259.243C69.9385 259.243 60.2123 266.647 50.1462 264.949C40.0802 263.251 28.9855 255.741 25.5 243.096Z" fill="white"/>
<path d="M202.038 19.4804C202.038 19.4804 218.272 15.0306 231.125 20.0234C243.979 25.0161 246.477 35.6275 246.477 35.6275C246.477 35.6275 236.751 43.0315 226.685 41.3335C216.619 39.6355 205.524 32.1257 202.038 19.4804Z" fill="white"/>
<path d="M202.039 94.019C202.039 94.019 218.272 89.5692 231.125 94.562C243.979 99.5547 246.477 110.166 246.477 110.166C246.477 110.166 236.751 117.57 226.685 115.872C216.619 114.174 205.524 106.664 202.039 94.019Z" fill="white"/>
<path d="M202.039 168.558C202.039 168.558 218.272 164.108 231.125 169.101C243.979 174.093 246.477 184.705 246.477 184.705C246.477 184.705 236.751 192.109 226.685 190.411C216.619 188.713 205.524 181.203 202.039 168.558Z" fill="white"/>
<path d="M202.039 243.096C202.039 243.096 218.272 238.646 231.125 243.639C243.979 248.631 246.477 259.243 246.477 259.243C246.477 259.243 236.751 266.647 226.685 264.949C216.619 263.251 205.524 255.741 202.039 243.096Z" fill="white"/>
<path d="M113.769 19.4804C113.769 19.4804 130.003 15.0306 142.856 20.0234C155.71 25.0161 158.208 35.6275 158.208 35.6275C158.208 35.6275 148.481 43.0315 138.415 41.3335C128.349 39.6355 117.255 32.1257 113.769 19.4804Z" fill="white"/>
<path d="M113.769 94.019C113.769 94.019 130.003 89.5692 142.856 94.562C155.71 99.5547 158.208 110.166 158.208 110.166C158.208 110.166 148.481 117.57 138.415 115.872C128.349 114.174 117.255 106.664 113.769 94.019Z" fill="white"/>
<path d="M113.769 168.558C113.769 168.558 130.003 164.108 142.856 169.101C155.71 174.093 158.208 184.705 158.208 184.705C158.208 184.705 148.481 192.109 138.415 190.411C128.349 188.713 117.255 181.203 113.769 168.558Z" fill="white"/>
<path d="M113.769 243.096C113.769 243.096 130.003 238.646 142.856 243.639C155.71 248.631 158.208 259.243 158.208 259.243C158.208 259.243 148.481 266.647 138.415 264.949C128.349 263.251 117.255 255.741 113.769 243.096Z" fill="white"/>
<path d="M290.308 19.4804C290.308 19.4804 306.541 15.0306 319.395 20.0234C332.248 25.0161 334.746 35.6275 334.746 35.6275C334.746 35.6275 325.02 43.0315 314.954 41.3335C304.888 39.6355 293.793 32.1257 290.308 19.4804Z" fill="white"/>
<path d="M290.308 94.019C290.308 94.019 306.541 89.5692 319.395 94.562C332.248 99.5547 334.746 110.166 334.746 110.166C334.746 110.166 325.02 117.57 314.954 115.872C304.888 114.174 293.793 106.664 290.308 94.019Z" fill="white"/>
<path d="M290.308 168.558C290.308 168.558 306.541 164.108 319.395 169.101C332.248 174.093 334.746 184.705 334.746 184.705C334.746 184.705 325.02 192.109 314.954 190.411C304.888 188.713 293.793 181.203 290.308 168.558Z" fill="white"/>
<path d="M290.308 243.096C290.308 243.096 306.541 238.646 319.395 243.639C332.248 248.631 334.746 259.243 334.746 259.243C334.746 259.243 325.02 266.647 314.954 264.949C304.888 263.251 293.793 255.741 290.308 243.096Z" fill="white"/>
<path d="M378.577 19.4804C378.577 19.4804 394.81 15.0306 407.664 20.0234C420.517 25.0161 423.015 35.6275 423.015 35.6275C423.015 35.6275 413.289 43.0315 403.223 41.3335C393.157 39.6355 382.062 32.1257 378.577 19.4804Z" fill="white"/>
<path d="M378.577 94.019C378.577 94.019 394.81 89.5692 407.664 94.562C420.517 99.5547 423.015 110.166 423.015 110.166C423.015 110.166 413.289 117.57 403.223 115.872C393.157 114.174 382.062 106.664 378.577 94.019Z" fill="white"/>
<path d="M378.577 168.558C378.577 168.558 394.81 164.108 407.664 169.101C420.517 174.093 423.015 184.705 423.015 184.705C423.015 184.705 413.289 192.109 403.223 190.411C393.157 188.713 382.062 181.203 378.577 168.558Z" fill="white"/>
<path d="M378.577 243.096C378.577 243.096 394.81 238.646 407.664 243.639C420.517 248.631 423.015 259.243 423.015 259.243C423.015 259.243 413.289 266.647 403.223 264.949C393.157 263.251 382.062 255.741 378.577 243.096Z" fill="white"/>
<path d="M103.284 56.7462C103.284 56.7462 87.0512 52.301 74.1977 57.2938C61.3442 62.2866 58.846 72.8933 58.846 72.8933C58.846 72.8933 68.5723 80.2973 78.6383 78.6039C88.7043 76.9105 99.799 69.3961 103.284 56.7462Z" fill="white"/>
<path d="M103.284 131.285C103.284 131.285 87.0512 126.84 74.1977 131.832C61.3442 136.825 58.846 147.432 58.846 147.432C58.846 147.432 68.5723 154.836 78.6383 153.142C88.7043 151.449 99.799 143.935 103.284 131.285Z" fill="white"/>
<path d="M103.284 205.823C103.284 205.823 87.0512 201.378 74.1977 206.371C61.3442 211.364 58.846 221.97 58.846 221.97C58.846 221.97 68.5723 229.374 78.6383 227.681C88.7043 225.988 99.799 218.473 103.284 205.823Z" fill="white"/>
<path d="M103.284 280.361C103.284 280.361 87.0512 275.916 74.1977 280.909C61.3442 285.902 58.846 296.509 58.846 296.509C58.846 296.509 68.5723 303.913 78.6383 302.219C88.7043 300.526 99.799 293.011 103.284 280.361Z" fill="white"/>
<path d="M279.823 56.7462C279.823 56.7462 263.59 52.301 250.736 57.2938C237.883 62.2866 235.385 72.8933 235.385 72.8933C235.385 72.8933 245.111 80.2973 255.177 78.6039C265.243 76.9105 276.338 69.3961 279.823 56.7462Z" fill="white"/>
<path d="M279.823 131.285C279.823 131.285 263.59 126.84 250.736 131.832C237.883 136.825 235.385 147.432 235.385 147.432C235.385 147.432 245.111 154.836 255.177 153.142C265.243 151.449 276.338 143.935 279.823 131.285Z" fill="white"/>
<path d="M279.823 205.823C279.823 205.823 263.59 201.378 250.736 206.371C237.883 211.364 235.385 221.97 235.385 221.97C235.385 221.97 245.111 229.374 255.177 227.681C265.243 225.988 276.338 218.473 279.823 205.823Z" fill="white"/>
<path d="M279.823 280.361C279.823 280.361 263.59 275.916 250.736 280.909C237.883 285.902 235.385 296.509 235.385 296.509C235.385 296.509 245.111 303.913 255.177 302.219C265.243 300.526 276.338 293.011 279.823 280.361Z" fill="white"/>
<path d="M191.554 56.7462C191.554 56.7462 175.321 52.301 162.467 57.2938C149.614 62.2866 147.115 72.8933 147.115 72.8933C147.115 72.8933 156.842 80.2973 166.908 78.6039C176.974 76.9105 188.068 69.3961 191.554 56.7462Z" fill="white"/>
<path d="M191.554 131.285C191.554 131.285 175.321 126.84 162.467 131.832C149.614 136.825 147.115 147.432 147.115 147.432C147.115 147.432 156.842 154.836 166.908 153.142C176.974 151.449 188.068 143.935 191.554 131.285Z" fill="white"/>
<path d="M191.554 205.823C191.554 205.823 175.321 201.378 162.467 206.371C149.614 211.364 147.115 221.97 147.115 221.97C147.115 221.97 156.842 229.374 166.908 227.681C176.974 225.988 188.068 218.473 191.554 205.823Z" fill="white"/>
<path d="M191.554 280.361C191.554 280.361 175.321 275.916 162.467 280.909C149.614 285.902 147.115 296.509 147.115 296.509C147.115 296.509 156.842 303.913 166.908 302.219C176.974 300.526 188.068 293.011 191.554 280.361Z" fill="white"/>
<path d="M368.092 56.7462C368.092 56.7462 351.859 52.301 339.005 57.2938C326.152 62.2866 323.654 72.8933 323.654 72.8933C323.654 72.8933 333.38 80.2973 343.446 78.6039C353.512 76.9105 364.607 69.3961 368.092 56.7462Z" fill="white"/>
<path d="M368.092 131.285C368.092 131.285 351.859 126.84 339.005 131.832C326.152 136.825 323.654 147.432 323.654 147.432C323.654 147.432 333.38 154.836 343.446 153.142C353.512 151.449 364.607 143.935 368.092 131.285Z" fill="white"/>
<path d="M368.092 205.823C368.092 205.823 351.859 201.378 339.005 206.371C326.152 211.364 323.654 221.97 323.654 221.97C323.654 221.97 333.38 229.374 343.446 227.681C353.512 225.988 364.607 218.473 368.092 205.823Z" fill="white"/>
<path d="M368.092 280.361C368.092 280.361 351.859 275.916 339.005 280.909C326.152 285.902 323.654 296.509 323.654 296.509C323.654 296.509 333.38 303.913 343.446 302.219C353.512 300.526 364.607 293.011 368.092 280.361Z" fill="white"/>
<path d="M456.362 56.7462C456.362 56.7462 440.128 52.301 427.275 57.2938C414.421 62.2866 411.923 72.8933 411.923 72.8933C411.923 72.8933 421.649 80.2973 431.715 78.6039C441.781 76.9105 452.876 69.3961 456.362 56.7462Z" fill="white"/>
<path d="M456.362 131.285C456.362 131.285 440.128 126.84 427.275 131.832C414.421 136.825 411.923 147.432 411.923 147.432C411.923 147.432 421.649 154.836 431.715 153.142C441.781 151.449 452.876 143.935 456.362 131.285Z" fill="white"/>
<path d="M456.362 205.823C456.362 205.823 440.128 201.378 427.275 206.371C414.421 211.364 411.923 221.97 411.923 221.97C411.923 221.97 421.649 229.374 431.715 227.681C441.781 225.988 452.876 218.473 456.362 205.823Z" fill="white"/>
<path d="M456.362 280.361C456.362 280.361 440.128 275.916 427.275 280.909C414.421 285.902 411.923 296.509 411.923 296.509C411.923 296.509 421.649 303.913 431.715 302.219C441.781 300.526 452.876 293.011 456.362 280.361Z" fill="white"/>
</g>
</g>
</svg>
