<svg width="600" height="400" viewBox="0 0 600 400" fill="none" xmlns="http://www.w3.org/2000/svg">
<rect x="0.5" y="0.5" width="599" height="399" rx="4.5" fill="#003F48" stroke="#CFB194"/>
<g opacity="0.8">
<g opacity="0.15">
<path d="M31.875 24.349C31.875 24.349 52.1667 18.7868 68.2336 25.0278C84.3004 31.2687 87.4231 44.5329 87.4231 44.5329C87.4231 44.5329 75.2653 53.7879 62.6828 51.6654C50.1002 49.5429 36.2318 40.1556 31.875 24.349Z" fill="white"/>
<path d="M31.875 117.522C31.875 117.522 52.1667 111.96 68.2336 118.201C84.3004 124.442 87.4231 137.706 87.4231 137.706C87.4231 137.706 75.2653 146.961 62.6828 144.838C50.1002 142.716 36.2318 133.328 31.875 117.522Z" fill="white"/>
<path d="M31.875 210.696C31.875 210.696 52.1667 205.133 68.2336 211.374C84.3004 217.615 87.4231 230.88 87.4231 230.88C87.4231 230.88 75.2653 240.135 62.6828 238.012C50.1002 235.89 36.2318 226.502 31.875 210.696Z" fill="white"/>
<path d="M31.875 303.869C31.875 303.869 52.1667 298.306 68.2336 304.547C84.3004 310.788 87.4231 324.052 87.4231 324.052C87.4231 324.052 75.2653 333.307 62.6828 331.185C50.1002 329.062 36.2318 319.675 31.875 303.869Z" fill="white"/>
<path d="M252.548 24.349C252.548 24.349 272.84 18.7868 288.907 25.0278C304.973 31.2687 308.096 44.5329 308.096 44.5329C308.096 44.5329 295.938 53.7879 283.356 51.6654C270.773 49.5429 256.905 40.1556 252.548 24.349Z" fill="white"/>
<path d="M252.548 117.522C252.548 117.522 272.84 111.96 288.907 118.201C304.974 124.442 308.096 137.706 308.096 137.706C308.096 137.706 295.938 146.961 283.356 144.838C270.773 142.716 256.905 133.328 252.548 117.522Z" fill="white"/>
<path d="M252.548 210.696C252.548 210.696 272.84 205.133 288.907 211.374C304.974 217.615 308.096 230.88 308.096 230.88C308.096 230.88 295.938 240.135 283.356 238.012C270.773 235.89 256.905 226.502 252.548 210.696Z" fill="white"/>
<path d="M252.548 303.869C252.548 303.869 272.84 298.306 288.907 304.547C304.974 310.788 308.096 324.052 308.096 324.052C308.096 324.052 295.938 333.307 283.356 331.185C270.773 329.062 256.905 319.675 252.548 303.869Z" fill="white"/>
<path d="M142.211 24.349C142.211 24.349 162.503 18.7868 178.57 25.0278C194.637 31.2687 197.76 44.5329 197.76 44.5329C197.76 44.5329 185.602 53.7879 173.019 51.6654C160.437 49.5429 146.568 40.1556 142.211 24.349Z" fill="white"/>
<path d="M142.211 117.522C142.211 117.522 162.503 111.96 178.57 118.201C194.637 124.442 197.76 137.706 197.76 137.706C197.76 137.706 185.602 146.961 173.019 144.838C160.437 142.716 146.568 133.328 142.211 117.522Z" fill="white"/>
<path d="M142.211 210.696C142.211 210.696 162.503 205.133 178.57 211.374C194.637 217.615 197.76 230.88 197.76 230.88C197.76 230.88 185.602 240.135 173.019 238.012C160.437 235.89 146.568 226.502 142.211 210.696Z" fill="white"/>
<path d="M142.211 303.869C142.211 303.869 162.503 298.306 178.57 304.547C194.637 310.788 197.76 324.052 197.76 324.052C197.76 324.052 185.602 333.307 173.019 331.185C160.437 329.062 146.568 319.675 142.211 303.869Z" fill="white"/>
<path d="M362.885 24.349C362.885 24.349 383.176 18.7868 399.243 25.0278C415.31 31.2687 418.433 44.5329 418.433 44.5329C418.433 44.5329 406.275 53.7879 393.692 51.6654C381.11 49.5429 367.241 40.1556 362.885 24.349Z" fill="white"/>
<path d="M362.885 117.522C362.885 117.522 383.176 111.96 399.243 118.201C415.31 124.442 418.433 137.706 418.433 137.706C418.433 137.706 406.275 146.961 393.692 144.838C381.11 142.716 367.241 133.328 362.885 117.522Z" fill="white"/>
<path d="M362.885 210.696C362.885 210.696 383.176 205.133 399.243 211.374C415.31 217.615 418.433 230.88 418.433 230.88C418.433 230.88 406.275 240.135 393.692 238.012C381.11 235.89 367.241 226.502 362.885 210.696Z" fill="white"/>
<path d="M362.885 303.869C362.885 303.869 383.176 298.306 399.243 304.547C415.31 310.788 418.433 324.052 418.433 324.052C418.433 324.052 406.275 333.307 393.692 331.185C381.11 329.062 367.241 319.675 362.885 303.869Z" fill="white"/>
<path d="M473.221 24.349C473.221 24.349 493.513 18.7868 509.58 25.0278C525.646 31.2687 528.769 44.5329 528.769 44.5329C528.769 44.5329 516.611 53.7879 504.029 51.6654C491.446 49.5429 477.578 40.1556 473.221 24.349Z" fill="white"/>
<path d="M473.221 117.522C473.221 117.522 493.513 111.96 509.58 118.201C525.646 124.442 528.769 137.706 528.769 137.706C528.769 137.706 516.611 146.961 504.029 144.838C491.446 142.716 477.578 133.328 473.221 117.522Z" fill="white"/>
<path d="M473.221 210.696C473.221 210.696 493.513 205.133 509.58 211.374C525.646 217.615 528.769 230.88 528.769 230.88C528.769 230.88 516.611 240.135 504.029 238.012C491.446 235.89 477.578 226.502 473.221 210.696Z" fill="white"/>
<path d="M473.221 303.869C473.221 303.869 493.513 298.306 509.58 304.547C525.646 310.788 528.769 324.052 528.769 324.052C528.769 324.052 516.611 333.307 504.029 331.185C491.446 329.062 477.578 319.675 473.221 303.869Z" fill="white"/>
<path d="M129.106 70.9319C129.106 70.9319 108.814 65.3754 92.7471 71.6164C76.6802 77.8573 73.5576 91.1158 73.5576 91.1158C73.5576 91.1158 85.7153 100.371 98.2979 98.254C110.88 96.1373 124.749 86.7442 129.106 70.9319Z" fill="white"/>
<path d="M129.106 164.105C129.106 164.105 108.814 158.548 92.7471 164.789C76.6802 171.03 73.5576 184.289 73.5576 184.289C73.5576 184.289 85.7153 193.544 98.2979 191.427C110.88 189.31 124.749 179.917 129.106 164.105Z" fill="white"/>
<path d="M129.106 257.279C129.106 257.279 108.814 251.722 92.7471 257.963C76.6802 264.204 73.5576 277.462 73.5576 277.462C73.5576 277.462 85.7153 286.717 98.2979 284.601C110.88 282.484 124.749 273.091 129.106 257.279Z" fill="white"/>
<path d="M129.106 350.45C129.106 350.45 108.814 344.894 92.7471 351.135C76.6802 357.376 73.5576 370.634 73.5576 370.634C73.5576 370.634 85.7153 379.889 98.2979 377.773C110.88 375.656 124.749 366.263 129.106 350.45Z" fill="white"/>
<path d="M349.779 70.9319C349.779 70.9319 329.487 65.3754 313.42 71.6164C297.353 77.8573 294.231 91.1158 294.231 91.1158C294.231 91.1158 306.388 100.371 318.971 98.254C331.554 96.1373 345.422 86.7442 349.779 70.9319Z" fill="white"/>
<path d="M349.779 164.105C349.779 164.105 329.487 158.548 313.42 164.789C297.353 171.03 294.231 184.289 294.231 184.289C294.231 184.289 306.388 193.544 318.971 191.427C331.554 189.31 345.422 179.917 349.779 164.105Z" fill="white"/>
<path d="M349.779 257.279C349.779 257.279 329.487 251.722 313.42 257.963C297.353 264.204 294.231 277.462 294.231 277.462C294.231 277.462 306.388 286.717 318.971 284.601C331.554 282.484 345.422 273.091 349.779 257.279Z" fill="white"/>
<path d="M349.779 350.45C349.779 350.45 329.487 344.894 313.42 351.135C297.353 357.376 294.231 370.634 294.231 370.634C294.231 370.634 306.388 379.889 318.971 377.773C331.554 375.656 345.422 366.263 349.779 350.45Z" fill="white"/>
<path d="M239.442 70.9319C239.442 70.9319 219.151 65.3754 203.084 71.6164C187.017 77.8573 183.894 91.1158 183.894 91.1158C183.894 91.1158 196.052 100.371 208.635 98.254C221.217 96.1373 235.086 86.7442 239.442 70.9319Z" fill="white"/>
<path d="M239.442 164.105C239.442 164.105 219.151 158.548 203.084 164.789C187.017 171.03 183.894 184.289 183.894 184.289C183.894 184.289 196.052 193.544 208.635 191.427C221.217 189.31 235.086 179.917 239.442 164.105Z" fill="white"/>
<path d="M239.442 257.279C239.442 257.279 219.151 251.722 203.084 257.963C187.017 264.204 183.894 277.462 183.894 277.462C183.894 277.462 196.052 286.717 208.635 284.601C221.217 282.484 235.086 273.091 239.442 257.279Z" fill="white"/>
<path d="M239.442 350.45C239.442 350.45 219.151 344.894 203.084 351.135C187.017 357.376 183.894 370.634 183.894 370.634C183.894 370.634 196.052 379.889 208.635 377.773C221.217 375.656 235.086 366.263 239.442 350.45Z" fill="white"/>
<path d="M460.115 70.9319C460.115 70.9319 439.824 65.3754 423.757 71.6164C407.69 77.8573 404.567 91.1158 404.567 91.1158C404.567 91.1158 416.725 100.371 429.307 98.254C441.89 96.1373 455.758 86.7442 460.115 70.9319Z" fill="white"/>
<path d="M460.115 164.105C460.115 164.105 439.824 158.548 423.757 164.789C407.69 171.03 404.567 184.289 404.567 184.289C404.567 184.289 416.725 193.544 429.307 191.427C441.89 189.31 455.758 179.917 460.115 164.105Z" fill="white"/>
<path d="M460.115 257.279C460.115 257.279 439.824 251.722 423.757 257.963C407.69 264.204 404.567 277.462 404.567 277.462C404.567 277.462 416.725 286.717 429.307 284.601C441.89 282.484 455.758 273.091 460.115 257.279Z" fill="white"/>
<path d="M460.115 350.45C460.115 350.45 439.824 344.894 423.757 351.135C407.69 357.376 404.567 370.634 404.567 370.634C404.567 370.634 416.725 379.889 429.307 377.773C441.89 375.656 455.758 366.263 460.115 350.45Z" fill="white"/>
<path d="M570.452 70.9319C570.452 70.9319 550.16 65.3754 534.093 71.6164C518.027 77.8573 514.904 91.1158 514.904 91.1158C514.904 91.1158 527.062 100.371 539.644 98.254C552.227 96.1373 566.095 86.7442 570.452 70.9319Z" fill="white"/>
<path d="M570.452 164.105C570.452 164.105 550.16 158.548 534.093 164.789C518.027 171.03 514.904 184.289 514.904 184.289C514.904 184.289 527.062 193.544 539.644 191.427C552.227 189.31 566.095 179.917 570.452 164.105Z" fill="white"/>
<path d="M570.452 257.279C570.452 257.279 550.16 251.722 534.093 257.963C518.027 264.204 514.904 277.462 514.904 277.462C514.904 277.462 527.062 286.717 539.644 284.601C552.227 282.484 566.095 273.091 570.452 257.279Z" fill="white"/>
<path d="M570.452 350.45C570.452 350.45 550.16 344.894 534.093 351.135C518.027 357.376 514.904 370.634 514.904 370.634C514.904 370.634 527.062 379.889 539.644 377.773C552.227 375.656 566.095 366.263 570.452 350.45Z" fill="white"/>
</g>
</g>
<circle cx="300" cy="200" r="34.25" fill="#003F48" stroke="#DEC6A7" stroke-width="1.5"/>
<path d="M298.172 205.702C298.416 205.751 298.625 205.796 298.795 205.834C297.24 210.672 292.903 213.566 288.945 214.234C286.961 214.57 284.98 214.006 283.466 213.331C282.713 212.995 282.089 212.638 281.653 212.365C281.497 212.267 281.366 212.181 281.263 212.11C281.296 212.013 281.339 211.896 281.393 211.762C281.565 211.336 281.851 210.74 282.298 210.081C283.191 208.764 284.734 207.185 287.337 206.171C289.944 205.154 292.923 205.091 295.279 205.294C296.452 205.396 297.459 205.562 298.172 205.702Z" fill="#DEC6A7" stroke="#DEC6A7"/>
<path d="M312.06 214.237C308.102 213.567 303.764 210.674 302.21 205.838C302.38 205.8 302.589 205.755 302.833 205.706C303.546 205.566 304.553 205.399 305.726 205.298C308.082 205.094 311.061 205.156 313.668 206.173C316.271 207.188 317.813 208.767 318.707 210.084C319.154 210.744 319.44 211.339 319.612 211.766C319.666 211.9 319.709 212.017 319.742 212.114C319.638 212.185 319.507 212.271 319.352 212.369C318.916 212.642 318.292 212.999 317.539 213.335C316.025 214.01 314.044 214.573 312.06 214.237Z" fill="#DEC6A7" stroke="#DEC6A7"/>
<path d="M300.467 210.637C300.618 212.108 300.742 213.532 300.742 214.209C300.742 215.033 300.582 215.323 300.512 215.407C300.476 215.449 300.462 215.446 300.454 215.445C300.452 215.445 300.451 215.445 300.45 215.445C300.447 215.445 300.445 215.445 300.443 215.445C300.438 215.441 300.428 215.432 300.415 215.416C300.347 215.329 300.193 215.029 300.193 214.191C300.193 213.51 300.316 212.097 300.467 210.637ZM300.448 215.448C300.448 215.448 300.448 215.448 300.446 215.447C300.448 215.447 300.448 215.448 300.448 215.448Z" fill="#DEC6A7" stroke="#DEC6A7"/>
<path d="M300.446 203.098L299.95 203.158L300.942 203.16L300.446 203.098ZM300.446 203.098L300.942 203.16L300.942 203.16L300.942 203.159L300.943 203.156L300.945 203.142L300.951 203.089L300.977 202.887C300.998 202.711 301.029 202.459 301.066 202.151C301.141 201.536 301.24 200.697 301.339 199.803C301.536 198.03 301.738 195.997 301.738 195.094C301.738 194.181 301.568 193.603 301.274 193.252C300.952 192.867 300.568 192.856 300.446 192.856H300.444C300.397 192.856 300.264 192.856 300.106 192.912C299.941 192.971 299.772 193.081 299.627 193.265C299.349 193.617 299.189 194.194 299.189 195.11C299.189 196.019 299.382 198.046 299.57 199.814C299.665 200.705 299.76 201.541 299.831 202.154C299.867 202.46 299.896 202.711 299.917 202.885L299.941 203.087L299.948 203.14L299.949 203.153L299.95 203.157L299.95 203.158L299.95 203.158L300.446 203.098ZM301.082 203.666C300.843 203.901 300.633 204.112 300.47 204.277C300.308 204.113 300.101 203.905 299.862 203.671C299.292 203.113 298.54 202.402 297.825 201.81C297.329 201.399 296.533 200.912 295.655 200.376L295.606 200.346C294.723 199.807 293.729 199.199 292.763 198.519C290.765 197.112 289.026 195.485 288.593 193.665C288.135 191.747 288.296 188.99 288.75 186.595C288.976 185.405 289.27 184.329 289.582 183.517C289.739 183.11 289.895 182.782 290.043 182.542C290.084 182.474 290.123 182.417 290.158 182.37L290.182 182.388C290.403 182.547 290.713 182.77 291.065 183.023C291.769 183.529 292.646 184.158 293.335 184.646L293.336 184.647C293.686 184.893 294.197 185.18 294.765 185.49C294.914 185.571 295.068 185.655 295.225 185.74C295.68 185.986 296.167 186.25 296.662 186.532C298.008 187.298 299.327 188.151 300.092 189.03L300.47 189.464L300.847 189.029C301.61 188.15 302.929 187.297 304.275 186.531C304.772 186.248 305.26 185.984 305.716 185.737C305.872 185.652 306.025 185.569 306.173 185.488C306.742 185.178 307.253 184.891 307.603 184.645L307.603 184.645C308.292 184.159 309.169 183.529 309.874 183.022C310.226 182.768 310.536 182.544 310.757 182.384L310.78 182.368C310.815 182.415 310.854 182.473 310.896 182.541C311.044 182.782 311.2 183.111 311.356 183.518C311.668 184.332 311.962 185.408 312.188 186.599C312.642 188.993 312.802 191.749 312.345 193.667C311.911 195.487 310.173 197.114 308.175 198.521C307.207 199.203 306.21 199.811 305.325 200.351L305.283 200.377C304.405 200.913 303.609 201.4 303.112 201.81L303.112 201.811C302.4 202.401 301.651 203.109 301.082 203.666Z" fill="#DEC6A7" stroke="#DEC6A7"/>
<path d="M291.582 201.538C290.229 200.981 288.929 200.424 288.331 200.103C287.598 199.709 287.406 199.433 287.361 199.33C287.351 199.308 287.348 199.295 287.347 199.288C287.348 199.286 287.349 199.284 287.351 199.281C287.351 199.281 287.351 199.281 287.351 199.28C287.353 199.275 287.358 199.256 287.419 199.243C287.526 199.22 287.855 199.214 288.568 199.598C289.159 199.917 290.356 200.705 291.582 201.538ZM287.347 199.283C287.347 199.283 287.347 199.283 287.347 199.285C287.347 199.283 287.347 199.282 287.347 199.283Z" fill="#DEC6A7" stroke="#DEC6A7"/>
<path d="M309.475 201.709C310.741 200.942 311.977 200.22 312.586 199.935C313.325 199.588 313.654 199.611 313.759 199.64C313.82 199.656 313.818 199.674 313.818 199.675C313.818 199.675 313.818 199.675 313.818 199.675C313.819 199.676 313.819 199.678 313.82 199.679C313.825 199.685 313.83 199.691 313.808 199.735C313.759 199.834 313.555 200.1 312.801 200.451C312.184 200.737 310.855 201.225 309.475 201.709Z" fill="#DEC6A7" stroke="#DEC6A7"/>
</svg>
