<svg width="69" height="131" viewBox="0 0 69 131" fill="none" xmlns="http://www.w3.org/2000/svg">
<path d="M19.7412 0.780093C18.7639 -0.387812 17.7865 -0.193161 17.0047 1.36405C15.4409 4.47846 15.05 7.98217 13.8772 11.0966C9.38144 25.6954 5.08116 40.4889 1.36728 55.2823C0.585409 58.3967 -0.19646 61.5111 -0.000993006 64.6256C-0.000993006 65.4042 0.389942 66.1828 0.780877 66.7667C10.1633 83.5067 19.3503 100.441 30.101 116.403C32.8375 120.49 35.1831 124.578 37.7242 128.86C39.4834 131.585 40.2653 131.78 42.6109 129.639C48.4749 124.383 54.7299 119.517 61.3758 115.04C61.7667 114.651 62.1576 114.456 62.5486 113.872C64.3078 110.758 65.8715 107.449 67.8262 104.334C68.6081 102.972 68.999 101.415 68.8035 99.8573C68.4126 95.575 68.2171 91.4874 67.8262 87.205C66.6534 76.3046 64.8942 65.2095 64.8942 54.3091C64.8942 49.2481 62.9395 45.9391 59.4211 42.4354C45.7384 29.0045 32.2511 15.3789 19.7412 0.780093ZM24.0415 9.34473C27.169 12.8484 30.2965 16.1575 33.6194 19.6612C40.4608 26.8633 47.4976 33.8707 54.5344 40.8782C55.3163 41.6568 55.5117 42.0461 54.7299 43.0193C51.9933 46.7177 49.6477 50.6107 47.1067 54.5037C38.3106 39.7103 31.6647 24.3328 23.6506 9.53938C23.6506 9.34473 23.846 9.34473 24.0415 9.34473ZM50.6251 64.8202C43.5882 67.156 36.7469 68.7132 29.9055 70.2704C26.778 71.049 23.846 71.4383 20.7186 72.0223C19.3503 72.4116 19.3503 71.8276 19.3503 70.8544C19.3503 69.1025 19.5457 67.156 19.5457 65.4042C19.5457 64.6255 19.7412 64.2363 20.7186 64.0416C24.237 63.0683 27.9508 62.4844 31.6647 61.9004C36.3559 60.9272 41.0472 60.1486 45.7384 58.5914C46.3248 58.3967 46.7157 58.3967 46.9112 58.9807C48.084 60.9272 49.2568 62.679 50.6251 64.8202ZM19.3503 6.42497C27.9508 22.7756 35.3786 39.1263 44.3701 54.893C45.152 56.0609 44.9565 56.4502 43.5882 56.8395C35.7695 58.786 27.7554 59.9539 19.7412 61.7058C20.1322 43.214 17.7865 24.9168 19.3503 6.42497ZM4.10382 53.5305C6.6449 44.5765 9.18598 35.4279 11.7271 26.474C13.0953 21.997 14.4636 17.5201 15.8319 12.8484C16.0273 12.4591 16.0273 11.8752 16.6137 11.4859C16.6137 15.3789 16.4183 19.2719 16.6137 23.1649C16.8092 30.5617 17.0047 38.153 17.3956 45.5498C17.5911 50.6107 17.5911 55.477 17.5911 60.5379C17.5911 61.7058 17.2001 61.7058 16.2228 61.3165C12.5089 59.5646 8.59957 57.8128 4.88569 55.8663C3.51742 55.2823 3.90836 54.3091 4.10382 53.5305ZM2.54008 62.679C2.93102 61.1218 2.93102 59.5646 3.32195 57.8128C7.8177 60.1486 12.118 62.2897 16.6137 64.0416C17.2001 64.2363 17.3956 64.6255 17.3956 65.2095C17.3956 67.156 17.2001 69.1025 17.2001 71.2437C17.2001 72.4116 16.8092 72.4116 15.8319 71.8276C11.7271 69.4918 7.8177 67.156 3.71289 64.8202C2.54008 64.2363 2.14915 63.6523 2.54008 62.679ZM32.8375 115.429C29.3191 111.926 8.01317 76.4993 4.69023 68.5186C8.79504 70.8544 12.5089 73.1902 16.4183 74.942C17.0047 75.1367 17.2001 75.7206 17.3956 76.3046C22.2823 89.3462 27.3644 101.999 32.8375 114.845C32.8375 115.04 32.8375 115.235 32.8375 115.429ZM40.6562 127.303C36.3559 116.792 31.6647 106.475 27.7554 96.159C25.2143 89.5409 22.2823 82.9227 19.9367 76.3046C19.5457 75.1367 19.7412 74.7474 20.914 74.5527C25.4098 73.5795 29.9055 72.8009 34.4013 71.633C40.0698 70.4651 45.5429 69.1025 51.016 67.156C51.7979 72.6062 52.5797 78.0565 53.3616 83.5067C54.1435 88.9569 54.9253 94.6018 56.2936 100.052C56.4891 100.831 56.4891 101.609 56.0982 102.388C51.016 110.563 45.9338 118.738 40.6562 127.303ZM58.8347 114.067C54.5344 116.987 50.6251 120.101 46.5202 123.215C46.5202 123.215 46.3248 123.215 46.1293 123.215C49.6477 116.792 53.7525 110.758 57.6619 104.334C58.2483 107.449 58.8347 110.174 59.4211 112.899C59.4211 113.483 59.2256 113.872 58.8347 114.067ZM61.5712 110.758C60.7894 108.227 60.3984 105.892 60.203 103.75C60.0075 102.582 60.3984 102.388 61.3758 102.582C62.744 102.777 64.1123 102.777 65.8715 102.972C64.5033 105.502 63.135 108.033 61.5712 110.758ZM64.5033 78.2511C65.2851 85.2585 65.6761 92.266 66.4579 99.0787C66.6534 100.247 66.2625 100.441 65.2851 100.441C65.0897 100.441 65.0897 100.441 64.8942 100.441C62.9395 100.247 60.3984 100.831 59.0302 99.6627C57.8574 98.4948 58.0528 95.9643 57.6619 94.2125C56.0982 85.8425 55.1208 77.2779 53.7525 68.9079C53.3616 66.9614 53.7525 65.2095 54.9254 63.6523C57.4664 59.7593 59.6166 55.8663 62.1576 51.584C62.5486 60.5379 63.5259 69.4918 64.5033 78.2511ZM61.1803 48.4695C58.2483 53.1412 55.5117 58.0074 52.5797 62.8737C52.3843 62.679 52.1888 62.4844 52.1888 62.2897C51.016 60.3432 48.6704 58.786 48.8659 56.8395C49.0613 54.893 51.016 53.1412 52.1888 51.3893C53.948 48.8588 55.5117 46.3284 57.271 43.6033C58.6392 44.9658 59.812 46.1337 60.9848 47.3016C61.1803 47.6909 61.3758 47.8856 61.1803 48.4695Z" fill="#E5DBD9"/>
</svg>
