<svg width="29" height="27" viewBox="0 0 29 27" fill="none" xmlns="http://www.w3.org/2000/svg">
<path d="M26.9286 0C27.4464 0 27.9643 0.241071 28.3527 0.602679C28.7411 0.964286 29 1.44643 29 1.92857V25.0714C29 25.6138 28.7411 26.096 28.3527 26.4576C27.9643 26.8192 27.4464 27 26.9286 27H2.07143C1.48884 27 0.970982 26.8192 0.582589 26.4576C0.194196 26.096 0 25.6138 0 25.0714V1.92857C0 1.44643 0.194196 0.964286 0.582589 0.602679C0.970982 0.241071 1.48884 0 2.07143 0H26.9286ZM8.73884 23.1429H8.80357V10.2455H4.46652V23.1429H8.73884ZM6.60268 8.49777C7.25 8.49777 7.83259 8.31696 8.35045 7.83482C8.8683 7.35268 9.12723 6.81027 9.12723 6.20759C9.12723 5.60491 8.8683 5.0625 8.35045 4.58036C7.83259 4.09821 7.25 3.85714 6.60268 3.85714C5.89062 3.85714 5.30804 4.09821 4.85491 4.58036C4.33705 5.0625 4.14286 5.60491 4.14286 6.20759C4.14286 6.81027 4.33705 7.35268 4.85491 7.83482C5.30804 8.31696 5.89062 8.49777 6.60268 8.49777ZM24.8571 23.1429V16.0915C24.8571 14.1027 24.5335 12.6562 23.9509 11.692C23.1094 10.5469 21.6853 9.9442 19.7433 9.9442C18.7076 9.9442 17.8661 10.1853 17.0893 10.6071C16.442 10.9688 15.9241 11.4509 15.6652 11.9933H15.6004V10.2455H11.4576V23.1429H15.7299V16.7545C15.7299 15.7902 15.8594 15.0067 16.183 14.4643C16.5714 13.8013 17.2835 13.4397 18.3192 13.4397C19.2902 13.4397 19.9375 13.8616 20.2612 14.5848C20.4554 15.067 20.5848 15.8504 20.5848 16.875V23.1429H24.8571Z" fill="#9E9E9E"/>
</svg>
