<svg xmlns="http://www.w3.org/2000/svg" viewBox="0 0 237.15 312.47"><defs><style>.cls-1{fill:#dec6a7;}.cls-2{fill:#c79160;}.cls-3{fill:#c5745a;}</style></defs><title>寶石之國</title><g id="Layer_1" data-name="Layer 1"><path class="cls-1" d="M210.35,239.34a6.71,6.71,0,0,0,1.06-1.76c.73-1.68-.12-3-2-3a8.3,8.3,0,0,0-2.83.49,74.4,74.4,0,0,0-14.75,7.75,19.72,19.72,0,0,0-5.88,6.61,7,7,0,0,1-4.94,3.56c-3.65.66-7.34,1-11,1.6-1.09.19-.66-.52-.55-1,2.1-9.18,3.48-18.51,5.29-27.74a19.48,19.48,0,0,0,.4-4.93c-.14-2.16-1.51-3.16-3.47-2.34a11.87,11.87,0,0,0-6.81,6.26c-1.58,3.86-2.84,7.86-4.13,11.84A97.22,97.22,0,0,0,158,249.85l-15.84-15.37c1-.48,1.85-.88,2.69-1.34,5-2.74,10.27-5.16,14.9-8.62a17.52,17.52,0,0,0,5.41-6.46,2.75,2.75,0,0,0-.24-3c-.65-.86-1.65-.7-2.55-.48a25,25,0,0,0-2.47.87c-3.65,1.37-7.24,3-11,4.08-8.42,2.51-17.1,3.65-25.82,4.55-6.46.67-13,.86-19.36,2.16a57.33,57.33,0,0,0-24.46,11.17c-2.86,2.26-5.46,4.86-8.21,7.27a3.72,3.72,0,0,1-4.14,1c-1.57-.62-3.27-.92-4.89-1.43-4.07-1.3-8.36-2.07-12-4.42a2.82,2.82,0,0,0-3.68.32,10.38,10.38,0,0,0-1.46,1.43,24.88,24.88,0,0,0-5.05,9.69,64.41,64.41,0,0,0-2.95,14.4,4.87,4.87,0,0,0,2.82,5.07c1.52.72,3,1.58,4.52,2.25a155.75,155.75,0,0,0,18.22,6.79c3.32,1,6.66,2,10.14,1.8,7.49-.36,14.71,1.08,21.91,2.84a153.69,153.69,0,0,0,22.21,4.12c1.72.16,3.57.47,5.15-.32a28.52,28.52,0,0,0,6.6-4.2,1.19,1.19,0,0,1,1.44-.29,11,11,0,0,0,5.94.53c3.95-.73,6.84-3.17,9.63-5.79A1.37,1.37,0,0,1,147,278c4.05,1.07,7.59-.22,10.86-2.53a16.7,16.7,0,0,0,3.8-4.48c.13-.19.13-.76.6-.42.76.53,1.51.21,2.24,0,6.34-1.84,12.85-3.1,19-5.57,5-2,9.74-4.44,13.24-8.83C201.19,250.53,205.56,244.77,210.35,239.34ZM120.71,286.7c-2.18.84-4.63.12-6.95-.16-7.69-.92-15.17-2.85-22.69-4.61a67.59,67.59,0,0,0-18.14-2A28.12,28.12,0,0,1,64,278.5a126.76,126.76,0,0,1-21-8c-1.18-.6-2.34-1.26-3.46-2a2.72,2.72,0,0,1-1-2.71,58.26,58.26,0,0,1,2.88-14.13A24.25,24.25,0,0,1,46,242.8c1.57-1.85,2-2,4.15-.91,4.33,2.26,9.12,3.16,13.7,4.66a15.89,15.89,0,0,1,1.86.51c3,1.4,5.18.19,7.29-1.82a86.85,86.85,0,0,1,8.7-7.55,56.43,56.43,0,0,1,24.72-10.21c6.89-1.12,13.88-1.21,20.79-2.13,8.08-1.07,16.19-2.08,23.94-4.78,3.73-1.3,7.4-2.76,11.1-4.15.42-.15.9-.49,1.28-.09s0,.93-.17,1.38c-1.55,3.37-4.39,5.52-7.4,7.36-4.47,2.72-9.11,5.18-13.8,7.54-1,.49-1.72.67-2.51-.27a4.75,4.75,0,0,0-1.32-1c-1.93-1.11-3.48-.69-4.59,1.2a11.4,11.4,0,0,0-2.21-1.82,3.1,3.1,0,0,0-3.51.05,2.93,2.93,0,0,0-1,3.34,22.09,22.09,0,0,0,1.68,4.65c2.25,4.78,4.32,9.64,6.76,14.33.56,1.09.8,2-.65,2.76-2,1-4,2.21-6,3.39-5,3-10.07,5.88-13.63,10.71-.62.84-1.58.61-2.43.47a68.5,68.5,0,0,1-9.37-2.3,48.2,48.2,0,0,0-20.65-2.08,5.72,5.72,0,0,0-2,.5c-.37.2-.81.38-.66.9s.64.46,1,.42c1.41-.13,2.82-.34,4.23-.43A49.57,49.57,0,0,1,103,269.78a74.73,74.73,0,0,0,9.24,2.31,4.09,4.09,0,0,0,4.37-1.39c3.63-4.37,8.45-7.24,13.27-10.13,2.09-1.25,4.28-2.31,6.35-3.59a2.6,2.6,0,0,0,1.21-3.25,25.24,25.24,0,0,0-2.32-5.14c-2.1-4.4-4.16-8.81-6-13.32a12.27,12.27,0,0,1-.35-1.18c-.21-.73-.41-1.48.4-2s1.43,0,2,.42a11.18,11.18,0,0,1,3.2,3.55c2.93,5.68,6.57,10.95,9.4,16.69a6.76,6.76,0,0,1-.12,6.57,38.81,38.81,0,0,1-3.46,4.95c-3.83,5.11-7.22,10.5-10.72,15.82A17.58,17.58,0,0,1,120.71,286.7Zm9.5-4.63c4.43-6.76,8.77-13.42,13.57-19.78,1.79-2.36,3-4.92,2.34-8a5.31,5.31,0,0,0-.37-1.17c-2.92-6.41-7-12.19-10.27-18.4a1.37,1.37,0,0,1,.06-1.77,1.23,1.23,0,0,1,1.74-.18,10.73,10.73,0,0,1,1.89,1.37c5.84,5.53,11.75,11,17.28,16.84a14.92,14.92,0,0,1,1.69,2.66,1.55,1.55,0,0,1-.1,1.56,94.46,94.46,0,0,1-7.38,13c-2.07,3.23-3.91,6.62-6.67,9.36a25.79,25.79,0,0,1-4.78,3.68A10,10,0,0,1,130.21,282.07Zm28.11-9.48c-2.63,3.48-6.52,4.46-11,3.91,2.9-4.4,5.65-8.5,8.11-12.79,1.53-2.66,3-5.37,4.47-8a2.32,2.32,0,0,0,0-2.36,3.74,3.74,0,0,1-.3-2.58A100.12,100.12,0,0,1,162.47,237c1.26-3.93,2.55-7.87,4.11-11.69.95-2.3,3-3.78,5.22-4.9,1.3-.65,1.73-.32,1.74,1.12a43.74,43.74,0,0,1-1.2,8.29c-1.4,7.4-2.59,14.83-4.19,22.19A52.58,52.58,0,0,1,158.32,272.59Zm23.94-8.92c-6.08,2.36-12.49,3.58-18.72,5.44a7.73,7.73,0,0,1-.95.09,48.19,48.19,0,0,0,6-12.31c.17-.57.51-.58,1-.64,4.18-.47,8.37-.9,12.5-1.78a7.26,7.26,0,0,0,4.58-3,22.81,22.81,0,0,0,1.44-2.18c1.82-3.18,4.72-5.16,7.77-7a64.4,64.4,0,0,1,10.82-5.43,7.07,7.07,0,0,1,3.27-.51,3.83,3.83,0,0,1-1.21,2.28c-4.56,5.18-8.78,10.65-13,16.09C192.2,259.25,187.38,261.68,182.26,263.67Z"/><path class="cls-2" d="M152.29,94.2c-.77-9.27-1.55-18.54-2.08-27.82a9.32,9.32,0,0,0-4.64-8c-4.49-2.88-8.95-5.81-13.46-8.65-2.31-1.45-4.08-2.19-6.94-1.1-5.22,2-10.68,3.35-15.94,5.27L102,56.63c1.67-2.54,2.53-4.86,2-7.51-.27-1.37-1.11-1.74-2.19-.87a12.23,12.23,0,0,0-3.32,4.13c-.79,1.64-1.53,3.3-2.35,5.07C95.05,54.34,93,52,91,49.67A1.59,1.59,0,0,0,89.36,49a1.33,1.33,0,0,0-.93,1.32c-.48,4.64.14,9,3.86,12.27.58.51.73.8.35,1.51-3.35,6.27-5.62,13-8.42,19.53-1.34,3.1-2.7,6.19-4.26,9.75-.17-1.68-.26-2.81-.42-3.93-.46-3.14-2.53-5.45-4.2-8-.42-.62-.8-1.42-1.7-1.16s-.85,1.21-.86,2a74,74,0,0,0,.65,8.59A29.35,29.35,0,0,0,66.3,85c-.72-.41-1.43-1.11-2.33-.35s-.15,1.58.23,2.26c1.16,2.1,2.4,4.16,3.64,6.28l-5.05-1c-.65-.12-1.27-.12-1.62.57a1.33,1.33,0,0,0,.41,1.56c1.15,1.29,2.3,2.57,3.49,3.82a9.25,9.25,0,0,0,10.5,2.58c.45-.16,1-.38,1.29,0s-.12.85-.27,1.25c-1.33,3.53-2.63,7.08-4,10.57a9,9,0,0,0-.25,6.45C78.4,138,84.35,157.11,90.91,176c2.93,8.42,5.8,16.87,9.29,25.08.91,2.15,1.74,2.48,3.93,1.56a2.28,2.28,0,0,1,2.21.17,6.52,6.52,0,0,0,7.57-.58c2.36-1.84,4.64-3.79,5.53-6.83.08-.28.11-.54.41-.7,2.65-1.37,5.23-2.9,8-4.05a2.83,2.83,0,0,0,2-2.22,252.63,252.63,0,0,1,7.39-28.18c5.59-17.76,9.91-35.9,16-53.52a5.35,5.35,0,0,0,.41-3A61.3,61.3,0,0,1,152.29,94.2ZM121.75,52.08c-4.55,3.51-8.49,7-12.47,10.41a1,1,0,0,1-1.22.3,66.06,66.06,0,0,0-8.67-2.71A197.25,197.25,0,0,1,121.75,52.08Zm.44,70.84c0-.15,0-.3.12-.78a63.58,63.58,0,0,1,3,9.35c.31,1.27,1.19,2.67.89,3.75s-2.18,1.17-3.33,1.75c-2.85,1.43-5.81,2.64-8.86,4a73,73,0,0,0,1-9.85c0-.34,0-.54.52-.62C120.48,129.72,122,128,122.19,122.92Zm-6.26,5.51c.54-1.79,1.72-3.13,4.06-4.6C119.81,126.61,118.94,127.59,115.93,128.43Zm4.7-8.31c-1.84,1.81-4.09,3.17-5.86,5.69A81,81,0,0,0,107,98c-.21-.44-.39-.67.22-1,3.61-2.23,4.58-5.39,2.77-9.22-.46-1-.61-2.51-1.94-2.59s-1.51,1.52-2,2.46a15.85,15.85,0,0,0-1.68,5c-1.51-3.11-3.57-5.3-2.15-9,2.08-5.36,4.08-10.76,6.28-16.35,3,12.49,5.92,24.73,8.93,36.93,1.15,4.66,2.51,9.27,3.81,13.89A1.63,1.63,0,0,1,120.63,120.12ZM106.33,95a12.68,12.68,0,0,1,1.51-6.41C109.35,90.94,108.82,93.32,106.33,95ZM102,51.34c-.44,2.47-1.82,4.18-3.08,6.14A10.73,10.73,0,0,1,102,51.34ZM97.33,62.73c.23-.62.38-.8,1.06-.66a74.12,74.12,0,0,1,7.89,2.28c1,.33.62.85.39,1.45-2.25,5.9-4.82,11.69-6.71,18-1.77-3.94-3.45-7.49-3.82-11.5A21.64,21.64,0,0,1,97.33,62.73Zm-6.9-10.21a17.33,17.33,0,0,1,4.11,6.79c.22.6.45,1.32-.26,1.67s-1-.4-1.32-.79A10.33,10.33,0,0,1,90.43,52.52ZM65,94.8c4.56.92,4.56.92,8,4.1C70.33,99.72,67.78,98.44,65,94.8Zm3-5.89a35.27,35.27,0,0,1,8.33,9.23C72.27,96.27,70.08,92.64,68,88.91Zm7.26-3.49c2.63,2.92,2.47,6.46,2.22,10C75.4,92.42,75.34,88.92,75.27,85.42ZM94,66.18C92.89,73,95.28,79,98.13,84.93a4.55,4.55,0,0,1,.23,3.88c-2.82,7.66-6.22,15.11-8.68,22.91a1.08,1.08,0,0,1-1.27.83,65.7,65.7,0,0,0-14,1.1C80.27,97.38,87.37,81.9,94,66.18Zm-2,51.43a224.2,224.2,0,0,1,7.38,26C90.28,134.9,82.9,125.26,75,115.79a58.73,58.73,0,0,1,12.77-1.15C90.89,114.72,90.92,114.66,92,117.61Zm-17.33,1.33c3.84,5.13,8.47,9.56,12.37,14.59,3.61,4.66,7.9,8.65,12.06,12.77a3,3,0,0,1,1,2.53,225.31,225.31,0,0,0-.28,26.5c.32,7.19.76,14.37,1.06,21.58C90.85,171.37,83.12,145.05,74.64,118.94ZM98,129.44a133.8,133.8,0,0,0-5.6-16.56,3.48,3.48,0,0,1,.07-2.76c2.27-6.84,5.29-13.39,7.87-20.42a104.34,104.34,0,0,1,8,17.65,17.68,17.68,0,0,0-8.07-3.52c-.7-.14-1.37-.41-1.87.29s-.06,1.2.32,1.72c1,1.44,2,3,3.16,4.29,1.85,2.15,4.4,2.76,7.12,2.85.57,0,1.19-.27,1.45.72a58.32,58.32,0,0,1,2,20.81c-1.38-2.46-3.49-4.18-5.45-6.06-.55-.52-1-1-1.78-.56s-.46,1.1-.3,1.69c.74,2.69,1.19,5.47,2.5,8,.94,1.77,2,3.46,4.2,4.33-2.79,1.29-5.42,2.53-8.07,3.73-.75.34-1.25.37-1.52-.76C100.78,139.7,99.46,134.55,98,129.44Zm10.32-18.68a7.34,7.34,0,0,1-6.42-4.28A10.82,10.82,0,0,1,108.31,110.76Zm3.56,28.71c-2.39-1.65-3.21-4.16-3.8-6.8A12.21,12.21,0,0,1,111.87,139.47Zm-1,5.11c-.78,4.1-1.51,8-2.32,12.21-1.74-3.08-3.33-5.92-5-8.88A56.07,56.07,0,0,0,110.87,144.58Zm-7.13,36.87c-.67,3.45-.51,7-.77,10.44-1-13.8-1.82-27.59-.79-41.56a3.43,3.43,0,0,1,1.13,1.49,45.82,45.82,0,0,0,2.85,5.09,7.58,7.58,0,0,1,1.15,6.71C106,169.54,104.9,175.5,103.74,181.45Zm3.67,19.35c1.58-.77,3-1.5,4.54-2.21s2.94-1.39,4.61-2.17C114.2,199.94,110.3,203.06,107.41,200.8ZM120.52,192c-4.71,2.37-9.46,4.66-14.17,7-.92.46-1.06.15-1.09-.7a123.2,123.2,0,0,1,.29-14.12c.06-.78.12-1.14,1.13-1.14,4.48,0,6.8-2.09,7.65-6.53.17-.9.44-1.79.57-2.69.09-.54.28-1.14-.34-1.57s-1.12-.11-1.6.18a34.94,34.94,0,0,0-6.12,4.49l2.76-14.3c5.63,8.95,10.4,18,16.71,26.17C124.39,189.85,122.49,191,120.52,192Zm-14-11.11c1.41-2.42,3.52-3.87,5.77-5.49C112.39,178.62,110.26,181,106.47,180.86Zm20.91,5.29c-4.28-5.19-7.58-10.9-11-16.5-1.83-3-3.61-6-5.44-9a2.69,2.69,0,0,1-.49-2.07c1-4.66,1.85-9.33,2.73-14a1.58,1.58,0,0,1,1-1.39c3.77-1.62,7.51-3.33,11.24-5,.49-.22.66-.05.9.4a3.64,3.64,0,0,1,.43,2c-.12,7.47-.34,14.93-.06,22.39s.75,14.91.7,22.38Zm-8.85-85.85q-4.09-17.44-8.29-34.87a1.1,1.1,0,0,1,.41-1.3c5.43-4.78,11-9.39,16.89-13.62a1.23,1.23,0,0,1,1.55-.13c5.61,3.56,11.36,6.91,16.71,10.88a2.28,2.28,0,0,1,.95,3.11c-4,11.11-5.82,22.8-8.65,34.23-1.72,6.93-4.06,13.69-5.93,20.58-1.1,4.08-2.27,8.15-3.41,12.22a3.83,3.83,0,0,1-.76,1.79C124.84,122.15,121.13,111.38,118.53,100.3Zm10.91,79.05c-.24-6.93-.46-13.59-.7-20.25-.24-6.37.12-12.74.12-19.11a5.79,5.79,0,0,1,1.23-3.63c6.32-8.31,12.57-16.68,18.85-25a2.8,2.8,0,0,1,.43-.36Zm21.35-74.12-19.13,25.45a2.26,2.26,0,0,1-.35.34l-.43-.13c6.84-20.73,11.69-42,16.63-63.21l.6.11c.33,4.09.71,8.18,1,12.28.53,7.72,1,15.44,2.15,23.1A2.47,2.47,0,0,1,150.79,105.23Z"/><path class="cls-3" d="M186.14,78.36a1.22,1.22,0,0,0,.14-1.58,22.6,22.6,0,0,0-1.54-2.47c-.62-.87-1-1.62.12-2.42a1.27,1.27,0,0,0,.47-1.54,1.12,1.12,0,0,0-1.47-.57c-1.42.43-2.07-.31-2.61-1.44a3.48,3.48,0,0,0-1-1.19,1.39,1.39,0,0,0-2.37.59,3.89,3.89,0,0,0-.4,1.48,1.65,1.65,0,0,1-1.71,1.86c-.69,0-1.39.26-1.49,1.14s.5,1.24,1.13,1.54a1.14,1.14,0,0,1,.67,1.63c-.44,1.41-.71,2.87-1,4.23-.07.71.1,1.24.72,1.49s.93-.16,1.28-.58A28.3,28.3,0,0,0,179.33,78c.89-1.37,1.82-1.39,3.07-.56a17.52,17.52,0,0,0,2.31,1.11A1.18,1.18,0,0,0,186.14,78.36Z"/><path class="cls-3" d="M63,58.88c.59-1-.19-1.6-.8-2.2-1-1-1.85-2-.59-3.42a1.51,1.51,0,0,0,.09-2.19c-.73-.65-1.52-.2-2.22.21s-1.18.92-1.89,0a1.7,1.7,0,0,0-2-.71,1.84,1.84,0,0,0-1,2c0,.94-.17,1.58-1.23,1.63a.91.91,0,0,0-.93.85,1,1,0,0,0,.69,1.24c1.33.36,1.16,1.32,1,2.37.18.74-.56,1.91.74,2.29a1.69,1.69,0,0,0,2.09-1.09c.57-1.53,1.49-1.54,2.72-.9a8,8,0,0,0,1,.26C61.47,59.54,62.38,59.79,63,58.88Z"/><path class="cls-3" d="M128.08,29.7c1.21.2,1.13.94.91,1.76a12.36,12.36,0,0,1-.59,1.41c-.21.51-.27,1,.24,1.39a1.11,1.11,0,0,0,1.55-.22,13,13,0,0,0,1.37-1.76,1.51,1.51,0,0,1,2.28-.58,5.56,5.56,0,0,0,2.37.93c1.2,0,1.68-.65,1.2-1.77a5.79,5.79,0,0,0-.81-1.3c-.68-.85-1.25-1.61,0-2.51a1.05,1.05,0,0,0,.2-1.54,1.12,1.12,0,0,0-1.53-.32,1.45,1.45,0,0,1-2-.39c-1.3-1.35-2.55-1-3.06.74-.29,1-.71,1.55-1.81,1.62a1.43,1.43,0,0,0-1.51,1.16C126.74,29.19,127.42,29.6,128.08,29.7Z"/><path class="cls-3" d="M170.28,108.85a1.4,1.4,0,0,0-1.43,1.59,1.5,1.5,0,0,0,1.7,1.57,1.39,1.39,0,0,0,1.37-1.58A1.48,1.48,0,0,0,170.28,108.85Z"/><path class="cls-3" d="M100.17,34.62a1.54,1.54,0,0,0,1.59-1.48,1.49,1.49,0,0,0-1.54-1.53,1.42,1.42,0,0,0-1.55,1.49A1.39,1.39,0,0,0,100.17,34.62Z"/><path class="cls-3" d="M40.7,129.11c-1,0-1.5.56-1.42,1.5a1.61,1.61,0,0,0,3.19-.1A1.57,1.57,0,0,0,40.7,129.11Z"/><path class="cls-3" d="M78.19,35.05a1.42,1.42,0,0,0,1.56-1.43,1.41,1.41,0,0,0-1.57-1.48,1.46,1.46,0,1,0,0,2.91Z"/><path class="cls-3" d="M139.26,44.65a1.38,1.38,0,0,0,1.63-1.36c.07-1-.51-1.44-1.47-1.54a1.36,1.36,0,0,0-1.51,1.45A1.31,1.31,0,0,0,139.26,44.65Z"/><path class="cls-3" d="M165.39,123.14a1.38,1.38,0,0,0-1.5,1.52c0,.88.37,1.46,1.31,1.42s1.35-.74,1.48-1.58C166.58,123.7,166.24,123.11,165.39,123.14Z"/><path class="cls-3" d="M162.05,68.11a1.35,1.35,0,0,0-1.48,1.5c0,.92.66,1.39,1.63,1.41a1.36,1.36,0,0,0,1.36-1.41A1.41,1.41,0,0,0,162.05,68.11Z"/><path class="cls-3" d="M77.17,56.26a1.45,1.45,0,0,0,1.56-1.55,1.49,1.49,0,0,0-3,.13A1.32,1.32,0,0,0,77.17,56.26Z"/><path class="cls-3" d="M74.66,75.07a1.32,1.32,0,0,0,1.52-1.44c0-.87-.59-1.31-1.44-1.39a1.36,1.36,0,0,0-1.44,1.39A1.29,1.29,0,0,0,74.66,75.07Z"/><path class="cls-3" d="M36.09,81.91a1.29,1.29,0,0,0-1.36,1.44,1.34,1.34,0,0,0,1.55,1.44,1.3,1.3,0,0,0,1.38-1.45A1.4,1.4,0,0,0,36.09,81.91Z"/><path class="cls-3" d="M70.12,137.13a1.35,1.35,0,0,0-1.52,1.45A1.22,1.22,0,0,0,69.93,140c.95,0,1.47-.47,1.55-1.5A1.31,1.31,0,0,0,70.12,137.13Z"/><path class="cls-3" d="M58.34,116.35A1.28,1.28,0,0,0,57,117.74c0,.86.56,1.3,1.41,1.4.81-.13,1.37-.54,1.35-1.43A1.23,1.23,0,0,0,58.34,116.35Z"/><path class="cls-3" d="M58.11,150.18a1.23,1.23,0,0,0-1.32,1.42A1.27,1.27,0,0,0,58.2,153c.9,0,1.26-.63,1.37-1.46C59.42,150.69,59,150.16,58.11,150.18Z"/><path class="cls-3" d="M44.76,98.72c-.86.1-1.36.55-1.31,1.44a1.19,1.19,0,0,0,1.36,1.2,1.23,1.23,0,0,0,1.33-1.25C46.17,99.22,45.63,98.79,44.76,98.72Z"/><path class="cls-3" d="M149.33,148.54a1.18,1.18,0,0,0-1.3,1.27,1.23,1.23,0,0,0,1.39,1.36c.83,0,1.18-.58,1.24-1.4A1.26,1.26,0,0,0,149.33,148.54Z"/><path class="cls-3" d="M30,112.72a1.2,1.2,0,0,0,1.44-1.29c0-.82-.46-1.24-1.35-1.3a1.2,1.2,0,0,0-1.26,1.22A1.16,1.16,0,0,0,30,112.72Z"/><path class="cls-3" d="M177.48,97.06a1.17,1.17,0,0,0-1.38,1.18,1.13,1.13,0,0,0,1.26,1.29,1.12,1.12,0,0,0,1.19-1.14C178.53,97.63,178.27,97.12,177.48,97.06Z"/><path class="cls-3" d="M160.83,88.14a1.09,1.09,0,0,0-1.31,1,1.13,1.13,0,0,0,1.17,1.35c.73,0,1.14-.39,1.26-1.17A1.19,1.19,0,0,0,160.83,88.14Z"/><path class="cls-3" d="M169.05,151.31a1.1,1.1,0,0,0-1.13,1.06,1.05,1.05,0,0,0,1.11,1.21,1,1,0,0,0,1.12-1C170.21,151.8,169.73,151.44,169.05,151.31Z"/></g></svg>