<svg width="311" height="452" viewBox="0 0 311 452" fill="none" xmlns="http://www.w3.org/2000/svg">
<path d="M308.753 367.345C309.519 366.478 310.097 365.406 310.556 364.352C311.798 361.494 310.352 359.317 307.239 359.317C305.606 359.317 303.956 359.572 302.425 360.15C293.478 363.416 285.314 368.179 277.336 373.333C272.93 376.174 269.988 380.256 267.317 384.576C265.344 387.791 262.792 389.918 258.914 390.632C252.723 391.755 246.429 392.282 240.237 393.354C238.383 393.677 239.115 392.469 239.302 391.67C242.874 376.055 245.204 360.184 248.3 344.484C248.844 341.729 249.151 338.922 248.98 336.115C248.742 332.441 246.412 330.74 243.095 332.118C237.992 334.244 233.638 337.595 231.511 342.766C228.824 349.332 226.664 356.136 224.486 362.906C222.122 370.203 220.982 377.773 219.655 385.257C210.691 376.548 201.778 367.907 192.729 359.113C194.379 358.296 195.859 357.616 197.305 356.833C205.877 352.173 214.774 348.056 222.649 342.171C226.595 339.211 229.708 335.639 231.852 331.199C232.702 329.43 232.583 327.661 231.443 326.148C230.338 324.668 228.637 324.94 227.106 325.331C225.677 325.688 224.299 326.284 222.904 326.811C216.679 329.141 210.589 331.846 204.228 333.751C189.922 338.02 175.141 339.96 160.325 341.49C149.337 342.63 138.263 342.97 127.394 345.165C112.051 348.277 98.0859 354.469 85.7878 364.165C80.906 368.009 76.4834 372.431 71.8227 376.531C69.8155 378.3 67.6553 379.303 64.7806 378.164C62.0931 377.109 59.2014 376.616 56.4458 375.731C49.5228 373.52 42.2425 372.21 36.0339 368.23C33.5335 366.614 31.7134 367.294 29.7743 368.774C28.8558 369.472 28.0563 370.356 27.2909 371.224C23.0384 375.986 20.538 381.651 18.7009 387.706C16.2685 395.735 14.2443 403.798 13.7 412.201C13.4448 416.181 15.0948 419.209 18.4968 420.824C21.0823 422.049 23.5657 423.512 26.1852 424.652C36.3061 429.04 46.5631 433.106 57.1772 436.201C62.8245 437.851 68.5058 439.552 74.4082 439.263C87.1486 438.651 99.4467 441.1 111.694 444.077C124.145 447.105 136.664 449.928 149.456 451.102C152.398 451.374 155.545 451.902 158.233 450.558C162.196 448.568 166.125 446.424 169.459 443.414C170.276 442.682 170.854 442.529 171.909 442.92C175.175 444.128 178.526 444.468 182.013 443.822C188.732 442.58 193.664 438.43 198.393 433.973C199.244 433.174 199.805 432.884 200.979 433.191C207.868 435.028 213.889 432.833 219.451 428.887C222.241 426.914 224.01 424.022 225.915 421.267C226.136 420.944 226.136 419.991 226.936 420.552C228.228 421.471 229.504 420.91 230.746 420.552C241.53 417.423 252.621 415.279 263.065 411.078C271.587 407.642 279.632 403.525 285.586 396.075C293.257 386.465 300.673 376.65 308.821 367.431L308.753 367.345ZM156.277 447.904C152.569 449.35 148.401 448.108 144.455 447.632C131.374 446.067 118.651 442.767 105.859 439.774C95.6876 437.392 85.4816 435.98 75.0036 436.389C69.8155 436.593 64.7636 435.385 59.7967 433.939C47.5326 430.35 35.5577 425.995 24.11 420.28C22.0859 419.277 20.1297 418.137 18.2246 416.929C16.5576 415.875 16.4386 414.089 16.5236 412.32C16.9489 404.07 19.0071 396.143 21.4225 388.285C23.1235 382.773 25.4198 377.653 29.196 373.214C31.8665 370.067 32.649 369.761 36.2721 371.666C43.6203 375.51 51.7681 377.041 59.5756 379.61C60.6132 379.95 61.7699 380.018 62.7394 380.477C67.7573 382.841 71.5505 380.8 75.1226 377.364C79.8514 372.84 84.6481 368.4 89.9212 364.522C102.509 355.285 116.61 349.655 131.97 347.155C143.689 345.25 155.579 345.097 167.333 343.549C181.077 341.729 194.872 340.011 208.055 335.418C214.399 333.207 220.642 330.723 226.936 328.359C227.65 328.087 228.45 327.508 229.096 328.189C229.844 328.971 229.164 329.771 228.807 330.553C226.17 336.285 221.356 339.943 216.219 343.072C208.599 347.716 200.723 351.883 192.746 355.898C191.079 356.731 189.82 357.037 188.493 355.439C187.915 354.741 187.048 354.248 186.231 353.789C182.965 351.918 180.312 352.615 178.441 355.83C177.233 354.741 176.161 353.516 174.681 352.734C172.64 351.645 170.65 351.458 168.728 352.836C166.755 354.248 166.517 356.289 167.01 358.5C167.622 361.256 168.677 363.858 169.885 366.41C173.712 374.541 177.233 382.807 181.383 390.785C182.336 392.639 182.744 394.238 180.278 395.48C176.791 397.249 173.423 399.239 170.072 401.246C161.567 406.332 152.943 411.248 146.887 419.447C145.833 420.876 144.183 420.484 142.754 420.263C137.328 419.413 132.038 417.95 126.816 416.334C115.334 412.813 103.682 411.214 91.6902 412.813C90.5336 412.966 89.3599 413.102 88.3053 413.663C87.6759 414.004 86.9275 414.31 87.1826 415.177C87.4378 416.062 88.2712 415.96 88.9687 415.892C91.3671 415.671 93.7654 415.296 96.1638 415.16C106.421 414.548 116.389 416.079 126.186 419.106C131.34 420.705 136.562 422.1 141.886 423.019C144.761 423.512 147.159 423.274 149.337 420.654C155.511 413.221 163.71 408.339 171.892 403.44C175.447 401.314 179.172 399.511 182.71 397.317C185.142 395.803 185.262 394 184.768 391.789C184.054 388.625 182.183 385.937 180.805 383.046C177.233 375.561 173.729 368.06 170.582 360.388C170.327 359.742 170.174 359.045 169.987 358.381C169.629 357.14 169.289 355.864 170.667 355.03C171.977 354.248 173.116 354.945 174.103 355.745C176.246 357.446 178.287 359.351 179.546 361.783C184.53 371.445 190.722 380.426 195.535 390.19C197.458 394.085 197.287 397.674 195.331 401.365C193.715 404.427 191.487 407.047 189.446 409.785C182.931 418.46 177.182 427.645 171.211 436.695C167.537 442.274 162.179 445.591 156.294 447.87L156.277 447.904ZM172.436 440.029C179.971 428.53 187.354 417.184 195.518 406.383C198.563 402.352 200.655 397.997 199.499 392.707C199.346 392.01 199.176 391.346 198.869 390.717C193.903 379.814 186.997 369.982 181.4 359.402C180.703 358.092 180.754 357.327 181.485 356.391C182.319 355.353 183.458 355.49 184.462 356.085C185.585 356.765 186.707 357.514 187.66 358.415C197.594 367.822 207.646 377.109 217.07 387.043C218.346 388.387 219.009 390.054 219.945 391.585C220.54 392.554 220.166 393.388 219.792 394.238C216.356 402.046 211.848 409.241 207.238 416.402C203.7 421.896 200.57 427.662 195.876 432.323C193.426 434.756 190.671 436.797 187.745 438.566C182.863 441.525 178.27 441.9 172.436 440.012V440.029ZM220.251 423.903C215.794 429.823 209.16 431.49 201.489 430.571C206.422 423.087 211.1 416.113 215.284 408.816C217.886 404.291 220.353 399.681 222.887 395.123C223.653 393.762 223.517 392.401 222.819 391.108C222.071 389.696 222.02 388.353 222.309 386.72C223.67 378.861 224.895 370.986 227.327 363.382C229.47 356.697 231.647 349.978 234.318 343.498C235.917 339.585 239.438 337.068 243.197 335.163C245.391 334.057 246.14 334.601 246.157 337.068C246.174 341.865 245 346.508 244.116 351.169C241.734 363.756 239.727 376.395 237.006 388.914C234.182 401.927 228.177 413.442 220.268 423.92L220.251 423.903ZM260.972 408.73C250.647 412.745 239.727 414.82 229.13 417.984C228.773 418.086 228.365 418.052 227.514 418.137C231.971 411.384 235.373 404.563 237.652 397.215C237.958 396.245 238.519 396.228 239.37 396.126C246.48 395.327 253.607 394.595 260.615 393.081C263.949 392.367 266.484 390.683 268.423 387.978C269.29 386.771 270.124 385.546 270.855 384.27C273.951 378.844 278.884 375.476 284.072 372.38C289.991 368.859 295.979 365.508 302.493 363.144C304.28 362.498 306.049 362.055 308.056 362.277C307.937 363.926 306.95 365.066 305.998 366.155C298.224 374.966 291.063 384.27 283.851 393.524C277.88 401.195 269.664 405.329 260.955 408.713L260.972 408.73Z" fill="#DEC6A7"/>
<path d="M212.034 136.794C210.742 131.47 210.299 126.01 209.84 120.583C208.53 104.815 207.204 89.0471 206.302 73.2619C205.945 67.1384 203.564 62.988 198.41 59.6711C190.772 54.7722 183.203 49.7883 175.514 44.9575C171.585 42.4741 168.574 41.2324 163.709 43.0864C154.847 46.4714 145.56 48.7847 136.613 52.0676C132.683 53.5135 128.788 54.9934 124.212 56.6943C127.07 52.3738 128.516 48.4275 127.631 43.9199C127.172 41.5896 125.743 40.9602 123.889 42.4401C121.508 44.3622 119.603 46.7095 118.242 49.4651C116.881 52.2377 115.639 55.0784 114.245 58.0891C112.476 52.7991 108.921 48.8868 105.553 44.8555C104.838 44.005 103.988 43.3416 102.78 43.6308C101.623 43.9029 101.3 44.9745 101.198 45.8931C100.365 53.7856 101.419 61.1339 107.764 66.7472C108.751 67.6147 109.006 68.108 108.359 69.3157C102.661 79.9808 98.7997 91.4625 94.037 102.536C91.7576 107.809 89.4443 113.065 86.8078 119.121C86.5016 116.263 86.3655 114.341 86.0764 112.436C85.2939 107.095 81.7899 103.148 78.9322 98.8788C78.2348 97.8242 77.5714 96.4464 76.0405 96.8886C74.3566 97.3819 74.5947 98.9468 74.5777 100.342C74.5266 105.036 75.122 109.697 75.6833 114.953C71.8391 110.718 67.9778 107.452 63.5553 104.917C62.3306 104.22 61.1229 103.012 59.592 104.305C57.891 105.734 59.3368 107.01 59.9662 108.149C61.9393 111.721 64.0656 115.208 66.1748 118.831C63.096 118.236 60.3404 117.709 57.5848 117.181C56.4792 116.977 55.4076 116.96 54.8122 118.151C54.2849 119.206 54.8632 120.056 55.5096 120.805C57.4658 122.999 59.4219 125.176 61.4461 127.302C66.447 132.575 72.4174 134.106 79.3064 131.691C80.0889 131.419 80.9734 131.044 81.5007 131.64C82.079 132.286 81.2966 133.069 81.0414 133.766C78.7791 139.771 76.5678 145.792 74.1694 151.745C72.6896 155.42 72.5025 158.89 73.7442 162.717C84.1372 195.121 94.2581 227.627 105.417 259.775C110.383 274.097 115.282 288.471 121.219 302.453C122.767 306.11 124.178 306.654 127.904 305.106L133.5 301.96C136.187 300.65 138.688 299.408 141.222 298.2C143.723 297.01 146.223 295.836 149.064 294.509L154.66 291.635C159.168 289.304 163.539 286.702 168.2 284.746C170.207 283.895 171.211 282.824 171.568 280.969C174.698 264.708 179.154 248.787 184.121 233.036C193.647 202.826 200.995 171.97 211.303 141.999C211.864 140.366 212.46 138.682 212.017 136.845L212.034 136.794ZM157.909 48.9548C150.17 54.9083 143.468 60.8107 136.698 66.6451C136.085 67.1724 135.541 67.5296 134.623 67.1724C130.03 65.3694 125.318 63.8725 119.875 62.5627C132.462 57.2216 144.641 52.8161 157.926 48.9548H157.909ZM124.229 47.6791C123.481 51.8976 121.134 54.7892 118.99 58.1232C119.127 54.9934 121.423 50.4177 124.229 47.6791ZM116.371 67.0533C116.762 65.9987 117.017 65.6926 118.174 65.9307C122.733 66.9173 127.172 68.3121 131.595 69.8089C131.918 69.928 132.139 70.0471 132.309 70.1832L134.112 70.7275L135.184 74.8779L135.235 74.7248C140.372 95.9701 145.322 116.79 150.442 137.559C152.398 145.486 154.711 153.31 156.922 161.186C157.331 162.615 157.399 163.329 156.004 164.673C152.874 167.735 149.03 170.048 146.036 174.335C144.369 157.223 139.896 141.71 132.751 126.962C132.394 126.214 132.088 125.822 133.126 125.193C139.283 121.4 140.916 116.025 137.854 109.527C137.072 107.86 136.817 105.24 134.554 105.104C132.105 104.951 132.003 107.707 131.101 109.289C129.775 111.636 128.924 114.239 128.261 117.777L120.862 102.944C117.868 96.2593 114.993 90.2038 114.381 83.3998C113.87 77.8036 114.432 72.3604 116.405 67.0704L116.371 67.0533ZM158.674 169.436C158.674 169.181 158.743 168.908 158.879 168.109C161.124 173.586 162.621 178.757 163.896 184.013C164.424 186.173 165.938 188.555 165.41 190.392C164.849 192.365 161.702 192.399 159.746 193.369C154.898 195.801 149.88 197.859 144.692 200.173C145.56 194.457 146.257 188.963 146.342 183.401C146.342 182.84 146.342 182.499 147.227 182.346C155.783 180.968 158.3 178.094 158.708 169.419L158.674 169.436ZM148.026 178.808C148.945 175.746 150.952 173.484 154.932 170.984C154.609 175.712 153.146 177.379 148.026 178.808ZM131.68 121.978C131.391 117.896 132.683 114.494 134.265 111.075C136.817 115.038 135.915 119.087 131.68 121.978ZM104.651 49.6863C108.223 53.1903 110.111 57.1026 111.625 61.236C111.999 62.2566 112.408 63.4813 111.183 64.0766C110.094 64.6039 109.516 63.3962 108.938 62.7328C105.774 59.1438 104.413 54.9083 104.651 49.6863ZM61.412 121.604C66.583 122.647 71.119 124.972 75.0199 128.578C70.4613 129.973 66.1238 127.779 61.412 121.604ZM66.532 111.568C72.2984 115.855 76.772 121.315 80.7012 127.268C73.7612 124.087 70.0531 117.913 66.532 111.568ZM78.8642 105.632C83.3378 110.599 83.0656 116.62 82.6574 122.659C79.1023 117.522 79.0002 111.568 78.8642 105.632ZM110.741 72.9047C108.853 84.5565 112.901 94.7794 117.749 104.798C118.837 107.061 119.024 109.017 118.157 111.398C113.343 124.428 107.56 137.1 103.392 150.368C103.035 151.524 102.338 151.831 101.215 151.779C93.3906 151.422 85.6341 152.29 77.4524 153.668C87.3691 125.993 99.4461 99.6613 110.741 72.9217V72.9047ZM107.288 160.369C112.34 174.59 116.354 189.099 119.841 204.561C104.396 189.797 91.8427 173.399 78.3879 157.291C85.9063 155.845 92.9653 155.147 100.109 155.335C105.451 155.471 105.502 155.369 107.288 160.369ZM77.8096 162.632C84.3413 171.358 92.2339 178.893 98.8508 187.449C104.991 195.376 112.289 202.163 119.365 209.171C120.657 210.447 121.253 211.671 121.117 213.491C119.994 228.511 119.977 243.531 120.64 258.567C121.185 270.798 121.916 283.011 122.443 295.275C105.383 251.832 92.2339 207.079 77.8096 162.649V162.632ZM127.308 268.943C126.169 274.829 126.441 280.799 125.999 286.719C124.383 263.245 122.886 239.789 124.655 216.026L124.893 215.583V207.861C124.706 207.606 124.536 207.232 124.417 206.704C122.256 197.927 120.028 189.167 117.511 180.475C114.755 170.95 111.965 161.407 107.985 152.307C107.22 150.555 107.577 149.211 108.104 147.612C111.965 135.994 117.102 124.853 121.491 112.878C126.866 122.778 131.799 132.405 135.184 142.9C131.118 139.549 126.441 137.916 121.457 136.913C120.249 136.675 119.11 136.215 118.276 137.406C117.511 138.478 118.174 139.447 118.803 140.332C120.572 142.781 122.205 145.367 124.178 147.646C127.342 151.286 131.663 152.341 136.306 152.494C137.276 152.528 138.314 152.018 138.756 153.702C141.801 165.285 143.332 176.988 142.141 189.099C139.794 184.915 136.187 181.989 132.853 178.808C131.918 177.924 131.084 177.158 129.826 177.856C128.601 178.536 129.043 179.71 129.315 180.73C130.574 185.306 131.323 190.052 133.568 194.304C135.15 197.315 136.919 200.19 140.695 201.669C140.457 201.788 140.219 201.891 139.981 202.01L139.385 206.262H139.402C138.076 213.236 136.834 219.802 135.456 227.031L133.347 238.649C131.118 248.719 129.247 258.857 127.274 268.977L127.308 268.943ZM135.082 148.718C129.877 148.412 126.543 145.843 124.161 141.437C128.788 142.475 132.173 144.942 135.082 148.718ZM141.137 197.536C137.072 194.729 135.677 190.46 134.674 185.969C138.297 188.997 140.032 193.079 141.137 197.536ZM167.52 276.955L165.7 281.446C162.434 283.249 159.202 285.154 155.851 286.855C147.839 290.886 139.777 294.781 131.765 298.813C130.183 299.612 129.945 299.068 129.894 297.622C129.588 289.61 129.775 281.616 130.404 273.621C130.506 272.294 130.608 271.682 132.326 271.665C139.947 271.614 143.893 268.11 145.339 260.558C145.628 259.027 146.087 257.513 146.325 255.982C146.461 255.08 146.802 254.043 145.73 253.328C144.709 252.631 143.825 253.124 143.008 253.635C139.521 255.744 136.102 257.972 132.598 261.255C134.214 252.869 135.694 245.232 137.293 236.931L138.688 230.127C140.287 222.2 141.818 214.274 143.315 206.33C143.536 205.19 143.893 204.493 145.084 203.983C151.496 201.21 157.841 198.318 164.203 195.444C165.036 195.07 165.308 195.359 165.734 196.107C166.346 197.196 166.465 198.267 166.448 199.458C166.261 212.148 165.87 224.837 166.346 237.543C166.805 250.233 167.639 262.905 167.554 275.611C167.554 276.071 167.554 276.53 167.554 276.972L167.52 276.955ZM131.935 267.94C134.333 263.823 137.922 261.357 141.75 258.601C142.005 264.13 138.382 268.11 131.935 267.94ZM152.449 130.908C147.805 111.126 143.127 91.3434 138.365 71.595C138.093 70.4893 138.331 70.0131 139.045 69.4007C148.281 61.27 157.773 53.4284 167.775 46.2333C168.693 45.5699 169.442 45.3998 170.411 46.0121C179.954 52.0676 189.734 57.7489 198.852 64.5019C200.876 65.9987 201.352 67.3085 200.468 69.7919C193.596 88.6899 190.568 108.591 185.754 128.017C182.828 139.805 178.848 151.303 175.684 163.023C173.796 169.963 171.823 176.886 169.884 183.826C169.595 184.83 169.459 185.884 168.574 186.854C163.199 168.075 156.888 149.755 152.466 130.908H152.449ZM171.007 265.371C170.598 253.584 170.224 242.255 169.816 230.926C169.425 220.091 170.02 209.256 170.037 198.421C170.037 196.107 170.666 194.168 172.129 192.246C182.88 178.094 193.511 163.874 204.176 149.67C204.346 149.449 204.618 149.296 204.907 149.058C193.647 187.704 182.403 226.266 171.007 265.371ZM207.323 139.294C196.47 153.719 185.635 168.16 174.783 182.584C174.613 182.805 174.375 182.976 174.17 183.163L173.439 182.942C185.074 147.68 193.324 111.534 201.726 75.4222L202.747 75.6093C203.308 82.5663 203.955 89.5404 204.431 96.4974C205.333 109.629 206.132 122.761 208.088 135.79C208.292 137.151 208.139 138.206 207.323 139.294Z" fill="#DEC6A7"/>
<path d="M134.13 70.7275L132.31 70.2002L135.185 74.8949L134.13 70.7275Z" fill="#DEC6A7"/>
<path d="M267.589 93.5207C268.423 92.7042 268.321 91.7177 267.827 90.8332C267.028 89.3873 266.16 87.9755 265.208 86.6317C264.153 85.1519 263.49 83.8761 265.412 82.5153C266.228 81.937 266.62 80.9164 266.194 79.8958C265.735 78.7902 264.612 78.6371 263.694 78.9263C261.278 79.6577 260.173 78.3989 259.254 76.4768C258.897 75.7114 258.302 74.963 257.621 74.4527C255.937 73.1769 254.509 73.5852 253.607 75.4732C253.233 76.2557 252.944 77.1402 252.91 77.9907C252.859 79.9638 252.025 80.9844 250.001 81.1545C248.827 81.2566 247.654 81.5968 247.466 83.1107C247.296 84.5735 248.317 85.2199 249.389 85.7302C250.664 86.3426 250.97 87.091 250.528 88.5028C249.78 90.9012 249.32 93.3846 248.776 95.698C248.657 96.9057 248.946 97.8242 250.001 98.2324C251.004 98.6407 251.583 97.9603 252.178 97.2459C253.42 95.766 254.951 94.4903 255.988 92.8914C257.502 90.561 259.084 90.544 261.21 91.9558C262.418 92.7553 263.83 93.2316 265.14 93.8439C266.007 94.2521 266.841 94.2862 267.572 93.5717L267.589 93.5207Z" fill="#DEC6A7"/>
<path d="M58.028 60.3854C59.0315 58.7695 57.7048 57.6469 56.6842 56.6433C54.9322 54.9253 53.5374 53.3264 55.6806 50.8259C56.4971 49.8734 57.1435 48.2744 55.8337 47.1007C54.592 45.9951 53.2482 46.7605 52.0575 47.4579C50.9689 48.1043 50.0503 49.0229 48.8256 47.543C48.0262 46.5564 46.8695 45.791 45.4747 46.3183C43.9778 46.8966 43.6546 48.3255 43.6887 49.7203C43.7397 51.3022 43.3995 52.3908 41.5964 52.4929C40.6779 52.5439 40.1506 53.0372 40.0145 53.9217C39.8614 54.9253 40.2867 55.7928 41.1882 56.0309C43.4505 56.6433 43.1784 58.2762 42.9572 60.0623C43.2634 61.321 42.0047 63.3111 44.1989 63.9405C45.7468 64.3828 47.2097 63.6003 47.771 62.0864C48.7406 59.4839 50.3055 59.4669 52.3977 60.5555C52.891 60.8107 53.5374 60.8107 54.0817 60.9978C55.5275 61.4911 57.0754 61.9163 58.028 60.3684V60.3854Z" fill="#DEC6A7"/>
<path d="M168.83 10.7507C170.888 11.0738 170.752 12.3496 170.378 13.7444C170.157 14.5779 169.698 15.3433 169.357 16.1428C169 17.0103 168.898 17.9118 169.783 18.4901C170.701 19.1195 171.688 18.9324 172.419 18.1159C173.27 17.1804 174.069 16.1938 174.749 15.1222C175.77 13.5403 176.91 13.2681 178.611 14.1356C179.886 14.782 181.128 15.6495 182.642 15.7005C184.683 15.7686 185.5 14.5949 184.683 12.6898C184.343 11.8903 183.833 11.1589 183.305 10.4785C182.166 9.03265 181.196 7.73991 183.305 6.20902C184.071 5.64769 184.428 4.55906 183.646 3.5895C182.948 2.72199 182.064 2.50087 181.043 3.04518C179.699 3.77661 178.764 3.60651 177.59 2.3818C175.396 0.0854649 173.253 0.629781 172.385 3.64053C171.892 5.37553 171.177 6.26005 169.306 6.37912C168.167 6.44716 166.925 6.94044 166.738 8.35226C166.551 9.83212 167.707 10.5295 168.83 10.7166V10.7507Z" fill="#DEC6A7"/>
<path d="M240.612 145.384C239.013 145.435 238.111 146.523 238.179 148.088C238.247 149.755 239.183 150.759 241.071 150.759C242.619 150.606 243.469 149.636 243.418 148.071C243.35 146.387 242.364 145.316 240.629 145.384H240.612Z" fill="#DEC6A7"/>
<path d="M121.338 19.1195C122.937 19.1535 123.787 18.1329 124.043 16.602C123.906 14.9691 122.937 14.0335 121.423 14.0165C119.875 13.9825 118.821 14.918 118.786 16.534C118.752 18.1499 119.739 19.0855 121.338 19.1195Z" fill="#DEC6A7"/>
<path d="M20.1803 179.846C18.5304 179.897 17.6289 180.798 17.7649 182.414C17.884 184.013 18.9726 184.762 20.5375 184.728C22.1024 184.694 23.072 183.945 23.1911 182.244C22.8849 180.611 21.8983 179.795 20.1803 179.846Z" fill="#DEC6A7"/>
<path d="M83.9506 19.851C85.6006 19.8169 86.4511 18.9664 86.6042 17.4185C86.5021 15.6665 85.5325 14.8841 83.9336 14.9011C82.3177 14.9011 81.2801 15.7686 81.2971 17.4015C81.3311 18.9664 82.2666 19.902 83.9506 19.868V19.851Z" fill="#DEC6A7"/>
<path d="M187.847 36.1803C189.412 36.2653 190.501 35.5339 190.62 33.8669C190.739 32.183 189.752 31.4005 188.119 31.2304C186.52 31.2304 185.585 32.0979 185.551 33.6968C185.517 35.1597 186.35 36.0952 187.847 36.1633V36.1803Z" fill="#DEC6A7"/>
<path d="M232.277 169.691C230.712 169.742 229.725 170.575 229.725 172.259C229.725 173.756 230.371 174.76 231.97 174.692C233.637 174.624 234.25 173.433 234.471 172.004C234.301 170.643 233.722 169.64 232.277 169.691Z" fill="#DEC6A7"/>
<path d="M226.596 76.0856C224.963 76.0856 224.044 77.0892 224.095 78.6371C224.146 80.202 225.218 81.0014 226.851 81.0354C228.263 80.8994 229.164 80.0319 229.164 78.6371C229.164 77.1062 228.195 76.1026 226.596 76.1026V76.0856Z" fill="#DEC6A7"/>
<path d="M82.2161 55.9288C83.7299 55.9288 84.7845 55.1124 84.8696 53.2923C84.8016 51.8805 83.815 51.115 82.4542 51.047C80.9063 50.979 79.8177 51.8295 79.8347 53.4964C79.8687 54.9423 80.7362 55.9288 82.199 55.9118L82.2161 55.9288Z" fill="#DEC6A7"/>
<path d="M77.9457 87.9244C79.5787 87.9754 80.5652 87.1079 80.5312 85.475C80.4972 83.9951 79.5106 83.2467 78.0818 83.1106C76.6189 83.2467 75.6664 84.0121 75.6324 85.492C75.5983 86.9378 76.4148 87.8904 77.9457 87.9244Z" fill="#DEC6A7"/>
<path d="M12.3556 99.5593C10.8757 99.6103 10.0252 100.461 10.0422 102.009C10.0763 103.71 11.0628 104.526 12.6618 104.458C14.1416 104.407 14.9921 103.574 15.0091 101.992C14.856 100.393 13.9885 99.4912 12.3386 99.5593H12.3556Z" fill="#DEC6A7"/>
<path d="M70.2243 193.488C68.6254 193.454 67.6728 194.338 67.6388 195.954C67.6048 197.434 68.3702 198.336 69.9181 198.353C71.534 198.37 72.4186 197.553 72.5546 195.784C72.4696 194.423 71.7211 193.522 70.2413 193.488H70.2243Z" fill="#DEC6A7"/>
<path d="M50.1857 158.141C48.6889 158.175 47.8384 159.043 47.8384 160.505C47.8384 161.985 48.7909 162.717 50.2368 162.904C51.6146 162.683 52.5501 161.985 52.5331 160.454C52.4991 158.975 51.6996 158.124 50.1857 158.141Z" fill="#DEC6A7"/>
<path d="M49.7947 215.685C48.2298 215.719 47.4983 216.638 47.5494 218.101C47.6004 219.564 48.4339 220.448 49.9478 220.414C51.4957 220.38 52.091 219.343 52.2781 217.931C52.04 216.553 51.3256 215.651 49.7947 215.685Z" fill="#DEC6A7"/>
<path d="M27.1041 128.153C25.6412 128.323 24.7737 129.088 24.8588 130.602C24.9438 131.997 25.8453 132.66 27.1721 132.626C28.4989 132.592 29.3834 131.861 29.4344 130.517C29.4854 129.003 28.5669 128.272 27.087 128.153H27.1041Z" fill="#DEC6A7"/>
<path d="M204.976 212.896C203.581 212.828 202.816 213.712 202.764 215.056C202.696 216.621 203.7 217.369 205.129 217.369C206.541 217.369 207.136 216.383 207.238 214.988C207.119 213.678 206.269 212.964 204.976 212.896Z" fill="#DEC6A7"/>
<path d="M1.9971 151.967C3.49397 152.069 4.4125 151.32 4.42951 149.772C4.46353 148.377 3.66407 147.663 2.15019 147.561C0.9595 147.646 0.0749865 148.241 0.00694708 149.653C-0.0781023 151.031 0.619302 151.881 2.01411 151.967H1.9971Z" fill="#DEC6A7"/>
<path d="M252.859 125.329C251.447 125.227 250.596 125.992 250.511 127.336C250.426 128.714 251.26 129.531 252.638 129.531C253.896 129.531 254.56 128.765 254.662 127.591C254.645 126.299 254.185 125.431 252.859 125.329Z" fill="#DEC6A7"/>
<path d="M224.537 110.156C223.312 110.037 222.445 110.667 222.309 111.891C222.156 113.269 222.955 114.086 224.299 114.171C225.541 114.256 226.238 113.524 226.442 112.18C226.357 111.075 225.762 110.275 224.537 110.156Z" fill="#DEC6A7"/>
<path d="M238.503 217.608C237.346 217.693 236.666 218.356 236.581 219.411C236.478 220.669 237.278 221.435 238.469 221.469C239.54 221.503 240.306 220.806 240.374 219.7C240.459 218.424 239.659 217.812 238.486 217.608H238.503Z" fill="#DEC6A7"/>
</svg>
