<svg width="83" height="83" viewBox="0 0 83 83" fill="none" xmlns="http://www.w3.org/2000/svg">
<path d="M39.7626 48.7345C39.7626 48.7345 31.4475 46.4576 24.8635 49.015C18.2796 51.5724 17 57.0055 17 57.0055C17 57.0055 21.982 60.7981 27.1382 59.9307C32.2943 59.0632 37.9773 55.2141 39.7626 48.7345Z" fill="#ACABAB"/>
<path d="M42.3829 48.7362C42.3829 48.7362 50.6981 46.4569 57.282 49.0143C63.866 51.5717 65.1456 57.0072 65.1456 57.0072C65.1456 57.0072 60.1635 60.7997 55.0074 59.9299C49.8513 59.0602 44.1683 55.2134 42.3829 48.7362Z" fill="#ACABAB"/>
<path d="M41.0304 49.6172C41.0304 49.6172 40.0895 57.1599 40.0895 59.2812C40.0895 61.4026 40.8516 61.4026 41.0092 61.4026C41.1668 61.4026 41.9713 61.4026 41.9713 59.3025C41.9713 57.2023 41.0304 49.6172 41.0304 49.6172Z" fill="#ACABAB"/>
<path d="M53.6008 20C53.6008 20 51.0134 21.8692 49.3456 23.0406C47.7814 24.139 43.0369 26.1426 41.0328 28.4431C39.024 26.1449 34.2842 24.1414 32.72 23.043C31.0499 21.8645 28.4648 20.0047 28.4648 20.0047C26.8676 20.8509 24.8494 29.7041 26.0184 34.588C27.1875 39.4719 35.1922 42.9156 37.4339 44.7682C39.1322 46.1684 41.0328 48.153 41.0328 48.153C41.0469 48.1389 42.9381 46.166 44.6294 44.7682C46.8734 42.9179 54.8757 39.4742 56.0448 34.5904C57.2139 29.7065 55.198 20.8603 53.6008 20ZM41.0046 45.8596C41.0046 45.8596 40.0848 38.3169 40.0848 36.1955C40.0848 34.0742 40.847 34.0742 41.0046 34.0742C41.1622 34.0742 41.9666 34.0742 41.9666 36.1767C41.9666 38.2792 41.0046 45.8596 41.0046 45.8596Z" fill="#ACABAB"/>
<path d="M34.9428 46.4924C34.9428 46.4924 27.8696 43.7677 26.0043 42.7706C24.1389 41.7736 24.4894 41.1018 24.5647 40.9604C24.64 40.819 25.0351 40.1118 26.8675 41.0947C28.6999 42.0776 34.9428 46.4924 34.9428 46.4924Z" fill="#ACABAB"/>
<path d="M47.1368 46.4527C47.1368 46.4527 54.3418 44.0956 56.2635 43.207C58.1853 42.3184 57.8631 41.6183 57.7972 41.4722C57.7313 41.326 57.3832 40.6024 55.4896 41.4863C53.5961 42.3702 47.1368 46.4527 47.1368 46.4527Z" fill="#ACABAB"/>
<path d="M41.3456 81.8574C63.6279 81.8574 81.6913 63.7569 81.6913 41.4287C81.6913 19.1006 63.6279 1 41.3456 1C19.0634 1 1 19.1006 1 41.4287C1 63.7569 19.0634 81.8574 41.3456 81.8574Z" stroke="#ACABAB" stroke-miterlimit="10"/>
</svg>
