<svg width="202" height="54" viewBox="0 0 202 54" fill="none" xmlns="http://www.w3.org/2000/svg">
<path d="M75.172 14.572H77.972V17.204H75.172V14.572ZM75.172 9.98H77.972V12.584H75.172V9.98ZM82.928 12.584H80.156V9.98H82.928V12.584ZM82.928 17.204H80.156V14.572H82.928V17.204ZM80.324 24.428H85.168V22.076H80.324V19.304H85.168V7.88H73.016V19.304H77.804V22.076H73.016V24.428H77.804V28.04C75.648 28.32 73.688 28.544 72.148 28.712L72.428 31.26C75.956 30.756 81.052 30.084 85.84 29.356L85.784 27.06C83.964 27.312 82.116 27.536 80.324 27.76V24.428ZM96.34 16.784L95.92 16.868H94.716L95.332 16.196C94.716 15.608 93.904 14.964 92.98 14.32C94.716 12.808 96.452 10.792 97.628 8.944L95.948 7.768L95.416 7.908H86.064V10.232H93.624C92.896 11.212 92 12.248 91.104 13.088C90.236 12.556 89.34 12.08 88.5 11.66L86.876 13.256C88.752 14.208 90.852 15.608 92.392 16.868H85.728V19.332H89.872V29.188C89.872 29.552 89.732 29.664 89.312 29.664C88.892 29.692 87.464 29.692 85.98 29.636C86.344 30.364 86.68 31.484 86.764 32.212C88.836 32.212 90.292 32.184 91.244 31.736C92.196 31.344 92.448 30.588 92.448 29.244V19.332H95.08C94.688 20.872 94.24 22.44 93.82 23.476L95.92 24.008C96.704 22.3 97.488 19.584 98.104 17.204L96.34 16.784ZM119.496 10.988H122.016V9.7H127.28V7.852H122.016V6.508H119.496V7.852H115.548V9.7H119.496V10.988ZM126.3 20.648H103.732V22.188H126.3V20.648ZM107.596 26.612H113.7V27.732H107.596V26.612ZM107.596 24.344H113.7V25.408H107.596V24.344ZM122.408 25.408H116.08V24.344H122.408V25.408ZM122.408 27.732H116.08V26.612H122.408V27.732ZM124.9 28.936V23.14H105.188V28.936H124.9ZM121.456 16.252H116.08V15.272H121.456V16.252ZM121.456 18.492H116.08V17.428H121.456V18.492ZM108.38 17.428H113.7V18.492H108.38V17.428ZM108.38 15.272H113.7V16.252H108.38V15.272ZM105.972 14.068V19.668H123.976V14.068H105.972ZM126.776 11.576H103.368V13.144H126.776V11.576ZM108.156 10.988H110.676V9.728H114.12V7.852H110.676V6.508H108.156V7.852H102.528V9.728H108.156V10.988ZM102.192 29.888V31.624H127.756V29.888H102.192ZM141.784 14.908H133.468V16.952H141.784V16.28C142.288 16.7 143.072 17.624 143.38 18.128C146.796 16.168 147.524 13.144 147.524 10.568V9.896H151.584V13.704C151.584 16.112 152.032 17.036 154.188 17.036H155.84C156.372 17.036 156.96 17.008 157.296 16.868C157.212 16.28 157.156 15.356 157.1 14.684C156.764 14.796 156.176 14.852 155.84 14.852H154.412C154.02 14.852 153.992 14.572 153.992 13.788V7.488H145.144V10.512C145.144 12.388 144.696 14.544 141.784 16.14V14.908ZM133.468 20.648H141.84V18.632H133.468V20.648ZM142.96 11.184H137.304L139.32 10.036C138.9 9.028 138.004 7.544 137.248 6.368L135.204 7.404C135.932 8.552 136.8 10.148 137.248 11.184H132.264V13.256H142.96V11.184ZM153.124 21.096C152.256 22.944 151.052 24.512 149.596 25.828C148.028 24.484 146.796 22.916 145.928 21.096H153.124ZM139.544 28.488H135.708V24.484H139.544V28.488ZM154.804 18.576L154.356 18.66H142.568V21.096H145.116L143.604 21.628C144.612 23.84 145.956 25.744 147.58 27.396C145.844 28.488 143.884 29.3 141.812 29.832V22.384H133.468V31.848H135.708V30.588H141.812V30.196C142.232 30.812 142.652 31.624 142.876 32.212C145.312 31.484 147.608 30.476 149.596 29.076C151.528 30.448 153.74 31.484 156.288 32.128C156.652 31.4 157.38 30.308 157.912 29.776C155.588 29.272 153.488 28.46 151.696 27.368C153.796 25.296 155.448 22.664 156.4 19.276L154.804 18.576ZM174.292 11.184H167.992L170.036 10.036C169.588 9.028 168.72 7.544 167.936 6.368L165.892 7.404C166.648 8.552 167.488 10.148 167.936 11.184H162.728V13.256H174.292V11.184ZM173.06 18.604H163.932V20.62H173.06V18.604ZM170.876 24.484V28.488H166.34V24.484H170.876ZM173.116 22.384H164.1V31.848H166.34V30.588H173.116V22.384ZM163.932 16.952H173.116V14.908H163.932V16.952ZM187.592 15.972H182.104V7.04H179.416V15.972H174.236V18.52H179.416V32.212H182.104V18.52H187.592V15.972Z" fill="white"/>
<path d="M79.565 45.84V48.765C78.815 49.215 77.93 49.485 77.15 49.485C75.005 49.485 73.31 47.85 73.31 45.75C73.31 43.665 74.99 42.03 77.135 42.03C78.23 42.03 79.355 42.48 80.165 43.23L81.17 41.925C80.135 41.025 78.635 40.455 77.135 40.455C73.955 40.455 71.51 42.75 71.51 45.75C71.51 48.75 73.925 51.075 77.03 51.075C78.47 51.075 80.045 50.52 81.11 49.71V45.84H79.565ZM85.4154 39.69C84.8454 39.69 84.4104 40.125 84.4104 40.74C84.4104 41.34 84.8454 41.775 85.4154 41.775C85.9854 41.775 86.4204 41.34 86.4204 40.74C86.4204 40.125 85.9854 39.69 85.4154 39.69ZM86.2704 51V43.02H84.5604V51H86.2704ZM94.538 42.96C93.188 42.96 92.168 43.44 91.598 44.55V43.02H89.873V51H91.598V46.755C91.718 45.51 92.543 44.595 93.863 44.58C95.063 44.58 95.783 45.315 95.783 46.515V51H97.508V46.035C97.508 44.13 96.398 42.96 94.538 42.96ZM108.069 43.02H106.359V44.31C105.804 43.44 104.889 42.945 103.659 42.96C101.544 42.975 100.119 44.505 100.119 46.755C100.119 49.05 101.559 50.61 103.719 50.61C104.919 50.61 105.819 50.13 106.359 49.26V50.265C106.359 51.645 105.369 52.53 103.854 52.53C102.879 52.53 102.099 52.215 101.349 51.66L100.614 52.905C101.589 53.565 102.684 53.955 103.929 53.955C106.434 53.955 108.069 52.515 108.069 50.22V43.02ZM104.064 49.26C102.684 49.26 101.754 48.24 101.739 46.8C101.754 45.375 102.699 44.355 104.064 44.355C105.414 44.355 106.359 45.36 106.359 46.8C106.359 48.24 105.414 49.26 104.064 49.26ZM114.799 42.96C112.429 42.975 110.764 44.61 110.764 47.025C110.764 49.425 112.384 51.06 114.844 51.06C116.224 51.06 117.364 50.565 118.144 49.71L117.229 48.735C116.644 49.335 115.849 49.665 114.979 49.665C113.719 49.665 112.774 48.9 112.504 47.67H118.534C118.744 44.79 117.604 42.96 114.799 42.96ZM112.474 46.41C112.669 45.135 113.554 44.34 114.814 44.34C116.119 44.34 116.974 45.12 117.034 46.41H112.474ZM123.107 43.02H121.382V51H123.107V46.83C123.242 45.465 124.262 44.52 125.867 44.61V42.96C124.607 42.96 123.647 43.53 123.107 44.61V43.02ZM133.358 40.5V51H137.618C140.798 51 143.093 48.78 143.093 45.75C143.093 42.705 140.813 40.5 137.663 40.5H133.358ZM135.128 42.09H137.633C139.703 42.09 141.308 43.62 141.308 45.765C141.308 47.895 139.748 49.41 137.708 49.41H135.128V42.09ZM149.219 42.96C146.849 42.975 145.184 44.61 145.184 47.025C145.184 49.425 146.804 51.06 149.264 51.06C150.644 51.06 151.784 50.565 152.564 49.71L151.649 48.735C151.064 49.335 150.269 49.665 149.399 49.665C148.139 49.665 147.194 48.9 146.924 47.67H152.954C153.164 44.79 152.024 42.96 149.219 42.96ZM146.894 46.41C147.089 45.135 147.974 44.34 149.234 44.34C150.539 44.34 151.394 45.12 151.454 46.41H146.894ZM158.187 42.945C156.657 42.945 155.247 43.635 155.247 45.255C155.232 48.135 159.432 47.22 159.432 48.855C159.432 49.455 158.862 49.71 158.127 49.71C157.257 49.71 156.147 49.335 155.457 48.72L154.842 49.95C155.637 50.67 156.882 51.06 158.052 51.06C159.657 51.06 161.112 50.325 161.112 48.69C161.127 45.795 156.882 46.59 156.882 45.12C156.882 44.55 157.377 44.325 158.052 44.325C158.757 44.325 159.642 44.595 160.347 45.03L160.977 43.755C160.257 43.245 159.192 42.945 158.187 42.945ZM164.753 39.69C164.183 39.69 163.748 40.125 163.748 40.74C163.748 41.34 164.183 41.775 164.753 41.775C165.323 41.775 165.758 41.34 165.758 40.74C165.758 40.125 165.323 39.69 164.753 39.69ZM165.608 51V43.02H163.898V51H165.608ZM176.411 43.02H174.701V44.31C174.146 43.44 173.231 42.945 172.001 42.96C169.886 42.975 168.461 44.505 168.461 46.755C168.461 49.05 169.901 50.61 172.061 50.61C173.261 50.61 174.161 50.13 174.701 49.26V50.265C174.701 51.645 173.711 52.53 172.196 52.53C171.221 52.53 170.441 52.215 169.691 51.66L168.956 52.905C169.931 53.565 171.026 53.955 172.271 53.955C174.776 53.955 176.411 52.515 176.411 50.22V43.02ZM172.406 49.26C171.026 49.26 170.096 48.24 170.081 46.8C170.096 45.375 171.041 44.355 172.406 44.355C173.756 44.355 174.701 45.36 174.701 46.8C174.701 48.24 173.756 49.26 172.406 49.26ZM184.52 42.96C183.17 42.96 182.15 43.44 181.58 44.55V43.02H179.855V51H181.58V46.755C181.7 45.51 182.525 44.595 183.845 44.58C185.045 44.58 185.765 45.315 185.765 46.515V51H187.49V46.035C187.49 44.13 186.38 42.96 184.52 42.96Z" fill="white"/>
<path d="M25.5306 39.5861C25.5306 39.5861 16.2043 37.0375 8.81976 39.9001C1.43522 42.7626 0 48.8438 0 48.8438C0 48.8438 5.58787 53.0888 11.371 52.1179C17.1541 51.1471 23.5282 46.8387 25.5306 39.5861Z" fill="#DEC6A7"/>
<path d="M28.4696 39.5919C28.4696 39.5919 37.7959 37.0407 45.1805 39.9032C52.565 42.7657 54.0002 48.8496 54.0002 48.8496C54.0002 48.8496 48.4124 53.0946 42.6293 52.1211C36.8462 51.1475 30.4721 46.8419 28.4696 39.5919Z" fill="#DEC6A7"/>
<path d="M26.9515 40.5762C26.9515 40.5762 25.8962 49.0187 25.8962 51.3931C25.8962 53.7676 26.751 53.7676 26.9278 53.7676C27.1045 53.7676 28.0068 53.7676 28.0068 51.4169C28.0068 49.0661 26.9515 40.5762 26.9515 40.5762Z" fill="#DEC6A7"/>
<path d="M41.0512 7.42578C41.0512 7.42578 38.1491 9.51794 36.2786 10.8292C34.5241 12.0586 29.2027 14.3011 26.9549 16.8761C24.7018 14.3038 19.3857 12.0612 17.6312 10.8318C15.7581 9.51266 12.8586 7.43106 12.8586 7.43106C11.0672 8.3782 8.80356 18.2876 10.1148 23.7541C11.426 29.2206 20.4041 33.0751 22.9183 35.1488C24.8232 36.7159 26.9549 38.9374 26.9549 38.9374C26.9707 38.9215 29.0919 36.7133 30.9888 35.1488C33.5058 33.0778 42.4812 29.2232 43.7924 23.7567C45.1036 18.2902 42.8426 8.38875 41.0512 7.42578ZM26.9233 36.3703C26.9233 36.3703 25.8917 27.9278 25.8917 25.5534C25.8917 23.1789 26.7465 23.1789 26.9233 23.1789C27.1 23.1789 28.0023 23.1789 28.0023 25.5323C28.0023 27.8856 26.9233 36.3703 26.9233 36.3703Z" fill="#DEC6A7"/>
<path d="M20.1245 37.0774C20.1245 37.0774 12.1912 34.0276 10.099 32.9116C8.00687 31.7956 8.39997 31.0437 8.4844 30.8854C8.56882 30.7271 9.01205 29.9356 11.0673 31.0358C13.1225 32.1359 20.1245 37.0774 20.1245 37.0774Z" fill="#DEC6A7"/>
<path d="M33.8015 37.0322C33.8015 37.0322 41.8826 34.3939 44.038 33.3993C46.1935 32.4047 45.8321 31.6211 45.7582 31.4575C45.6843 31.294 45.2938 30.484 43.17 31.4734C41.0462 32.4627 33.8015 37.0322 33.8015 37.0322Z" fill="#DEC6A7"/>
</svg>
