<svg width="206" height="53" viewBox="0 0 206 53" fill="none" xmlns="http://www.w3.org/2000/svg">
<path d="M79.172 13.572H81.972V16.204H79.172V13.572ZM79.172 8.98H81.972V11.584H79.172V8.98ZM86.928 11.584H84.156V8.98H86.928V11.584ZM86.928 16.204H84.156V13.572H86.928V16.204ZM84.324 23.428H89.168V21.076H84.324V18.304H89.168V6.88H77.016V18.304H81.804V21.076H77.016V23.428H81.804V27.04C79.648 27.32 77.688 27.544 76.148 27.712L76.428 30.26C79.956 29.756 85.052 29.084 89.84 28.356L89.784 26.06C87.964 26.312 86.116 26.536 84.324 26.76V23.428ZM100.34 15.784L99.92 15.868H98.716L99.332 15.196C98.716 14.608 97.904 13.964 96.98 13.32C98.716 11.808 100.452 9.792 101.628 7.944L99.948 6.768L99.416 6.908H90.064V9.232H97.624C96.896 10.212 96 11.248 95.104 12.088C94.236 11.556 93.34 11.08 92.5 10.66L90.876 12.256C92.752 13.208 94.852 14.608 96.392 15.868H89.728V18.332H93.872V28.188C93.872 28.552 93.732 28.664 93.312 28.664C92.892 28.692 91.464 28.692 89.98 28.636C90.344 29.364 90.68 30.484 90.764 31.212C92.836 31.212 94.292 31.184 95.244 30.736C96.196 30.344 96.448 29.588 96.448 28.244V18.332H99.08C98.688 19.872 98.24 21.44 97.82 22.476L99.92 23.008C100.704 21.3 101.488 18.584 102.104 16.204L100.34 15.784ZM123.496 9.988H126.016V8.7H131.28V6.852H126.016V5.508H123.496V6.852H119.548V8.7H123.496V9.988ZM130.3 19.648H107.732V21.188H130.3V19.648ZM111.596 25.612H117.7V26.732H111.596V25.612ZM111.596 23.344H117.7V24.408H111.596V23.344ZM126.408 24.408H120.08V23.344H126.408V24.408ZM126.408 26.732H120.08V25.612H126.408V26.732ZM128.9 27.936V22.14H109.188V27.936H128.9ZM125.456 15.252H120.08V14.272H125.456V15.252ZM125.456 17.492H120.08V16.428H125.456V17.492ZM112.38 16.428H117.7V17.492H112.38V16.428ZM112.38 14.272H117.7V15.252H112.38V14.272ZM109.972 13.068V18.668H127.976V13.068H109.972ZM130.776 10.576H107.368V12.144H130.776V10.576ZM112.156 9.988H114.676V8.728H118.12V6.852H114.676V5.508H112.156V6.852H106.528V8.728H112.156V9.988ZM106.192 28.888V30.624H131.756V28.888H106.192ZM145.784 13.908H137.468V15.952H145.784V15.28C146.288 15.7 147.072 16.624 147.38 17.128C150.796 15.168 151.524 12.144 151.524 9.568V8.896H155.584V12.704C155.584 15.112 156.032 16.036 158.188 16.036H159.84C160.372 16.036 160.96 16.008 161.296 15.868C161.212 15.28 161.156 14.356 161.1 13.684C160.764 13.796 160.176 13.852 159.84 13.852H158.412C158.02 13.852 157.992 13.572 157.992 12.788V6.488H149.144V9.512C149.144 11.388 148.696 13.544 145.784 15.14V13.908ZM137.468 19.648H145.84V17.632H137.468V19.648ZM146.96 10.184H141.304L143.32 9.036C142.9 8.028 142.004 6.544 141.248 5.368L139.204 6.404C139.932 7.552 140.8 9.148 141.248 10.184H136.264V12.256H146.96V10.184ZM157.124 20.096C156.256 21.944 155.052 23.512 153.596 24.828C152.028 23.484 150.796 21.916 149.928 20.096H157.124ZM143.544 27.488H139.708V23.484H143.544V27.488ZM158.804 17.576L158.356 17.66H146.568V20.096H149.116L147.604 20.628C148.612 22.84 149.956 24.744 151.58 26.396C149.844 27.488 147.884 28.3 145.812 28.832V21.384H137.468V30.848H139.708V29.588H145.812V29.196C146.232 29.812 146.652 30.624 146.876 31.212C149.312 30.484 151.608 29.476 153.596 28.076C155.528 29.448 157.74 30.484 160.288 31.128C160.652 30.4 161.38 29.308 161.912 28.776C159.588 28.272 157.488 27.46 155.696 26.368C157.796 24.296 159.448 21.664 160.4 18.276L158.804 17.576ZM178.292 10.184H171.992L174.036 9.036C173.588 8.028 172.72 6.544 171.936 5.368L169.892 6.404C170.648 7.552 171.488 9.148 171.936 10.184H166.728V12.256H178.292V10.184ZM177.06 17.604H167.932V19.62H177.06V17.604ZM174.876 23.484V27.488H170.34V23.484H174.876ZM177.116 21.384H168.1V30.848H170.34V29.588H177.116V21.384ZM167.932 15.952H177.116V13.908H167.932V15.952ZM191.592 14.972H186.104V6.04H183.416V14.972H178.236V17.52H183.416V31.212H186.104V17.52H191.592V14.972Z" fill="#12505C"/>
<path d="M83.565 44.84V47.765C82.815 48.215 81.93 48.485 81.15 48.485C79.005 48.485 77.31 46.85 77.31 44.75C77.31 42.665 78.99 41.03 81.135 41.03C82.23 41.03 83.355 41.48 84.165 42.23L85.17 40.925C84.135 40.025 82.635 39.455 81.135 39.455C77.955 39.455 75.51 41.75 75.51 44.75C75.51 47.75 77.925 50.075 81.03 50.075C82.47 50.075 84.045 49.52 85.11 48.71V44.84H83.565ZM89.4154 38.69C88.8454 38.69 88.4104 39.125 88.4104 39.74C88.4104 40.34 88.8454 40.775 89.4154 40.775C89.9854 40.775 90.4204 40.34 90.4204 39.74C90.4204 39.125 89.9854 38.69 89.4154 38.69ZM90.2704 50V42.02H88.5604V50H90.2704ZM98.538 41.96C97.188 41.96 96.168 42.44 95.598 43.55V42.02H93.873V50H95.598V45.755C95.718 44.51 96.543 43.595 97.863 43.58C99.063 43.58 99.783 44.315 99.783 45.515V50H101.508V45.035C101.508 43.13 100.398 41.96 98.538 41.96ZM112.069 42.02H110.359V43.31C109.804 42.44 108.889 41.945 107.659 41.96C105.544 41.975 104.119 43.505 104.119 45.755C104.119 48.05 105.559 49.61 107.719 49.61C108.919 49.61 109.819 49.13 110.359 48.26V49.265C110.359 50.645 109.369 51.53 107.854 51.53C106.879 51.53 106.099 51.215 105.349 50.66L104.614 51.905C105.589 52.565 106.684 52.955 107.929 52.955C110.434 52.955 112.069 51.515 112.069 49.22V42.02ZM108.064 48.26C106.684 48.26 105.754 47.24 105.739 45.8C105.754 44.375 106.699 43.355 108.064 43.355C109.414 43.355 110.359 44.36 110.359 45.8C110.359 47.24 109.414 48.26 108.064 48.26ZM118.799 41.96C116.429 41.975 114.764 43.61 114.764 46.025C114.764 48.425 116.384 50.06 118.844 50.06C120.224 50.06 121.364 49.565 122.144 48.71L121.229 47.735C120.644 48.335 119.849 48.665 118.979 48.665C117.719 48.665 116.774 47.9 116.504 46.67H122.534C122.744 43.79 121.604 41.96 118.799 41.96ZM116.474 45.41C116.669 44.135 117.554 43.34 118.814 43.34C120.119 43.34 120.974 44.12 121.034 45.41H116.474ZM127.107 42.02H125.382V50H127.107V45.83C127.242 44.465 128.262 43.52 129.867 43.61V41.96C128.607 41.96 127.647 42.53 127.107 43.61V42.02ZM137.358 39.5V50H141.618C144.798 50 147.093 47.78 147.093 44.75C147.093 41.705 144.813 39.5 141.663 39.5H137.358ZM139.128 41.09H141.633C143.703 41.09 145.308 42.62 145.308 44.765C145.308 46.895 143.748 48.41 141.708 48.41H139.128V41.09ZM153.219 41.96C150.849 41.975 149.184 43.61 149.184 46.025C149.184 48.425 150.804 50.06 153.264 50.06C154.644 50.06 155.784 49.565 156.564 48.71L155.649 47.735C155.064 48.335 154.269 48.665 153.399 48.665C152.139 48.665 151.194 47.9 150.924 46.67H156.954C157.164 43.79 156.024 41.96 153.219 41.96ZM150.894 45.41C151.089 44.135 151.974 43.34 153.234 43.34C154.539 43.34 155.394 44.12 155.454 45.41H150.894ZM162.187 41.945C160.657 41.945 159.247 42.635 159.247 44.255C159.232 47.135 163.432 46.22 163.432 47.855C163.432 48.455 162.862 48.71 162.127 48.71C161.257 48.71 160.147 48.335 159.457 47.72L158.842 48.95C159.637 49.67 160.882 50.06 162.052 50.06C163.657 50.06 165.112 49.325 165.112 47.69C165.127 44.795 160.882 45.59 160.882 44.12C160.882 43.55 161.377 43.325 162.052 43.325C162.757 43.325 163.642 43.595 164.347 44.03L164.977 42.755C164.257 42.245 163.192 41.945 162.187 41.945ZM168.753 38.69C168.183 38.69 167.748 39.125 167.748 39.74C167.748 40.34 168.183 40.775 168.753 40.775C169.323 40.775 169.758 40.34 169.758 39.74C169.758 39.125 169.323 38.69 168.753 38.69ZM169.608 50V42.02H167.898V50H169.608ZM180.411 42.02H178.701V43.31C178.146 42.44 177.231 41.945 176.001 41.96C173.886 41.975 172.461 43.505 172.461 45.755C172.461 48.05 173.901 49.61 176.061 49.61C177.261 49.61 178.161 49.13 178.701 48.26V49.265C178.701 50.645 177.711 51.53 176.196 51.53C175.221 51.53 174.441 51.215 173.691 50.66L172.956 51.905C173.931 52.565 175.026 52.955 176.271 52.955C178.776 52.955 180.411 51.515 180.411 49.22V42.02ZM176.406 48.26C175.026 48.26 174.096 47.24 174.081 45.8C174.096 44.375 175.041 43.355 176.406 43.355C177.756 43.355 178.701 44.36 178.701 45.8C178.701 47.24 177.756 48.26 176.406 48.26ZM188.52 41.96C187.17 41.96 186.15 42.44 185.58 43.55V42.02H183.855V50H185.58V45.755C185.7 44.51 186.525 43.595 187.845 43.58C189.045 43.58 189.765 44.315 189.765 45.515V50H191.49V45.035C191.49 43.13 190.38 41.96 188.52 41.96Z" fill="#12505C"/>
<path d="M29.5306 38.5861C29.5306 38.5861 20.2043 36.0375 12.8198 38.9001C5.43522 41.7626 4 47.8438 4 47.8438C4 47.8438 9.58787 52.0888 15.371 51.1179C21.1541 50.1471 27.5282 45.8387 29.5306 38.5861Z" fill="#316C7A"/>
<path d="M32.4696 38.5919C32.4696 38.5919 41.7959 36.0407 49.1805 38.9032C56.565 41.7657 58.0002 47.8496 58.0002 47.8496C58.0002 47.8496 52.4124 52.0946 46.6293 51.1211C40.8462 50.1475 34.4721 45.8419 32.4696 38.5919Z" fill="#316C7A"/>
<path d="M30.9515 39.5762C30.9515 39.5762 29.8962 48.0187 29.8962 50.3931C29.8962 52.7676 30.751 52.7676 30.9278 52.7676C31.1045 52.7676 32.0068 52.7676 32.0068 50.4169C32.0068 48.0661 30.9515 39.5762 30.9515 39.5762Z" fill="#316C7A"/>
<path d="M45.0512 6.42578C45.0512 6.42578 42.1491 8.51794 40.2786 9.82916C38.5241 11.0586 33.2027 13.3011 30.9549 15.8761C28.7018 13.3038 23.3857 11.0612 21.6312 9.8318C19.7581 8.51266 16.8586 6.43106 16.8586 6.43106C15.0672 7.3782 12.8036 17.2876 14.1148 22.7541C15.426 28.2206 24.4041 32.0751 26.9183 34.1488C28.8232 35.7159 30.9549 37.9374 30.9549 37.9374C30.9707 37.9215 33.0919 35.7133 34.9888 34.1488C37.5058 32.0778 46.4812 28.2232 47.7924 22.7567C49.1036 17.2902 46.8426 7.38875 45.0512 6.42578ZM30.9233 35.3703C30.9233 35.3703 29.8917 26.9278 29.8917 24.5534C29.8917 22.1789 30.7465 22.1789 30.9233 22.1789C31.1 22.1789 32.0023 22.1789 32.0023 24.5323C32.0023 26.8856 30.9233 35.3703 30.9233 35.3703Z" fill="#316C7A"/>
<path d="M24.1245 36.0765C24.1245 36.0765 16.1912 33.0266 14.099 31.9106C12.0069 30.7946 12.4 30.0427 12.4844 29.8844C12.5688 29.7261 13.0121 28.9346 15.0673 30.0348C17.1225 31.135 24.1245 36.0765 24.1245 36.0765Z" fill="#316C7A"/>
<path d="M37.8015 36.0322C37.8015 36.0322 45.8826 33.3939 48.038 32.3993C50.1935 31.4047 49.8321 30.6211 49.7582 30.4575C49.6843 30.294 49.2938 29.484 47.17 30.4734C45.0462 31.4627 37.8015 36.0322 37.8015 36.0322Z" fill="#316C7A"/>
</svg>
