<svg width="83" height="83" viewBox="0 0 83 83" fill="none" xmlns="http://www.w3.org/2000/svg">
<path d="M39.7626 47.7325C39.7626 47.7325 31.4475 45.4556 24.8635 48.013C18.2796 50.5705 17 56.0036 17 56.0036C17 56.0036 21.982 59.7961 27.1382 58.9287C32.2943 58.0613 37.9773 54.2122 39.7626 47.7325Z" fill="#DEC6A7"/>
<path d="M42.3829 47.7381C42.3829 47.7381 50.6981 45.4588 57.282 48.0162C63.866 50.5737 65.1456 56.0091 65.1456 56.0091C65.1456 56.0091 60.1635 59.8017 55.0074 58.9319C49.8513 58.0621 44.1683 54.2154 42.3829 47.7381Z" fill="#DEC6A7"/>
<path d="M41.0304 48.6172C41.0304 48.6172 40.0895 56.1599 40.0895 58.2812C40.0895 60.4026 40.8516 60.4026 41.0092 60.4026C41.1668 60.4026 41.9713 60.4026 41.9713 58.3025C41.9713 56.2023 41.0304 48.6172 41.0304 48.6172Z" fill="#DEC6A7"/>
<path d="M53.6008 19C53.6008 19 51.0134 20.8692 49.3456 22.0406C47.7814 23.139 43.0369 25.1426 41.0328 27.4431C39.024 25.1449 34.2842 23.1414 32.72 22.043C31.0499 20.8645 28.4648 19.0047 28.4648 19.0047C26.8676 19.8509 24.8494 28.7041 26.0184 33.588C27.1875 38.4719 35.1922 41.9156 37.4339 43.7682C39.1322 45.1684 41.0328 47.153 41.0328 47.153C41.0469 47.1389 42.9381 45.166 44.6294 43.7682C46.8734 41.9179 54.8757 38.4742 56.0448 33.5904C57.2139 28.7065 55.198 19.8603 53.6008 19ZM41.0046 44.8596C41.0046 44.8596 40.0848 37.3169 40.0848 35.1955C40.0848 33.0742 40.847 33.0742 41.0046 33.0742C41.1622 33.0742 41.9666 33.0742 41.9666 35.1767C41.9666 37.2792 41.0046 44.8596 41.0046 44.8596Z" fill="#DEC6A7"/>
<path d="M34.9428 45.4924C34.9428 45.4924 27.8696 42.7677 26.0043 41.7706C24.1389 40.7736 24.4894 40.1018 24.5647 39.9604C24.64 39.819 25.0351 39.1118 26.8675 40.0947C28.6999 41.0776 34.9428 45.4924 34.9428 45.4924Z" fill="#DEC6A7"/>
<path d="M47.1368 45.4508C47.1368 45.4508 54.3418 43.0937 56.2635 42.205C58.1853 41.3164 57.8631 40.6164 57.7972 40.4702C57.7313 40.3241 57.3832 39.6005 55.4896 40.4844C53.5961 41.3683 47.1368 45.4508 47.1368 45.4508Z" fill="#DEC6A7"/>
<path d="M41.3456 81.8574C63.6279 81.8574 81.6913 63.7569 81.6913 41.4287C81.6913 19.1006 63.6279 1 41.3456 1C19.0634 1 1 19.1006 1 41.4287C1 63.7569 19.0634 81.8574 41.3456 81.8574Z" stroke="#DEC6A7" stroke-miterlimit="10"/>
</svg>
