<svg width="28" height="24" viewBox="0 0 28 24" fill="none" xmlns="http://www.w3.org/2000/svg">
<path d="M10.2722 0C4.97042 2.46809 0 8.34043 0 15.9149C0 20.5957 2.89941 24 6.46154 24C10.1893 24 12.0947 21.1064 12.0947 18.4681C12.0947 15.4043 10.0237 13.0213 6.95858 13.0213C6.04734 13.0213 5.1361 13.2766 4.63906 13.7021C4.63906 9.95745 7.53846 5.53191 12.0118 3.23405L10.2722 0ZM26.1775 0C20.8757 2.46809 15.8225 8.34043 15.8225 15.9149C15.8225 20.5957 18.8047 24 22.3669 24C26.0947 24 28 21.1064 28 18.4681C28 15.4043 25.929 13.0213 22.7811 13.0213C21.8698 13.0213 21.0414 13.2766 20.5444 13.7021C20.5444 9.95745 23.4438 5.53191 27.9172 3.23405L26.1775 0Z" fill="#DEC6A7"/>
</svg>
