<svg width="272" height="289" viewBox="0 0 272 289" fill="none" xmlns="http://www.w3.org/2000/svg">
<g clip-path="url(#clip0_3774_6272)">
<path d="M90.2329 251.466C90.6667 247.777 90.6667 243.872 89.7991 240.184C89.5822 239.316 89.3652 238.448 88.4976 238.665C87.4131 238.665 87.63 239.75 87.63 240.401C88.4976 251.032 86.7624 261.446 82.2074 271.21C80.2552 275.549 77.6523 279.238 73.9649 282.275C69.6268 285.53 64.8549 286.615 59.6491 286.615C53.142 286.615 46.8517 285.964 41.429 282.058C32.7528 275.983 25.5949 268.389 21.2568 258.626C13.2313 239.967 7.37482 220.874 5.20576 200.479C4.33813 194.621 3.90432 188.545 3.47051 182.687C2.38598 171.839 2.16908 161.208 3.0367 150.793C3.68742 141.681 5.42266 132.568 9.54388 124.323C11.496 120.418 13.882 116.946 17.7863 114.994C25.1611 111.522 32.7528 111.088 40.1276 114.994C50.1053 120.635 55.311 129.964 58.7815 140.379C59.2153 141.464 58.7815 143.416 60.5168 143.199C62.4689 142.765 61.3844 141.03 61.1675 139.945C59.866 134.521 57.2632 129.53 54.2265 124.974C47.7193 114.994 39.0431 108.485 26.2456 109.786C19.3046 110.437 13.2313 113.258 9.32697 119.55C4.12123 128.012 1.95217 137.558 0.86764 147.322C-0.867607 163.811 0.433828 180.084 2.16908 196.573C4.33813 217.402 9.76078 237.363 17.5694 256.673C22.1244 267.955 29.7161 276.634 39.26 283.794C45.7672 288.567 53.5758 289.218 61.6013 289.001C69.193 288.784 75.4833 285.747 80.0383 279.672C86.3286 271.21 89.3652 261.663 90.2329 251.466Z" fill="#DEC6A7"/>
<path d="M36.0063 222.825C37.9584 223.042 39.9106 223.476 42.0797 223.693C52.2742 224.995 62.6857 225.429 73.0972 225.212C80.2551 224.995 87.1961 223.91 93.9202 221.524C98.0414 220.005 102.163 218.92 106.284 218.486C116.478 217.184 126.89 216.75 137.084 215.449C145.11 214.581 153.135 213.713 160.727 210.892C161.812 210.458 163.113 210.024 163.764 209.156C166.367 206.119 169.403 203.298 171.139 199.827C171.573 198.959 172.223 198.959 172.874 199.176C175.911 199.176 178.947 198.742 181.767 197.223C187.19 194.186 190.226 189.413 193.046 184.205C193.48 183.554 193.697 182.903 194.781 182.687C203.241 181.819 209.748 176.611 212.134 168.367C212.351 167.282 212.785 166.414 213.002 165.329C213.002 165.112 212.785 164.244 213.652 164.461C215.171 165.112 216.255 164.027 217.34 163.159C225.582 157.518 234.258 152.745 242.067 146.236C247.49 141.463 252.912 136.69 255.949 129.747C257.684 125.624 259.202 121.285 260.721 117.163C263.974 108.918 267.228 100.89 270.482 92.6452C271.132 90.9095 271.783 88.9568 272 87.0041C272 85.7023 271.566 84.8344 270.265 84.6175C268.746 84.4005 267.011 84.8344 266.143 86.5702C265.493 87.872 265.493 89.3907 264.191 90.2586C255.298 95.6828 248.791 103.711 242.501 111.955C240.332 114.776 239.464 118.464 238.596 121.936C237.729 125.841 235.777 128.662 232.089 130.614C227.317 133.001 222.545 135.171 217.773 137.557C216.472 138.208 216.472 137.34 216.472 136.473C215.821 128.228 214.737 119.983 213.435 111.738C212.134 102.626 211.266 93.5131 209.314 84.4005C208.663 82.0139 208.23 79.8442 207.362 77.6745C206.928 76.8067 206.277 75.9388 205.193 75.9388C204.108 76.1558 203.458 76.8067 203.024 77.6745C202.373 79.1933 202.373 80.929 202.807 82.4478C203.241 83.7496 202.807 84.4005 201.939 85.4853C198.903 88.7398 196.3 92.2113 196.3 96.7676C196.083 103.06 195.649 109.352 195.866 115.861C196.083 122.804 196.951 129.747 198.035 136.473C187.84 131.482 177.863 126.709 167.668 121.502C172.006 117.596 175.694 113.257 179.815 109.135C186.973 101.758 192.612 93.5131 197.601 84.4005C198.252 83.3157 198.686 82.0139 198.903 80.7121C199.12 78.3254 197.818 75.7218 195.866 74.8539C193.914 73.9861 191.962 74.42 190.226 76.3727C189.359 77.2406 188.708 78.1085 188.057 78.9763C185.888 82.0139 183.936 85.2684 181.333 87.872C177.863 91.1265 174.175 94.164 170.488 96.7676C160.076 103.928 148.797 109.352 137.301 114.559C127.541 118.898 117.563 122.587 108.236 127.794C95.8723 134.737 85.8947 143.849 77.8691 155.566C74.8325 160.122 72.0127 165.112 69.4098 170.102C68.1084 172.272 66.59 173.791 63.7703 173.574C62.6857 173.357 61.3843 173.574 60.0829 173.791C51.8404 173.791 43.3811 174.876 35.1387 172.923C34.271 172.706 33.8372 172.923 32.9696 173.574C31.4513 174.876 30.5836 176.611 29.716 178.347C27.547 183.554 26.8962 189.196 27.1132 194.837C27.3301 202.431 27.7639 209.807 29.716 217.184C30.1498 220.222 32.5358 222.391 36.0063 222.825ZM217.99 139.727C224.064 136.907 230.354 134.303 235.994 130.831C237.512 129.964 238.596 128.662 239.464 126.926C239.898 125.624 240.549 124.539 240.765 123.238C241.85 117.163 244.887 112.172 248.791 107.833C253.129 103.06 257.467 98.0694 262.89 93.947C261.805 97.2015 260.721 100.022 259.853 102.843C259.202 104.578 258.769 106.531 259.636 108.267C260.504 110.003 260.287 111.738 259.419 113.474C257.684 117.163 256.6 120.851 255.298 124.756C252.478 133.435 246.622 139.51 239.681 144.934C231.872 151.226 222.979 156.217 214.737 161.858C214.52 162.075 214.303 162.075 213.869 162.075C213.435 161.424 213.869 160.773 214.086 160.122C215.604 154.264 216.472 148.189 216.255 142.114C216.472 140.812 216.906 140.378 217.99 139.727ZM198.252 112.172C198.252 107.399 198.686 102.409 198.686 97.6355C198.686 93.5131 201.072 90.4756 203.675 87.2211C204.325 90.2586 204.976 93.0792 205.844 95.6828C206.277 97.4185 206.928 99.1543 208.88 99.5882C209.531 99.8052 209.531 100.239 209.531 100.89C211.049 115.644 214.52 130.181 214.086 145.151C213.652 154.264 212.134 163.16 208.447 171.404C206.061 176.394 201.289 179.432 195.432 180.083C196.734 174.876 198.035 169.669 199.553 164.678C201.289 157.735 202.59 150.792 203.891 143.632C204.108 142.548 203.891 141.68 203.024 141.029C201.506 139.727 201.072 137.991 200.855 136.039C199.12 128.011 198.035 120.2 198.252 112.172ZM164.198 125.407C165.499 125.841 166.801 126.058 168.102 125.19C168.753 124.756 168.97 124.973 169.62 125.19C178.297 129.313 187.19 133.652 195.866 138.208C197.167 138.859 198.252 140.161 199.553 141.029C200.421 141.897 200.855 142.765 200.638 144.066C199.77 151.66 198.035 159.037 196.083 166.414C194.565 172.055 193.697 177.913 190.877 183.12C188.491 187.677 185.671 192.016 180.683 194.62C178.297 195.922 175.911 196.355 172.874 196.355C175.694 187.026 177.863 177.696 180.899 168.584C182.201 164.895 183.285 161.424 184.153 157.735C185.238 152.962 183.936 149.057 180.466 145.368C173.308 137.991 165.065 131.699 157.691 124.539C156.606 123.672 157.257 123.021 157.257 122.153C159.643 123.238 161.812 124.756 164.198 125.407ZM31.6682 178.998C32.9696 175.744 33.6203 175.093 37.0908 175.744C44.4656 177.045 52.0573 175.961 59.4321 175.961C60.5167 175.961 61.3843 175.744 62.4688 175.744C67.2407 176.394 69.8436 173.791 72.0127 169.885C74.8325 164.678 77.6522 159.471 81.1227 154.481C90.6666 141.029 103.247 131.482 118.214 124.973C129.276 119.983 140.555 115.861 151.183 110.22C158.992 106.097 167.017 102.192 174.175 96.5506C177.863 93.7301 181.55 90.6925 185.238 87.655C186.322 86.7871 187.407 85.2684 188.925 86.5702C190.226 87.655 190.01 89.3907 189.576 90.9095C188.274 94.5979 186.105 97.8525 183.502 100.673C178.08 106.965 172.223 113.04 166.367 118.898C165.282 119.766 164.632 119.983 163.547 119.332C160.944 118.247 158.341 117.163 155.521 116.078C154.871 115.861 154.22 115.644 153.569 115.644C152.702 115.644 151.834 115.861 151.4 116.946C150.966 118.03 151.834 118.464 152.485 119.115C152.919 119.549 153.569 119.983 154.003 120.2C155.305 120.634 155.305 121.502 154.871 122.587C152.485 121.068 150.316 119.332 147.713 118.464C147.062 118.247 146.411 118.03 145.761 118.03C144.676 118.03 143.592 118.247 143.158 119.332C142.941 120.2 143.375 121.285 144.025 121.936C145.11 122.804 145.11 123.672 144.893 124.756C144.676 126.709 145.761 128.228 146.845 129.747C151.834 135.822 157.257 141.463 162.462 147.104C164.415 149.057 166.367 150.792 168.102 153.179C168.753 154.047 168.536 154.481 168.102 155.132C165.499 158.603 162.029 161.424 159.426 164.895C154.22 171.404 148.364 177.479 145.761 185.724C145.327 187.243 143.809 187.677 142.724 187.677C137.735 188.545 132.746 188.762 127.757 188.762C116.912 188.979 106.501 190.714 96.7399 195.488C95.8723 195.922 95.0047 196.355 94.354 197.006C93.7033 197.44 93.0526 197.874 93.4864 198.742C93.9202 199.61 94.7878 199.176 95.4385 198.742C97.8245 197.657 99.9935 196.572 102.38 195.705C110.622 192.667 119.081 191.365 127.974 191.148C132.746 191.148 137.735 190.714 142.507 190.063C145.11 189.629 147.062 188.979 148.147 185.941C151.4 177.696 157.04 171.187 162.679 164.678C165.065 161.858 167.885 159.254 170.271 156.434C171.789 154.481 171.356 152.962 170.488 151.226C168.97 148.623 166.584 146.887 164.632 144.934C159.426 139.51 154.22 134.086 149.448 128.228C148.58 127.143 147.713 126.058 147.713 124.322C150.966 126.058 153.569 128.445 156.389 130.397C158.124 131.482 159.643 133.001 162.029 131.916C162.679 131.699 162.896 132.133 163.33 132.35C169.187 137.34 175.043 142.331 180.466 148.189C182.418 150.358 182.635 153.179 182.201 156.217C181.767 159.471 180.466 162.292 179.598 165.329C176.344 174.659 173.958 184.422 171.356 193.752C169.837 199.393 166.15 203.732 161.812 207.204C158.992 209.373 155.305 209.59 151.834 210.241C139.037 212.845 126.239 213.279 113.225 214.581C106.067 215.232 98.909 216.533 91.968 219.137C85.6778 221.524 79.3875 222.175 72.6634 222.391C62.2519 222.391 51.6235 222.175 41.212 220.656C39.043 220.439 37.0908 219.571 35.1387 219.354C33.4034 219.137 32.7527 217.618 32.3189 216.099C30.3667 208.94 29.9329 201.78 29.716 194.403C29.2822 189.196 29.716 183.988 31.6682 178.998Z" fill="#DEC6A7"/>
<path d="M187.624 52.2896C187.19 53.1574 186.756 53.8083 186.973 54.6762C187.407 56.6289 187.624 58.3647 188.057 60.3174C190.226 68.1282 193.046 75.722 196.734 83.0989C198.686 87.2213 199.12 87.4382 203.024 85.0516C203.241 85.0516 203.458 84.8346 203.458 84.6177C210.399 80.4953 217.123 76.3729 224.064 72.0336C234.909 65.3076 246.188 59.4495 256.817 52.5065C257.25 52.2896 257.901 52.0726 258.118 51.4217C258.986 45.7806 260.721 39.7055 259.853 34.2813C258.335 25.6026 255.949 17.1409 254.647 8.46225C254.431 6.29258 253.997 4.33988 254.214 2.17021C254.431 0.217509 253.78 -0.216425 252.045 0.434476C249.442 1.30234 247.056 2.17021 244.453 3.03808C234.909 6.29258 225.365 9.54709 216.038 13.6695C215.388 13.8864 214.737 14.3204 214.303 14.7543C207.796 24.3008 199.987 32.9795 194.348 41.6582C191.745 45.5636 189.359 48.8181 187.624 52.2896ZM257.033 35.8001C257.033 35.8001 257.25 35.8001 257.467 36.0171C257.033 40.3564 256.383 44.9127 255.949 49.252C255.949 50.1199 255.298 50.3369 254.647 50.7708C245.537 56.8459 235.777 61.8361 226.45 67.6942C219.292 72.2505 212.134 76.3729 204.759 80.7123C204.759 79.6274 205.41 78.9765 205.844 78.3256C214.303 66.6094 222.762 54.8932 231.222 43.177C231.655 42.743 231.872 42.0921 232.523 41.8752C240.765 39.7055 248.791 36.8849 257.033 35.8001ZM254.647 23.433C255.298 26.2535 255.949 29.0741 256.817 31.8947C257.033 32.9795 257.033 33.4135 255.732 33.6304C252.912 34.0644 249.876 34.7153 246.839 35.5831C248.357 27.1214 250.309 19.3106 252.478 11.4998C252.912 15.1882 253.78 19.3106 254.647 23.433ZM244.236 35.1492C244.236 35.5831 244.019 36.0171 243.585 36.0171C240.549 36.8849 237.512 37.7528 234.258 38.8376C239.247 29.725 244.019 21.0463 248.791 12.3677C247.49 19.9615 245.754 27.5553 244.236 35.1492ZM219.075 14.9713C229.053 10.8489 239.464 7.37742 249.659 3.90595C249.659 3.90595 249.876 3.90595 250.309 4.12291C244.236 15.1882 238.163 26.2535 231.872 37.5358C228.402 32.3286 225.148 27.3384 221.895 22.3481C220.593 20.3954 219.292 18.6597 218.424 16.707C217.99 15.8391 217.99 15.4052 219.075 14.9713ZM229.053 38.1867C229.92 39.4885 229.92 40.5734 228.836 41.8752C221.244 52.2896 213.869 62.704 206.494 73.3354C206.277 73.5523 206.061 73.7693 205.41 73.9863C208.88 55.5441 212.351 37.1019 216.038 18.4427C220.593 25.1687 224.931 31.6777 229.053 38.1867ZM210.399 24.5178C211.049 23.6499 211.7 22.7821 212.351 21.9142C212.568 21.9142 212.568 21.9142 212.785 22.1312C211.7 27.5553 210.616 32.7626 209.748 38.1867C207.579 51.8556 204.325 65.3076 202.156 78.7595C201.939 80.4953 200.638 81.3632 199.553 83.0989C195.215 73.9863 191.528 65.0906 189.793 55.5441C189.576 54.4593 189.793 53.8083 190.443 52.7235C196.3 42.743 203.241 33.6304 210.399 24.5178Z" fill="#DEC6A7"/>
<path d="M185.238 8.24536C185.021 9.3302 184.37 10.1981 183.719 10.849C183.502 11.0659 183.069 11.4999 183.502 11.7168C183.936 12.1508 184.153 11.7168 184.37 11.4999C184.804 11.2829 185.021 10.849 185.455 10.632C187.407 8.67929 189.793 8.46233 192.179 9.54716C192.612 9.76413 192.829 9.76413 193.263 9.54716C193.697 9.11323 193.263 8.67929 193.046 8.46233C191.528 7.59446 191.528 6.07569 191.745 4.55692C191.962 3.25512 192.829 1.95332 193.697 0.868484C193.914 0.651517 194.131 0.43455 193.914 0.00061585C193.697 -0.216351 193.263 -0.216351 193.046 0.00061585C192.829 0.00061585 192.829 0.217583 192.612 0.217583C191.311 1.08545 189.793 2.17029 188.057 1.95332C186.756 1.95332 185.671 1.73635 184.804 0.868484C184.587 0.651517 184.153 0.43455 183.936 0.651517C183.502 0.868484 183.719 1.30242 183.936 1.73635C184.153 2.17029 184.37 2.38725 184.587 2.82119C185.455 4.77389 185.888 6.50962 185.238 8.24536ZM191.311 2.82119C190.66 4.55692 190.226 6.07569 190.877 8.02839C189.359 7.81143 188.057 8.24536 186.539 8.89626C186.973 6.94356 186.973 5.20782 185.888 3.47209C187.624 3.47209 189.359 3.68905 191.311 2.82119Z" fill="#DEC6A7"/>
<path d="M231.222 90.9093C230.354 92.862 228.836 94.5978 227.1 96.1165C226.45 96.7674 225.582 97.2014 226.45 98.2862C227.1 99.1541 227.751 98.5032 228.402 98.0692C229.27 97.4183 230.137 96.9844 231.005 96.3335C235.994 92.6451 241.199 92.4281 246.405 95.6826C247.056 96.1165 247.923 96.5505 248.791 95.8996C249.876 94.8147 249.008 93.9468 248.357 93.5129C244.887 91.1263 245.537 87.8718 246.405 84.6173C247.273 81.5797 249.225 79.1931 251.394 77.0234C251.828 76.3725 252.262 75.9386 251.828 75.2877C251.394 74.6368 250.526 74.8538 249.876 75.0707C249.659 75.2877 249.225 75.5047 249.008 75.5047C245.754 77.2404 242.501 79.1931 238.597 78.5422C235.994 78.1083 233.391 77.4574 231.439 75.2877C230.788 74.6368 230.137 73.9859 229.486 74.6368C228.619 75.2877 229.053 76.1556 229.486 76.8065C229.92 77.6743 230.137 78.5422 230.571 79.4101C232.306 83.0985 233.174 86.7869 231.222 90.9093ZM245.754 79.844C244.019 83.5324 242.501 87.0039 243.585 91.1263C240.332 90.2584 237.078 90.9093 233.608 91.9942C235.126 87.8718 235.343 83.9664 233.174 79.627C237.729 80.9288 241.633 81.5797 245.754 79.844Z" fill="#DEC6A7"/>
<path d="M133.831 73.3347C133.614 75.0704 133.18 76.8061 132.313 78.5419C132.096 79.1928 131.445 79.8437 132.313 80.2776C132.963 80.7115 133.397 80.0606 133.831 79.4097C134.265 78.7588 134.916 78.1079 135.349 77.2401C137.952 72.9007 141.857 71.165 146.845 72.2498C147.496 72.4668 148.147 72.4668 148.798 71.8159C149.231 70.7311 148.364 70.2971 147.713 70.0802C144.46 69.2123 144.026 66.6087 143.809 63.7881C143.592 61.1845 144.46 58.7979 145.327 56.6282C145.544 55.9773 145.761 55.5434 145.11 55.1094C144.46 54.6755 144.026 55.1094 143.592 55.5434C143.375 55.7603 143.158 55.9773 142.941 56.1943C140.989 58.3639 139.037 60.7506 135.783 61.4015C133.614 61.8354 131.445 62.0524 129.493 61.1845C128.842 60.9675 128.192 60.5336 127.758 61.1845C127.324 61.8354 127.758 62.4863 128.408 62.9202C128.842 63.3542 129.493 64.0051 129.927 64.439C132.53 67.0426 134.048 69.6462 133.831 73.3347ZM141.64 60.5336C141.423 63.7881 141.423 66.8256 143.375 69.6462C140.555 69.8632 138.386 71.382 136 73.1177C136 69.6462 134.916 66.3917 132.096 63.7881C135.783 63.7881 139.037 63.1372 141.64 60.5336Z" fill="#DEC6A7"/>
</g>
<defs>
<clipPath id="clip0_3774_6272">
<rect width="272" height="289" fill="white"/>
</clipPath>
</defs>
</svg>
