<svg width="280" height="331" viewBox="0 0 280 331" fill="none" xmlns="http://www.w3.org/2000/svg">
<g clip-path="url(#clip0_3774_6165)">
<path d="M76.1165 56.0744C106.699 65.6094 131.392 22.0209 103.981 3.17794C67.2816 -13.3948 34.8868 38.5936 76.1165 56.0744ZM98.3172 51.3069C102.621 47.2205 106.246 42.226 111.003 38.3666C108.285 44.2692 103.981 48.3556 98.3172 51.3069ZM113.269 32.464C111.23 37.2314 105.113 39.9557 102.168 44.4962C96.7314 50.6258 91.068 56.7554 82.233 54.9393C94.013 47.9015 105.566 40.6368 113.722 29.0586C113.495 30.1937 113.269 31.3288 113.269 32.464ZM111.909 27.2424C104.434 36.3233 82.6861 60.6148 70.6796 51.3069C86.7638 44.2692 102.395 36.3233 113.269 21.3398C113.948 23.61 113.722 25.4262 111.909 27.2424ZM87.2169 2.26985C81.3269 11.1238 73.1716 16.1183 62.2978 16.5723C68.8673 8.6265 76.7962 3.63199 87.2169 2.26985ZM60.712 19.9777C63.8835 18.1615 67.9612 18.6155 72.0389 17.0264C67.7347 20.2047 63.8835 23.156 59.1262 24.9722C59.3528 22.929 60.0324 21.3398 60.712 19.9777ZM58.8997 28.6046C58.6732 27.4694 59.3528 26.7884 60.712 26.3343C69.7735 23.156 75.6635 14.7561 84.725 11.8048C91.068 10.2157 96.0518 1.13473 102.848 4.99413C103.528 5.6752 102.395 6.12925 102.168 6.58329C98.5437 11.8048 57.767 41.9989 58.8997 28.6046ZM60.712 38.8206C60.712 37.4585 58.6732 35.1882 60.0324 34.5072C77.0227 30.6478 91.9741 19.5236 104.207 7.26436C105.793 5.6752 112.589 14.7561 110.55 15.8912C97.6376 28.1505 77.7023 38.1395 60.712 38.8206ZM62.7508 41.3179C80.6473 37.9125 99.2233 30.4207 112.136 17.2534C106.019 33.145 85.4046 42.453 70 49.0367C68.1877 50.8528 60.712 41.5449 62.7508 41.3179Z" fill="#DEC6A7"/>
<path d="M153.592 53.8042C180.777 74.0093 214.531 33.8261 185.534 13.167C159.029 -7.03806 126.634 31.5559 153.592 53.8042ZM189.159 48.3556C186.893 54.0312 164.013 62.2041 166.278 53.3501C169.45 50.1718 176.02 51.761 177.152 46.5394C179.644 38.8207 190.291 41.3179 189.159 48.3556ZM161.974 11.1238C169.903 6.81037 179.191 12.0319 186.44 15.8913C192.104 19.9777 180.324 21.1128 180.55 26.3344C178.738 34.2802 164.919 29.5127 167.185 22.0209C169.903 15.8913 158.576 15.2102 161.974 11.1238ZM159.029 12.0319C158.576 17.4805 166.958 16.7994 165.146 22.702C164.013 28.1506 169.45 32.464 174.887 32.464C182.363 34.0532 181.456 23.8371 187.12 22.0209C188.026 21.5669 188.932 20.8858 189.612 19.9777C195.049 26.5614 195.728 40.1828 190.971 45.4043C188.706 38.3666 178.738 37.2315 175.793 44.7233C173.981 51.3069 162.654 47.9016 163.56 55.8474C141.812 52.8961 140.453 19.2966 159.029 12.0319Z" fill="#DEC6A7"/>
<path d="M200.032 98.0733C201.845 109.197 213.172 113.284 221.78 116.462C223.592 119.413 228.123 120.549 231.068 118.505C234.013 117.143 231.068 113.284 233.107 112.149C242.621 106.473 246.473 93.3058 242.395 83.0897C238.997 72.8737 229.482 73.1007 222.46 68.1062C220.421 63.7927 215.437 63.5657 212.719 67.1981C211.586 68.5602 211.812 70.8304 210.68 71.9656C201.392 76.7331 198.9 88.5383 200.032 98.0733ZM229.482 116.916C227.443 117.824 224.498 117.37 223.592 115.1C225.405 115.1 226.99 114.646 228.576 114.192C229.029 113.965 229.935 113.057 230.388 114.192C230.615 114.873 230.842 116.235 229.482 116.916ZM216.796 66.744C218.382 66.517 219.968 67.4251 221.1 69.9224C218.382 69.6953 216.117 69.9224 213.625 71.0575C213.625 69.0143 215.21 66.971 216.796 66.744ZM214.531 73.1007C243.981 63.1117 253.495 109.878 223.139 113.057C217.702 110.56 209.774 76.7331 214.531 73.1007ZM207.961 76.279C209.321 74.0088 211.586 74.2358 210.906 77.1871C211.586 87.1761 213.851 100.571 219.288 112.603C201.165 111.014 196.634 88.3112 207.961 76.279Z" fill="#DEC6A7"/>
<path d="M169.903 192.515C171.942 190.699 171.036 187.066 168.091 186.839C166.278 186.158 164.466 188.655 162.88 187.293C154.952 178.666 139.094 180.029 136.149 192.742C135.696 195.239 132.298 194.785 131.392 197.055C128.447 202.958 137.282 201.369 139.547 204.32C146.343 213.628 162.88 211.812 165.825 199.78C166.505 196.828 167.185 194.104 169.903 192.515ZM138.188 197.055C138.188 168.45 188.026 195.466 147.702 200.234C144.078 200.461 137.961 202.504 138.188 197.055ZM155.405 207.725C149.741 209.542 144.984 207.271 140.906 202.731C149.515 202.958 156.99 200.688 164.466 196.828C163.333 202.277 160.615 206.136 155.405 207.725ZM166.278 192.969C166.052 191.607 164.693 190.699 165.372 189.564C169.45 187.293 169.903 190.926 166.278 192.969Z" fill="#DEC6A7"/>
<path d="M210.453 177.986C231.748 176.17 232.427 141.208 210.453 140.981C187.12 140.981 183.269 180.484 210.453 177.986ZM193.236 164.138C189.385 142.344 224.272 133.263 224.951 159.37C225.178 178.213 197.087 182.3 193.236 164.138Z" fill="#DEC6A7"/>
<path d="M59.1262 162.548C78.1554 165.272 82.4596 134.17 61.8447 134.397C45.7605 133.943 42.136 160.732 59.1262 162.548ZM51.6505 141.889C62.9774 126.679 84.4984 146.657 68.1877 158.235C57.5405 166.181 44.8544 153.24 51.6505 141.889Z" fill="#DEC6A7"/>
<path d="M131.618 144.84C144.078 144.84 144.531 124.635 131.845 125.998C117.799 125.543 118.932 144.386 131.618 144.84ZM131.618 128.268C142.492 127.587 140.679 142.57 131.845 143.024C121.877 142.57 120.291 127.814 131.618 128.268Z" fill="#DEC6A7"/>
<path d="M112.815 91.4901C122.783 79.912 99.2231 71.7391 97.1843 85.1335C96.5047 93.7604 107.832 97.3927 112.815 91.4901ZM105.566 92.3982C99.9028 92.1712 96.9578 84.4524 101.942 81.2741C111.683 75.1445 118.932 91.2631 105.566 92.3982Z" fill="#DEC6A7"/>
<path d="M204.11 71.7387C204.563 72.1927 205.016 73.1008 205.696 72.4197C207.055 70.3765 203.43 67.8793 201.845 66.7441C199.353 67.4252 203.204 70.3765 204.11 71.7387Z" fill="#DEC6A7"/>
<path d="M126.408 27.4691C131.392 28.3772 135.243 25.8799 127.767 25.4259C125.955 24.7448 123.463 27.2421 126.408 27.4691Z" fill="#DEC6A7"/>
<path d="M150.647 99.6629C147.476 96.4845 149.741 105.565 151.327 105.338C153.592 104.657 151.1 101.025 150.647 99.6629Z" fill="#DEC6A7"/>
<path d="M48.7054 66.9715C50.2912 67.1985 52.7831 61.523 51.4238 61.0689C49.385 60.6149 47.3462 65.8364 48.7054 66.9715Z" fill="#DEC6A7"/>
<path d="M136.375 28.1502C137.961 28.6042 144.078 30.1934 141.133 27.2421C139.774 26.334 132.977 25.4259 136.375 28.1502Z" fill="#DEC6A7"/>
<path d="M60.7122 122.365C62.2979 122.592 64.1102 117.371 62.9775 116.463C60.9387 115.782 59.3529 121.457 60.7122 122.365Z" fill="#DEC6A7"/>
<path d="M72.4919 100.344C67.2815 105.566 70.9061 107.609 74.0776 101.479C74.3042 100.117 73.1715 99.6631 72.4919 100.344Z" fill="#DEC6A7"/>
<path d="M66.8285 172.31C67.2815 173.445 70 177.759 71.1327 175.261C71.1327 174.126 66.6019 168.224 66.8285 172.31Z" fill="#DEC6A7"/>
<path d="M146.117 96.939C150.194 98.5281 145.21 90.8094 143.398 92.3985C142.492 93.9877 145.21 95.3498 146.117 96.939Z" fill="#DEC6A7"/>
<path d="M219.514 127.36C219.514 128.722 218.382 134.17 221.1 131.673C222.006 129.403 221.1 123.273 219.514 127.36Z" fill="#DEC6A7"/>
<path d="M65.9222 108.744C65.4691 110.106 62.7506 113.057 65.016 113.511C66.8283 113.284 69.3202 106.474 65.9222 108.744Z" fill="#DEC6A7"/>
<path d="M96.7313 194.559C92.6536 195.694 100.129 199.099 101.035 197.283C101.262 195.24 97.8639 195.24 96.7313 194.559Z" fill="#DEC6A7"/>
<path d="M128.673 83.5439C123.236 83.5439 131.618 88.3114 132.524 85.8142C132.751 84.225 129.579 83.998 128.673 83.5439Z" fill="#DEC6A7"/>
<path d="M115.307 200.235C115.307 202.051 120.518 202.505 121.197 200.689C120.971 199.326 115.534 198.872 115.307 200.235Z" fill="#DEC6A7"/>
<path d="M110.777 199.553C110.55 197.964 105.566 196.602 104.887 198.418C105.113 200.007 110.324 201.142 110.777 199.553Z" fill="#DEC6A7"/>
<path d="M90.8415 193.424C94.2396 192.743 86.9904 188.429 86.3108 190.246C86.0842 192.062 89.2558 192.97 90.8415 193.424Z" fill="#DEC6A7"/>
<path d="M151.1 114.646C154.951 113.965 150.194 103.749 150.421 111.695C150.421 112.603 149.741 114.419 151.1 114.646Z" fill="#DEC6A7"/>
<path d="M148.382 119.641C148.156 121.003 146.343 123.046 147.476 124.182C150.194 125.317 151.554 115.328 148.382 119.641Z" fill="#DEC6A7"/>
<path d="M195.275 61.7498C200.032 68.7875 202.071 63.339 195.955 60.3877C195.275 60.6147 194.822 61.0688 195.275 61.7498Z" fill="#DEC6A7"/>
<path d="M82.9125 188.202C86.084 187.521 81.1002 184.797 80.1941 184.343C76.5695 184.797 81.3267 188.202 82.9125 188.202Z" fill="#DEC6A7"/>
<path d="M53.9158 58.3447C54.5954 57.2096 57.9935 54.7123 55.275 54.0312C53.6893 54.0312 50.5177 60.1609 53.9158 58.3447Z" fill="#DEC6A7"/>
<path d="M217.476 135.986C216.796 137.348 216.569 142.116 218.835 139.392C219.741 137.802 219.741 132.808 217.476 135.986Z" fill="#DEC6A7"/>
<path d="M142.945 130.992C144.531 130.992 147.702 124.862 144.531 126.452C143.851 127.587 140.453 130.311 142.945 130.992Z" fill="#DEC6A7"/>
<path d="M187.573 179.802C188.479 180.029 191.424 177.759 191.424 176.624C191.197 173.673 184.854 178.667 187.573 179.802Z" fill="#DEC6A7"/>
<path d="M66.149 168.224C65.4694 167.089 65.0164 165.272 63.8837 164.818C60.2591 165.272 66.149 172.537 66.149 168.224Z" fill="#DEC6A7"/>
<path d="M61.8449 48.8098C61.3918 45.1774 55.5018 52.2152 59.1264 51.9881C59.5795 51.9881 61.8449 49.2639 61.8449 48.8098Z" fill="#DEC6A7"/>
<path d="M74.3042 178.667C70.9061 177.759 74.5307 182.526 76.1165 182.526C78.3819 181.618 75.2103 179.348 74.3042 178.667Z" fill="#DEC6A7"/>
<path d="M81.1005 94.8955C80.6474 92.1712 74.7575 97.3928 77.2494 98.0738C77.929 98.3008 81.1005 95.8036 81.1005 94.8955Z" fill="#DEC6A7"/>
<path d="M118.932 27.2426C120.518 27.4697 124.595 26.1075 121.424 24.9724C119.385 24.2913 114.628 26.3345 118.932 27.2426Z" fill="#DEC6A7"/>
<path d="M137.281 87.4033C134.11 87.8574 139.547 91.9438 140.68 90.5817C141.586 88.9925 138.414 87.8574 137.281 87.4033Z" fill="#DEC6A7"/>
<path d="M57.767 128.267C56.6343 132.127 59.8058 132.581 59.8058 128.721C60.4854 125.77 57.5404 125.543 57.767 128.267Z" fill="#DEC6A7"/>
<path d="M192.103 58.5717C196.181 59.0258 190.518 53.5772 189.158 55.6204C188.705 56.9826 191.197 57.6636 192.103 58.5717Z" fill="#DEC6A7"/>
<path d="M220.874 123.727C222.686 123.727 222.46 118.732 220.874 118.732C219.288 118.959 219.741 123.273 220.874 123.727Z" fill="#DEC6A7"/>
<path d="M125.955 202.277C128.9 202.731 129.126 199.553 126.181 200.234C123.01 199.553 122.783 202.731 125.955 202.277Z" fill="#DEC6A7"/>
<path d="M88.8025 90.1277C88.3494 87.6304 83.139 91.2628 84.9513 92.6249C85.6309 93.079 88.8025 91.2628 88.8025 90.1277Z" fill="#DEC6A7"/>
<path d="M176.699 185.704C175.793 184.569 171.942 186.839 172.622 188.202C173.301 189.564 177.605 187.293 176.699 185.704Z" fill="#DEC6A7"/>
<path d="M94.6925 88.3118C97.1844 85.3605 90.1617 86.7226 90.8413 88.7658C91.5209 89.9009 93.3332 88.9929 94.6925 88.3118Z" fill="#DEC6A7"/>
<path d="M183.495 181.845C183.042 179.802 180.324 182.072 179.418 182.981C178.058 185.932 183.269 183.435 183.495 181.845Z" fill="#DEC6A7"/>
<path d="M119.385 81.7285C115.761 82.8636 122.104 85.3609 122.783 83.0907C123.01 81.7285 120.518 81.7285 119.385 81.7285Z" fill="#DEC6A7"/>
<path d="M154.951 34.7339C164.466 36.7771 166.278 15.6639 155.404 21.3395C149.515 24.5178 148.608 32.9177 154.951 34.7339ZM154.272 25.1989C161.521 16.572 163.56 30.6474 156.537 32.6906C152.686 32.4636 150.647 28.1502 154.272 25.1989Z" fill="#DEC6A7"/>
<path d="M274.563 249.498C258.479 248.817 247.379 262.666 236.505 272.428C238.77 263.801 242.168 254.493 242.848 245.412C242.848 237.92 238.997 189.11 226.537 209.769C219.741 222.937 225.858 236.558 222.233 250.406C217.929 237.239 215.437 224.072 208.867 212.721C206.602 210.223 204.11 210.223 202.298 212.948C192.557 224.299 200.259 239.963 201.845 252.904C202.751 258.352 202.298 258.806 197.087 259.26C195.955 259.26 195.728 259.26 195.275 258.125C191.197 249.725 188.026 240.871 186.893 231.336C185.987 227.704 182.816 226.796 179.871 229.066C171.942 236.785 175.793 249.498 177.379 259.033C147.476 278.33 114.854 236.104 82.4595 247.228C62.9773 255.401 44.1747 265.39 22.4271 259.26C6.11645 266.071 11.5533 295.811 14.2718 310.568C23.3333 356.426 49.1585 309.66 99.9029 317.378C131.618 323.281 161.748 337.129 194.142 325.551C212.945 321.692 233.333 320.784 245.113 303.303C250.324 294.903 295.178 253.131 274.563 249.498ZM226.084 228.385C230.388 185.705 238.317 220.666 239.903 239.282C239.676 262.212 231.974 290.136 206.375 294.903C210.227 290.817 211.359 284.006 215.437 280.828C228.803 280.374 244.434 259.714 222.913 258.352C227.67 248.817 226.764 238.601 226.084 228.385ZM196.181 286.049C199.126 281.282 205.469 283.552 210.453 281.736C205.922 292.633 199.806 298.535 187.573 296.492C190.971 293.087 194.369 290.136 196.181 286.049ZM183.948 295.584C178.738 295.584 173.301 293.314 168.77 289.909C177.152 287.638 185.307 285.822 193.916 284.233C191.197 289 187.799 292.406 183.948 295.584ZM200.485 224.299C206.828 195.013 216.116 243.596 219.288 251.542C219.741 257.444 222.006 258.806 214.757 258.125V257.898C212.265 257.444 205.922 259.714 204.79 257.444C205.016 246.32 200.032 235.65 200.485 224.299ZM179.871 234.061C180.777 231.564 184.175 229.52 184.401 233.607C185.307 242.915 188.705 251.088 192.783 259.487C188.932 259.26 183.269 261.985 180.55 259.714C179.417 251.315 176.019 242.234 179.871 234.061ZM275.243 260.395C235.599 316.016 231.748 318.513 164.239 327.594C136.149 326.913 109.87 310.341 81.1003 314.2C67.055 311.476 27.6375 333.951 24.0129 326.459C14.4983 311.249 7.47568 275.606 22.4271 262.439C55.9546 273.563 84.4983 235.423 117.12 253.585C146.796 274.471 180.097 261.985 213.171 261.304C236.278 258.806 234.919 272.201 215.437 277.876C206.602 279.692 197.54 280.147 188.705 282.19C170.582 285.822 148.155 291.498 135.922 305.119C136.602 306.254 137.735 305.8 138.867 305.346C173.301 280.146 162.427 301.941 195.275 299.898C223.139 300.806 236.505 274.244 256.214 259.26C261.197 254.039 284.531 246.774 275.243 260.395Z" fill="#DEC6A7"/>
<path d="M237.411 195.694C238.77 197.283 237.638 200.235 239.223 201.143C240.356 200.916 239.903 198.872 240.129 197.964C239.903 192.743 243.981 191.608 246.926 188.883C246.926 187.975 246.019 187.975 245.566 188.202C238.77 190.7 239.223 175.489 237.184 179.802C237.184 190.018 225.178 188.883 229.935 190.927C232.654 191.608 235.825 192.516 237.411 195.694ZM237.638 183.889C238.77 186.159 239.903 188.429 242.395 189.564C240.583 190.927 239.676 192.743 238.77 194.786C237.411 192.289 235.372 190.7 232.427 190.018C234.919 188.429 236.958 186.84 237.638 183.889Z" fill="#DEC6A7"/>
<path d="M11.5535 103.522C13.1392 105.792 11.1004 109.879 13.3658 111.241C15.1781 111.014 14.4984 108.289 14.9515 106.927C15.1781 99.6626 21.2946 98.5275 25.8253 95.1221C25.8253 93.76 24.6926 93.76 24.013 93.987C14.0454 96.2572 16.9904 75.1441 13.3658 81.0467C11.5535 96.0302 -4.75722 91.9438 1.35929 95.5762C5.66349 97.1653 9.9677 98.9815 11.5535 103.522ZM13.8188 87.1763C15.1781 90.5817 16.3107 93.76 19.7088 95.8032C16.9904 97.3924 15.4046 99.8896 14.0454 102.614C12.2331 98.9815 9.9677 96.2572 5.89003 94.8951C9.28809 93.0789 12.2331 91.0357 13.8188 87.1763Z" fill="#DEC6A7"/>
<path d="M216.116 44.9504C216.796 46.7666 214.984 49.2638 216.116 50.626C217.249 50.626 217.249 48.8098 217.929 47.9017C219.061 42.9072 223.592 42.9072 227.217 41.318C227.443 40.4099 226.764 40.1829 226.084 40.1829C218.835 40.637 223.819 26.1075 220.421 29.7398C217.476 39.5018 206.375 34.9614 210 38.1397C212.945 39.7289 215.663 41.5451 216.116 44.9504ZM219.741 33.8263C220.194 36.3235 220.647 38.8208 222.686 40.637C220.647 41.318 219.288 42.9072 217.702 44.4964C217.023 41.7721 215.89 39.5018 213.171 38.1397C215.89 37.2316 218.155 36.3235 219.741 33.8263Z" fill="#DEC6A7"/>
</g>
<defs>
<clipPath id="clip0_3774_6165">
<rect width="280" height="331" fill="white"/>
</clipPath>
</defs>
</svg>
