<svg width="278" height="308" viewBox="0 0 278 308" fill="none" xmlns="http://www.w3.org/2000/svg">
<g clip-path="url(#clip0_3774_6287)">
<path d="M269.77 67.9115C266.112 59.6799 262.683 51.4483 259.025 43.2166C258.11 41.3874 257.424 39.5581 255.824 38.1862C254.681 37.2716 253.538 37.0429 252.623 38.1862C251.709 39.3295 250.794 40.7014 251.709 42.5307C252.166 43.6739 253.081 44.8172 252.623 46.4178C250.337 56.936 251.48 67.2255 252.852 77.7437C253.309 81.6309 255.595 84.8321 257.424 88.0333C259.253 91.0058 259.939 93.7497 259.025 97.1795C257.424 102.896 255.138 108.155 253.538 113.871C253.081 115.472 252.395 114.329 251.938 113.871C244.393 107.698 236.62 101.981 228.618 96.2649C221.989 91.4631 215.587 86.4327 208.729 82.0882C206.9 80.9449 205.071 79.8016 203.013 78.887C201.87 78.4297 200.727 77.9724 199.813 79.1157C198.898 80.2589 199.127 81.6309 199.813 82.7742C200.498 83.9174 201.413 84.8321 202.556 85.518C203.928 86.204 204.156 87.1186 204.385 88.4906C204.614 92.835 205.528 97.1795 208.271 100.381C212.615 105.182 217.188 109.756 221.76 114.1C226.79 119.131 232.505 123.246 238.22 127.362C227.247 131.249 216.73 134.908 205.757 138.795C205.757 133.079 205.528 127.591 205.528 122.103C205.299 112.042 203.47 102.21 200.727 92.3777C200.27 90.5485 199.584 88.9479 198.441 87.3473C197.069 85.2894 194.097 84.3748 192.04 85.2894C189.982 85.9753 189.068 87.8046 189.068 90.5485C189.068 91.6918 189.068 92.835 189.296 93.9783C189.982 97.6368 191.125 101.524 190.896 105.182C190.668 110.67 190.211 116.387 189.068 121.874C186.553 133.765 182.895 145.197 178.551 156.401C174.893 166.462 170.092 176.295 167.349 186.813C163.691 200.761 163.005 214.709 165.977 228.657C167.12 234.145 168.949 239.404 170.321 244.891C171.007 247.407 170.778 249.465 168.72 251.522C164.834 255.41 161.176 259.525 157.518 263.413C155.003 266.385 152.031 268.9 148.831 270.958C146.773 272.102 146.316 273.931 146.773 275.989C147.002 277.132 147.459 278.275 147.916 279.419C150.202 284.678 153.632 289.022 157.747 292.909C163.234 298.168 169.178 303.199 175.808 307.086C179.008 308.915 182.209 308.915 184.952 306.629C186.781 305.028 188.839 303.885 190.668 302.284C198.441 295.653 206.214 288.793 213.072 281.476C216.73 277.589 220.388 273.473 222.674 268.672C227.247 258.154 234.334 249.007 241.65 240.318C249.194 231.401 256.739 222.254 262.911 212.194C264.512 209.678 266.341 207.163 266.112 204.191C265.883 200.075 265.883 195.959 264.74 192.072C264.512 191.386 264.969 190.929 265.426 190.471C267.712 188.185 269.313 185.669 270.227 182.468C272.056 176.523 270.684 170.807 268.855 165.09C268.627 164.176 268.169 163.718 269.084 162.804C272.513 159.374 273.428 155.03 273.656 150.456C274.114 145.655 272.056 141.539 269.77 137.652C269.541 137.194 268.627 136.737 269.541 136.28C270.684 135.594 270.684 134.45 270.913 133.307C272.742 123.246 275.485 113.185 276.4 102.896C276.857 95.5789 277.314 88.0333 274.342 80.9449C273.885 76.1431 271.599 72.0273 269.77 67.9115ZM264.283 204.648C264.054 208.306 261.311 211.279 259.253 214.252C251.938 225.227 243.25 235.059 234.791 245.349C230.447 250.837 226.332 256.553 223.36 263.184C220.617 269.358 216.73 274.617 212.158 279.419C204.614 287.422 196.612 294.967 187.696 301.598C186.095 302.741 184.267 303.656 182.438 305.028C181.066 306.171 179.466 305.485 178.094 304.571C171.464 300.912 165.748 295.882 160.49 290.851C156.604 287.193 153.403 283.306 151.345 278.275C149.974 274.845 149.974 273.931 152.946 271.873C159.119 267.3 163.691 261.355 169.178 255.867C169.864 255.181 170.321 254.266 171.007 253.809C174.893 250.837 174.893 246.949 173.521 242.605C171.693 236.888 170.092 230.943 168.949 224.998C166.434 210.822 167.577 196.874 171.921 183.383C175.122 173.322 179.466 163.947 182.895 154.115C186.781 142.682 190.668 131.249 192.725 119.359C193.64 114.557 193.64 109.756 194.326 105.182C194.554 103.353 194.783 101.753 195.24 99.9234C195.469 98.5514 196.383 98.3228 197.755 98.7801C199.584 99.6947 200.27 101.067 200.956 102.896C202.556 107.698 203.242 112.499 203.47 117.53C203.699 124.39 204.156 131.249 203.928 138.109C203.928 139.481 203.47 139.938 202.327 140.396C199.584 141.539 197.069 142.682 194.326 143.825C193.64 144.054 192.954 144.511 192.268 144.969C191.582 145.655 191.125 146.569 191.582 147.484C192.04 148.399 192.954 148.17 193.64 148.17C194.326 148.17 195.012 147.941 195.469 147.713C196.612 147.255 197.298 147.484 197.755 148.856C195.012 149.542 192.268 149.77 189.753 151.142C189.296 151.371 188.61 151.6 188.382 152.057C187.467 152.972 186.553 153.886 187.01 155.258C187.467 156.401 188.839 156.63 189.982 156.63C191.125 156.401 191.582 156.859 192.268 157.773C193.411 159.603 195.469 159.831 197.298 160.06C205.299 160.746 213.301 160.975 221.303 160.975C224.046 160.975 226.79 160.746 229.533 161.203C230.676 161.432 230.905 161.661 231.133 162.804C231.819 166.92 231.362 171.264 231.819 175.38C232.734 184.069 233.191 192.758 237.306 200.761C237.992 202.361 237.306 203.505 236.392 204.419C233.419 208.535 229.99 212.422 226.561 216.081C219.017 224.084 212.844 233.001 209.415 243.291C209.186 244.205 208.957 244.891 208.729 245.806C208.729 246.492 208.271 247.635 209.415 247.864C210.329 248.093 210.558 246.949 210.786 246.263C211.701 243.977 212.615 241.462 213.53 239.175C217.416 230.257 223.36 222.712 230.219 215.623C232.962 212.651 235.706 209.678 237.992 206.477C239.592 204.191 240.507 202.133 239.135 199.16C235.477 190.929 234.791 182.24 234.105 173.551C233.877 169.892 233.877 166.234 233.419 162.347C233.191 159.831 231.819 158.917 229.762 158.459C226.79 157.773 223.818 158.231 221.074 158.231C213.53 158.002 205.985 158.002 198.212 157.316C196.841 157.316 195.469 157.087 193.869 155.944C196.612 155.03 199.127 154.801 201.642 154.344C203.242 154.115 204.842 153.886 206.443 153.429C207.357 153.2 208.729 152.972 208.957 152.057C209.643 150.228 211.243 150.228 212.844 149.999C219.474 149.542 226.104 149.084 232.734 149.084C236.62 149.084 239.592 150.685 241.878 153.886C243.707 156.401 245.079 159.374 246.451 162.118C250.794 171.035 256.053 179.496 261.082 187.956C264.283 193.215 264.74 198.932 264.283 204.648ZM269.313 179.038C268.855 182.697 267.255 185.669 264.512 188.185C258.11 177.209 251.709 166.462 246.222 155.258C244.165 151.142 241.421 147.941 236.849 146.798C236.163 146.569 235.477 146.569 234.791 146.569C223.818 146.341 212.844 147.713 201.642 148.17C200.727 148.17 200.727 148.17 199.584 146.798C201.184 146.341 202.785 145.883 204.385 145.197C206.671 144.283 209.415 143.825 209.872 140.624C209.872 140.167 210.558 140.167 210.786 139.938C219.931 136.508 229.304 133.307 238.678 130.335C240.278 129.877 241.878 129.877 243.479 129.649C244.622 129.649 245.536 129.877 246.222 130.792C251.252 136.737 255.138 143.368 259.253 149.999C262.225 155.03 265.883 160.06 267.712 165.776C268.855 170.121 269.998 174.465 269.313 179.038ZM270.456 142.225C273.656 148.399 272.285 154.572 268.398 160.517C264.969 154.801 261.768 149.542 258.568 144.283C255.138 138.795 251.48 133.765 247.822 128.505C247.137 127.591 245.993 127.133 244.85 127.133C243.25 127.133 242.107 126.676 240.735 125.533C234.791 121.188 228.847 117.073 223.589 111.814C219.017 107.469 214.444 102.896 210.329 98.0941C208.043 95.3503 207.357 91.9204 207.128 88.0333C208.729 88.9479 210.1 90.0912 211.472 90.7771C214.216 92.1491 216.502 94.6643 220.16 93.0637C220.617 92.835 221.074 93.521 221.531 93.7497C231.133 101.067 241.193 108.155 250.566 115.929C259.253 123.246 265.426 132.393 270.456 142.225ZM274.799 102.667C273.885 112.957 271.142 122.789 269.313 132.85C269.313 133.079 269.084 133.536 268.855 133.993C267.712 132.164 266.569 130.563 265.655 128.963C263.14 124.847 259.939 121.188 256.281 117.759C255.367 116.844 255.367 116.158 255.824 114.786C258.339 108.384 260.625 101.981 262.225 95.3503C262.911 92.1491 261.768 89.4052 260.168 86.89C258.339 83.4601 256.053 80.2589 255.367 76.3718C253.995 67.6829 253.538 58.7653 254.452 49.3903C256.053 52.3629 257.424 55.1068 258.796 57.8506C259.939 60.1372 261.54 61.7378 263.826 62.6524C264.512 62.8811 264.969 63.1097 265.197 63.7957C267.941 70.884 272.056 77.2864 274.114 84.8321C275.943 90.7771 275.257 96.7222 274.799 102.667Z" fill="#DEC6A7"/>
<path d="M92.3619 80.7157C92.1332 81.859 91.9046 83.0023 91.676 84.3742C91.4474 85.2888 91.2188 86.2034 90.0757 85.9748C89.1612 85.9748 88.4753 86.4321 88.4753 87.3467C88.4753 88.49 89.3898 88.49 90.3043 88.49C91.676 88.49 93.0477 88.49 94.4194 88.2613C95.5625 88.0327 97.3915 88.49 97.3915 86.8894C97.3915 84.8315 95.3339 85.7461 94.1908 85.5175C94.4194 83.9169 94.648 82.3163 94.8767 80.9443C94.8767 80.2584 94.8767 79.3438 93.9622 79.3438C93.0477 79.3438 92.3619 80.0297 92.3619 80.7157Z" fill="#DEC6A7"/>
<path d="M190.668 90.3201C191.125 89.8628 191.354 89.4055 191.811 88.7195C192.725 86.8902 193.64 85.5183 195.926 85.5183C196.84 85.5183 197.984 84.6037 197.298 83.6891C195.926 81.8598 193.64 83.4604 191.811 83.2318C191.125 83.0031 189.982 83.2318 190.211 84.1464C190.668 86.2043 189.296 87.5762 188.61 88.7195C188.153 89.8628 187.696 90.5487 188.61 91.2347C189.525 91.4634 190.211 91.0061 190.668 90.3201Z" fill="#DEC6A7"/>
<path d="M170.55 84.6029C170.778 83.6883 170.778 83.0024 171.007 82.0877C171.007 81.1731 171.007 80.4871 170.092 80.2585C168.949 80.0298 168.492 80.9444 168.492 81.6304C168.721 84.6029 166.663 84.3743 164.834 84.3743C164.148 84.3743 163.462 84.3743 162.776 84.3743C161.862 84.3743 161.405 84.8316 161.405 85.7462C161.405 86.6608 161.862 87.1182 162.776 87.1182C164.605 87.1182 166.434 87.3468 168.035 86.8895C168.721 86.6608 169.864 85.7462 170.55 84.6029Z" fill="#DEC6A7"/>
<path d="M137.857 83.6895C135.571 84.1468 132.599 83.9181 130.084 84.6041C129.627 84.8327 129.169 85.2901 129.169 85.976C129.398 86.662 129.855 87.1193 130.541 87.1193C133.056 86.8907 135.571 86.662 138.086 86.4333C138.771 86.4333 139.229 85.7474 139.229 85.0614C139.229 84.3754 138.771 83.9181 137.857 83.6895Z" fill="#DEC6A7"/>
<path d="M45.495 85.2893C45.0378 85.2893 44.5806 85.9753 44.5806 86.6613C44.5806 87.3473 45.0378 87.8046 45.7237 87.8046C48.2385 87.8046 50.9819 87.5759 53.4967 87.3473C54.1825 87.3473 54.4112 86.8899 54.6398 86.204C54.6398 85.518 54.1825 85.2893 53.2681 84.832C50.7533 84.832 48.2385 84.832 45.495 85.2893Z" fill="#DEC6A7"/>
<path d="M15.5461 86.8898C15.5461 87.5758 16.232 88.0331 16.9179 88.0331C19.4327 88.0331 21.7188 87.8044 24.2336 87.8044C24.9195 87.8044 25.3767 87.3471 25.3767 86.4325C25.3767 85.7465 24.9195 85.5179 24.2336 85.0605C21.9475 85.0605 19.4327 85.2892 16.6892 85.2892C16.0034 85.5179 15.5461 86.2038 15.5461 86.8898Z" fill="#DEC6A7"/>
<path d="M31.7782 84.6035C31.0923 84.6035 30.4065 84.8322 30.1778 85.7468C29.9492 86.6614 30.6351 87.1187 32.0068 87.3474C33.6071 87.3474 35.6647 87.3474 37.9509 87.3474C38.8653 87.3474 39.5512 86.8901 39.5512 85.9754C39.5512 85.0608 38.8653 84.6035 37.9509 84.6035C35.8933 84.8322 33.8357 84.8322 31.7782 84.6035Z" fill="#DEC6A7"/>
<path d="M152.946 140.624C151.803 142.224 150.66 144.053 149.745 145.425C149.288 146.34 149.288 147.026 150.202 147.483C151.117 148.169 151.803 147.483 152.26 146.797C153.403 145.197 154.318 143.596 155.232 141.996C155.689 141.31 155.918 140.624 155.232 139.938C154.089 139.48 153.403 139.709 152.946 140.624Z" fill="#DEC6A7"/>
<path d="M61.7272 85.2893C61.0414 85.2893 60.8127 85.9753 60.8127 86.6613C60.8127 87.3473 61.27 87.8046 61.9558 87.8046C64.242 87.8046 66.7568 87.5759 69.043 87.5759C69.7289 87.5759 70.1861 86.8899 70.1861 86.204C70.1861 85.518 69.7289 85.2893 68.5858 84.832C66.5282 85.0607 64.242 85.0607 61.7272 85.2893Z" fill="#DEC6A7"/>
<path d="M95.1054 40.2437C93.2765 38.8717 91.4476 37.7285 90.0758 36.5852C89.1614 36.1279 88.4755 36.1279 88.0183 36.5852C87.561 37.2711 87.7897 37.9571 88.2469 38.4144C90.0758 39.7864 91.6762 41.1583 93.5051 42.3016C94.191 42.7589 94.8768 42.5302 95.3341 41.8443C95.7913 41.387 95.7913 40.701 95.1054 40.2437Z" fill="#DEC6A7"/>
<path d="M173.293 52.3633C174.207 52.5919 174.436 51.6773 174.893 50.534C174.893 48.7048 175.122 46.4182 175.35 44.1316C175.35 43.4457 174.893 42.9884 174.207 42.7597C173.293 42.531 172.836 43.217 172.607 43.903C172.378 46.1895 172.15 48.4761 172.15 50.7627C172.15 51.6773 172.378 52.3633 173.293 52.3633Z" fill="#DEC6A7"/>
<path d="M179.008 23.0944C179.237 21.2652 179.694 19.2073 179.923 17.1494C179.923 16.4634 179.694 15.7774 178.78 15.5488C177.865 15.3201 177.408 16.0061 177.179 16.692C176.951 18.7499 176.494 20.8079 176.265 23.0944C176.265 23.7804 176.494 24.695 177.179 24.695C178.094 24.695 178.551 24.009 179.008 23.0944Z" fill="#DEC6A7"/>
<path d="M176.951 36.3563C177.179 34.2984 177.408 32.2405 177.408 29.954C177.408 29.268 176.951 28.8107 176.265 28.582C175.579 28.582 174.893 28.8107 174.893 29.4967C174.665 31.7832 174.436 34.0698 174.436 36.3563C174.436 36.8137 174.893 37.4996 175.579 37.4996C176.265 37.7283 176.722 37.271 176.951 36.3563Z" fill="#DEC6A7"/>
<path d="M74.5296 29.2683C74.9869 28.5824 74.7583 27.8964 74.0724 27.4391C72.4721 26.2958 70.8717 25.1525 69.5 24.2379C68.5855 23.7806 67.6711 23.7806 67.2138 24.6952C66.7566 25.3812 67.2138 26.0671 67.8997 26.5245C69.5 27.6677 71.1003 28.5824 72.7007 29.7256C73.3865 29.9543 74.0724 29.9543 74.5296 29.2683Z" fill="#DEC6A7"/>
<path d="M51.2107 13.2626C51.668 12.8052 51.668 12.1193 51.2107 11.662C49.6104 10.0614 48.0101 8.68943 46.1811 7.54615C45.4953 7.08884 44.8094 7.31749 44.3522 7.77481C43.8949 8.46077 43.8949 9.14674 44.5808 9.60406C46.1811 10.976 48.0101 12.3479 49.6104 13.7199C50.2963 13.9485 50.7535 13.9485 51.2107 13.2626Z" fill="#DEC6A7"/>
<path d="M104.708 84.832C103.793 84.832 103.336 85.2893 103.107 85.9753C103.107 86.6613 103.564 87.3472 104.708 87.5759C106.308 87.5759 108.365 87.5759 110.423 87.3473C111.109 87.3473 111.795 86.6613 111.566 85.9753C111.337 85.2893 110.88 84.832 109.966 84.832C108.365 84.832 106.536 84.832 104.708 84.832Z" fill="#DEC6A7"/>
<path d="M84.1316 32.9271C82.7599 32.0125 81.3881 31.0978 80.0164 30.4119C79.102 29.9546 78.1875 29.7259 77.7303 30.6405C77.273 31.7838 77.9589 32.2411 78.8733 32.9271C80.2451 33.6131 81.6168 34.5277 82.9885 35.2137C83.6743 35.671 84.5888 35.8996 85.046 34.985C85.5033 34.299 84.8174 33.3844 84.1316 32.9271Z" fill="#DEC6A7"/>
<path d="M183.124 85.7475C183.81 85.5188 183.81 84.8329 183.81 84.3756C183.81 83.9183 183.581 83.4609 183.124 83.4609C180.609 83.4609 178.323 83.6896 176.036 84.6042C175.808 84.6042 175.579 85.0615 175.579 85.0615C175.351 85.9762 175.808 86.8908 176.722 86.8908C178.78 86.6621 181.066 86.4335 183.124 85.7475Z" fill="#DEC6A7"/>
<path d="M74.987 86.4322C74.7584 86.4322 74.5298 86.8895 74.3012 86.8895C74.0726 87.8041 74.5298 88.7188 75.4443 88.7188C77.5018 88.4901 79.5594 88.2615 81.617 87.8041C82.0742 87.8041 82.5314 87.3468 82.5314 86.6609C82.5314 85.9749 82.3028 85.5176 81.617 85.5176C79.3308 85.5176 77.0446 85.5176 74.987 86.4322Z" fill="#DEC6A7"/>
<path d="M96.4772 64.0238C96.7058 62.1945 97.1631 60.3653 96.9344 58.536C96.9344 57.85 96.7058 57.1641 96.02 57.1641C95.1055 57.1641 94.8769 57.85 94.4196 58.7647C94.191 60.1366 94.191 61.9658 93.9624 63.5664C93.9624 64.2524 93.9624 65.167 94.8769 65.167C95.7914 65.3957 96.4772 64.7097 96.4772 64.0238Z" fill="#DEC6A7"/>
<path d="M172.15 115.929C171.464 115.243 170.549 115.701 170.092 116.386C169.178 117.758 168.263 119.13 167.349 120.731C167.12 121.646 166.892 122.332 167.806 122.789C168.72 123.246 169.406 122.789 169.864 122.103C170.778 120.731 171.693 119.359 172.607 117.987C172.607 117.072 172.836 116.615 172.15 115.929Z" fill="#DEC6A7"/>
<path d="M117.51 86.204C117.51 86.8899 117.967 87.3473 118.653 87.3473C120.482 87.3473 122.311 87.3473 124.14 87.3473C124.826 87.3473 125.283 86.8899 125.512 86.204C125.512 85.518 125.054 85.0607 123.911 84.832C122.54 84.832 120.711 84.832 118.653 85.0607C117.967 84.832 117.51 85.518 117.51 86.204Z" fill="#DEC6A7"/>
<path d="M173.521 62.652C173.75 61.0515 173.75 59.6795 173.979 58.0789C173.979 57.393 173.979 56.4783 173.064 56.2497C172.15 56.021 171.464 56.4783 171.464 57.393C171.235 59.2222 171.007 60.8228 171.007 62.652C171.007 63.338 171.235 64.024 172.15 64.024C173.064 64.024 173.293 63.5667 173.521 62.652Z" fill="#DEC6A7"/>
<path d="M97.6204 48.9336C97.6204 47.7903 97.849 46.4184 96.4773 45.7324C95.7914 45.7324 95.1055 45.9611 95.1055 46.8757C94.8769 48.9336 94.8769 50.7629 95.1055 52.8208C95.1055 53.7354 96.02 54.4214 96.7059 53.964C98.5348 52.3635 97.3917 50.5342 97.6204 48.9336Z" fill="#DEC6A7"/>
<path d="M158.661 134.908C159.347 135.365 160.033 135.365 160.49 134.679C161.404 133.307 162.548 131.707 163.462 130.106C163.919 129.42 163.691 128.734 163.005 128.277C162.319 127.82 161.633 128.048 161.176 128.734C160.033 130.106 159.118 131.707 158.432 132.85C158.204 133.993 157.975 134.451 158.661 134.908Z" fill="#DEC6A7"/>
<path d="M174.665 110.441C175.35 110.898 176.036 110.67 176.493 109.984C177.408 108.612 178.322 107.24 179.237 105.868C179.694 105.182 179.694 104.496 179.008 104.039C178.094 103.581 177.408 103.81 176.951 104.496C176.036 105.868 175.122 107.011 174.436 108.383C174.207 109.298 173.979 109.984 174.665 110.441Z" fill="#DEC6A7"/>
<path d="M145.173 84.8326C144.944 85.7472 145.401 86.6618 146.316 86.6618C147.916 86.6618 149.517 86.6618 151.117 86.4332C152.031 86.2045 152.717 85.2899 152.031 84.6039C150.66 82.7747 148.602 84.3753 146.773 83.9179C146.316 83.6893 145.401 83.9179 145.173 84.8326Z" fill="#DEC6A7"/>
<path d="M56.2404 19.2082C57.3835 19.8942 58.7552 20.5801 59.8983 21.2661C60.8127 21.4947 61.4986 21.9521 62.1844 21.0374C62.6417 20.1228 61.9558 19.4368 61.4986 18.9795C60.3555 18.0649 59.2124 17.3789 57.8407 16.693C57.1548 16.2357 56.2404 16.2357 55.7831 17.1503C55.0973 18.0649 55.5545 18.7509 56.2404 19.2082Z" fill="#DEC6A7"/>
<path d="M140.143 163.718C141.286 162.346 142.201 160.974 143.115 159.83C143.344 158.916 143.572 158.23 143.115 158.001C142.658 157.544 141.972 157.773 141.286 158.23C139.915 159.373 139 160.974 138.086 162.346C137.628 163.032 137.857 163.489 138.314 163.946C139 164.175 139.686 164.175 140.143 163.718Z" fill="#DEC6A7"/>
<path d="M185.867 94.2063C185.181 93.749 184.495 93.9776 184.038 94.435C183.123 95.5782 182.209 96.9502 181.523 98.0935C181.066 99.2367 180.837 99.9227 181.752 100.38C182.438 100.837 183.123 100.151 183.581 99.6941C184.495 98.3221 185.41 97.1788 186.095 95.8069C186.553 95.3496 186.553 94.6636 185.867 94.2063Z" fill="#DEC6A7"/>
<path d="M171.921 69.7402C171.007 69.7402 170.321 69.9689 170.092 70.6549C169.864 72.2555 169.864 73.856 169.864 75.4566C169.864 76.1426 170.321 76.5999 171.235 76.5999C172.607 76.3713 172.607 75.228 172.607 74.3134C172.378 72.7128 173.293 71.1122 171.921 69.7402Z" fill="#DEC6A7"/>
<path d="M93.505 70.8845C93.2764 72.0278 93.0478 73.1711 93.0478 74.543C92.8191 75.4577 93.2764 76.1436 94.1909 76.3723C95.1053 76.601 95.5626 75.915 95.7912 74.7717C95.7912 73.8571 96.0198 72.4851 96.2484 71.3419C96.2484 70.4272 96.2484 69.7413 95.3339 69.7413C94.1909 69.284 93.505 69.9699 93.505 70.8845Z" fill="#DEC6A7"/>
<path d="M147.916 152.514C148.373 151.828 148.373 150.913 147.459 150.456C145.401 149.77 145.173 152.057 144.03 153.2C143.572 153.886 143.572 154.801 144.715 155.029C146.773 155.486 147.002 153.429 147.916 152.514Z" fill="#DEC6A7"/>
<path d="M80.4736 75.914L92.819 74.542L98.7631 63.3379L104.021 74.7707L116.367 76.8286L106.993 85.2889L108.822 97.6363L98.0772 91.6913L86.8749 97.179L89.1611 84.8316L80.4736 75.914Z" fill="#DEC6A7"/>
<path d="M172.836 13.491L176.951 12.805L179.008 9.14648L180.609 13.0336L184.724 13.7196L181.752 16.4635L182.209 20.5793L178.551 18.5214L174.893 20.3506L175.808 16.2348L172.836 13.491Z" fill="#DEC6A7"/>
<path d="M35.6646 8.91759L44.3521 8.00297L48.4672 0L52.3538 8.00297L61.0413 9.60356L54.6399 15.5486L55.783 24.4662L48.01 20.1218L40.0084 24.0089L41.8373 15.32L35.6646 8.91759Z" fill="#DEC6A7"/>
<path d="M0 85.5173L5.71546 84.8314L8.45888 79.5723L10.9737 84.8314L16.6891 85.746L12.3454 89.8618L13.2599 95.5782L8.23026 92.8343L2.97204 95.3495L4.11513 89.6331L0 85.5173Z" fill="#DEC6A7"/>
<path d="M128.483 163.718L133.742 163.032L136.256 158.23L138.314 163.032L143.572 163.947L139.686 167.605L140.372 172.864L135.799 170.121L131.227 172.636L132.141 167.377L128.483 163.718Z" fill="#DEC6A7"/>
<path d="M184.724 82.3166L191.354 81.402L194.554 75.6855L197.298 81.6306L203.699 82.7739L198.898 87.1184L199.812 93.7494L194.097 90.5482L188.153 93.5207L189.525 86.8897L184.724 82.3166Z" fill="#DEC6A7"/>
</g>
<defs>
<clipPath id="clip0_3774_6287">
<rect width="278" height="308" fill="white"/>
</clipPath>
</defs>
</svg>
