<svg width="22" height="22" viewBox="0 0 22 22" fill="none" xmlns="http://www.w3.org/2000/svg">
<path d="M19.4118 16.1765C19.4118 16.5135 19.277 16.837 19.0343 17.0797L17.0527 19.0478C16.81 19.277 16.473 19.3983 16.136 19.3983C15.799 19.3983 15.462 19.277 15.2194 19.0343L12.4424 16.2439C12.1998 16.0012 12.065 15.6642 12.065 15.3272C12.065 14.9228 12.2267 14.6127 12.5098 14.3431C12.9547 14.788 13.3321 15.3137 14.0196 15.3137C14.7341 15.3137 15.3137 14.7341 15.3137 14.0196C15.3137 13.3321 14.788 12.9547 14.3431 12.5098C14.6127 12.2267 14.9228 12.0784 15.3137 12.0784C15.6507 12.0784 15.9877 12.2132 16.2304 12.4559L19.0343 15.2598C19.277 15.5025 19.4118 15.826 19.4118 16.1765ZM9.93505 6.67279C9.93505 7.07721 9.77328 7.38725 9.4902 7.65686C9.04534 7.21201 8.66789 6.68627 7.98039 6.68627C7.26593 6.68627 6.68627 7.26593 6.68627 7.98039C6.68627 8.66789 7.21201 9.04534 7.65686 9.4902C7.38725 9.77328 7.07721 9.90809 6.68627 9.90809C6.34926 9.90809 6.01225 9.78677 5.76961 9.54412L2.96569 6.7402C2.72304 6.49755 2.58824 6.17402 2.58824 5.82353C2.58824 5.48652 2.72304 5.16299 2.96569 4.92034L4.9473 2.95221C5.18995 2.72304 5.52696 2.58824 5.86397 2.58824C6.20098 2.58824 6.53799 2.72304 6.78064 2.96569L9.5576 5.75613C9.80025 5.99877 9.93505 6.33578 9.93505 6.67279ZM22 16.1765C22 15.1385 21.6091 14.1679 20.8676 13.4265L18.0637 10.6225C17.3358 9.89461 16.3382 9.4902 15.3137 9.4902C14.2488 9.4902 13.2512 9.92157 12.5098 10.6765L11.3235 9.4902C12.0784 8.74877 12.5098 7.73774 12.5098 6.67279C12.5098 5.64828 12.1189 4.66422 11.3909 3.93628L8.61397 1.14583C7.88603 0.404412 6.90196 0 5.86397 0C4.83946 0 3.85539 0.390931 3.12745 1.11887L1.14583 3.08701C0.417892 3.80147 0 4.79902 0 5.82353C0 6.86152 0.390931 7.83211 1.13235 8.57353L3.93627 11.3774C4.66422 12.1054 5.66176 12.5098 6.68627 12.5098C7.75122 12.5098 8.74877 12.0784 9.4902 11.3235L10.6765 12.5098C9.92157 13.2512 9.4902 14.2623 9.4902 15.3272C9.4902 16.3517 9.88113 17.3358 10.6091 18.0637L13.386 20.8542C14.114 21.5956 15.098 22 16.136 22C17.1605 22 18.1446 21.6091 18.8725 20.8811L20.8542 18.913C21.5821 18.1985 22 17.201 22 16.1765Z" fill="#316C7A"/>
</svg>
