<svg width="26" height="26" viewBox="0 0 26 26" fill="none" xmlns="http://www.w3.org/2000/svg">
<path d="M25.9395 10.1123L25.9398 10.1122L25.9317 10.0456C25.9316 10.0444 25.9315 10.0435 25.9313 10.0424C25.9312 10.0414 25.9312 10.0406 25.931 10.0396L25.9008 9.78901C25.8948 9.73868 25.8878 9.68134 25.88 9.61592L25.8736 9.56384L25.8608 9.56542C25.5436 7.76173 24.6724 6.05001 23.3231 4.58845C21.9801 3.1339 20.2352 1.98545 18.2772 1.26725C16.5996 0.651902 14.8196 0.339844 12.9868 0.339844C10.5124 0.339844 8.1093 0.921785 6.03738 2.02271C2.042 4.14557 -0.314346 8.04757 0.0339247 11.9636C0.214198 13.99 1.00807 15.9189 2.32978 17.542C3.5738 19.0696 5.25667 20.3025 7.19636 21.1071C8.389 21.6018 9.56823 21.8349 10.8168 22.0818L10.963 22.1107C11.3068 22.1787 11.3992 22.2722 11.423 22.3092C11.4671 22.378 11.4441 22.5134 11.4264 22.588C11.4101 22.6569 11.3932 22.7255 11.3764 22.7943C11.2423 23.341 11.1037 23.9063 11.2126 24.5297C11.3378 25.2462 11.7853 25.6572 12.4402 25.6572C12.4403 25.6572 12.4403 25.6572 12.4404 25.6572C13.1449 25.6572 13.9468 25.1846 14.4773 24.872L14.5482 24.8303C15.814 24.087 17.0064 23.2485 17.9038 22.601C19.8676 21.1842 22.0935 19.5782 23.7623 17.5006C25.4427 15.4081 26.2343 12.7191 25.9395 10.1123ZM8.09676 14.0767H5.85369C5.51472 14.0767 5.23992 13.8019 5.23992 13.4629V8.75481C5.23992 8.41583 5.51472 8.14104 5.85369 8.14104C6.19267 8.14104 6.46746 8.41583 6.46746 8.75481V12.8492H8.09667C8.43565 12.8492 8.71044 13.124 8.71044 13.4629C8.71053 13.8019 8.43573 14.0767 8.09676 14.0767ZM10.4367 13.4463C10.4367 13.7853 10.1619 14.0601 9.82294 14.0601C9.48397 14.0601 9.20917 13.7853 9.20917 13.4463V8.73815C9.20917 8.39917 9.48397 8.12438 9.82294 8.12438C10.1619 8.12438 10.4367 8.39917 10.4367 8.73815V13.4463ZM15.9847 13.4463C15.9847 13.7122 15.8134 13.9479 15.5605 14.0301C15.498 14.0503 15.4341 14.0601 15.371 14.0601C15.1782 14.0601 14.9919 13.969 14.8742 13.8069L12.664 10.7629V13.4464C12.664 13.7854 12.3892 14.0601 12.0502 14.0601C11.7113 14.0601 11.4365 13.7854 11.4365 13.4464V8.87291C11.4365 8.60697 11.6077 8.37129 11.8607 8.28913C12.1137 8.20706 12.3907 8.29702 12.5469 8.51228L14.7571 11.5563V8.73815C14.7571 8.39917 15.0319 8.12438 15.3709 8.12438C15.7099 8.12438 15.9847 8.39917 15.9847 8.73815V13.4463ZM20.457 13.9634H17.4193C17.0803 13.9634 16.8055 13.6886 16.8055 13.3497V10.9957V8.64152C16.8055 8.30255 17.0803 8.02775 17.4193 8.02775H20.3628C20.7018 8.02775 20.9765 8.30255 20.9765 8.64152C20.9765 8.9805 20.7018 9.25529 20.3628 9.25529H18.0331V10.3819H19.9237C20.2626 10.3819 20.5374 10.6567 20.5374 10.9957C20.5374 11.3347 20.2626 11.6094 19.9237 11.6094H18.0331V12.7359H20.457C20.796 12.7359 21.0708 13.0107 21.0708 13.3497C21.0708 13.6886 20.796 13.9634 20.457 13.9634Z" fill="#316C7A"/>
</svg>
