<svg width="26" height="21" viewBox="0 0 26 21" fill="none" xmlns="http://www.w3.org/2000/svg">
<path d="M26 2.40081C25.037 2.77017 23.9778 3.04718 22.9185 3.23186C23.9778 2.58549 24.8444 1.56976 25.2296 0.369356C24.2667 0.923389 23.1111 1.38508 21.8593 1.56976C20.8963 0.554034 19.5481 0 18.0074 0C15.0222 0 12.7111 2.30847 12.7111 5.07864C12.7111 5.448 12.7111 5.90969 12.8074 6.27905C8.37778 6.09437 4.42963 4.06291 1.82963 0.923389C1.34815 1.6621 1.05926 2.58549 1.05926 3.50888C1.05926 5.26332 2.02222 6.83308 3.46667 7.75647C2.6 7.75647 1.73333 7.47945 1.05926 7.1101V7.20244C1.05926 9.69559 2.88889 11.727 5.2963 12.1887C4.81482 12.2811 4.33333 12.3734 3.85185 12.3734C3.46667 12.3734 3.17778 12.3734 2.88889 12.2811C3.56296 14.3125 5.48889 15.79 7.8963 15.79C6.06667 17.175 3.75556 18.0061 1.25185 18.0061C0.866667 18.0061 0.385185 18.0061 0 17.9137C2.40741 19.3912 5.2 20.2222 8.18519 20.2222C18.0074 20.2222 23.4 12.4658 23.4 5.63267C23.4 5.448 23.4 5.17098 23.4 4.9863C24.363 4.33993 25.3259 3.41654 26 2.40081Z" fill="#316C7A"/>
</svg>
